M48
; DRILL file {KiCad 5.1.2-f72e74a~84~ubuntu18.04.1} date mar. 23 juil. 2019 18:47:34 CEST
; FORMAT={-:-/ absolute / metric / decimal}
; #@! TF.CreationDate,2019-07-23T18:47:34+02:00
; #@! TF.GenerationSoftware,Kicad,Pcbnew,5.1.2-f72e74a~84~ubuntu18.04.1
; #@! TF.FileFunction,NonPlated,1,2,NPTH
FMAT,2
METRIC
T1C1.000
T2C2.700
%
G90
G05
T1
X208.0Y-75.0
X208.0Y-69.0
X204.0Y-69.0
X204.0Y-65.0
X208.0Y-63.0
X198.0Y-69.0
X208.0Y-67.0
X210.0Y-73.0
X202.0Y-65.0
X204.0Y-73.0
X208.0Y-65.0
X210.0Y-65.0
X210.0Y-69.0
X210.0Y-59.0
X206.0Y-71.0
X210.0Y-67.0
X200.0Y-75.0
X202.0Y-73.0
X210.0Y-71.0
X208.0Y-73.0
X198.0Y-73.0
X202.0Y-75.0
X200.0Y-69.0
X204.0Y-71.0
X208.0Y-59.0
X200.0Y-73.0
X206.0Y-69.0
X196.0Y-73.0
X196.0Y-75.0
X200.0Y-67.0
X210.0Y-63.0
X210.0Y-75.0
X204.0Y-75.0
X206.0Y-61.0
X204.0Y-67.0
X206.0Y-73.0
X200.0Y-71.0
X202.0Y-71.0
X202.0Y-67.0
X208.0Y-61.0
X196.0Y-71.0
X206.0Y-63.0
X206.0Y-67.0
X204.0Y-63.0
X208.0Y-71.0
X202.0Y-69.0
X206.0Y-65.0
X206.0Y-75.0
X210.0Y-61.0
X198.0Y-75.0
X198.0Y-71.0
T2
X179.0Y-65.0
T0
M30
