M48
; DRILL file {KiCad 5.1.2-f72e74a~84~ubuntu18.04.1} date mar. 23 juil. 2019 18:47:34 CEST
; FORMAT={-:-/ absolute / metric / decimal}
; #@! TF.CreationDate,2019-07-23T18:47:34+02:00
; #@! TF.GenerationSoftware,Kicad,Pcbnew,5.1.2-f72e74a~84~ubuntu18.04.1
; #@! TF.FileFunction,Plated,1,2,PTH
FMAT,2
METRIC
T1C0.750
T2C0.800
T3C0.950
T4C1.000
T5C1.500
T6C1.520
%
G90
G05
T1
X170.9Y-71.0
X170.9Y-72.27
X170.9Y-73.54
T2
X179.7Y-71.3
X179.7Y-73.3
X164.76Y-72.3
X167.3Y-72.3
X184.1Y-69.0
X185.5Y-61.5
X175.3Y-71.0
X175.3Y-73.5
T3
X164.7Y-77.1
X164.7Y-79.6
X164.7Y-82.1
T4
X195.09Y-81.31
X200.29Y-51.91
X205.29Y-51.91
X210.49Y-81.31
T5
X169.8Y-80.2
X192.4Y-80.2
X164.2Y-53.8
X186.8Y-53.8
X190.1Y-52.38
X190.1Y-72.7
T6
X165.9Y-61.4
X165.9Y-66.48
T0
M30
