G04 #@! TF.GenerationSoftware,KiCad,Pcbnew,5.1.2-f72e74a~84~ubuntu18.04.1*
G04 #@! TF.CreationDate,2019-07-23T18:27:44+02:00*
G04 #@! TF.ProjectId,InWall-ACDC,496e5761-6c6c-42d4-9143-44432e6b6963,1.0*
G04 #@! TF.SameCoordinates,Original*
G04 #@! TF.FileFunction,Copper,L1,Top*
G04 #@! TF.FilePolarity,Positive*
%FSLAX46Y46*%
G04 Gerber Fmt 4.6, Leading zero omitted, Abs format (unit mm)*
G04 Created by KiCad (PCBNEW 5.1.2-f72e74a~84~ubuntu18.04.1) date 2019-07-23 18:27:44*
%MOMM*%
%LPD*%
G04 APERTURE LIST*
%ADD10C,1.600000*%
%ADD11R,1.600000X1.600000*%
%ADD12C,2.300000*%
%ADD13R,2.000000X2.300000*%
%ADD14R,1.500000X1.050000*%
%ADD15O,1.500000X1.050000*%
%ADD16O,1.600000X1.600000*%
%ADD17O,1.950000X1.700000*%
%ADD18C,0.100000*%
%ADD19C,1.700000*%
%ADD20C,2.700000*%
%ADD21C,1.800000*%
%ADD22C,3.000000*%
%ADD23R,3.000000X3.000000*%
%ADD24C,0.500000*%
G04 APERTURE END LIST*
D10*
X179700000Y-71300000D03*
D11*
X179700000Y-73300000D03*
D12*
X195090000Y-81310000D03*
X200290000Y-51910000D03*
D13*
X205290000Y-51910000D03*
D12*
X210490000Y-81310000D03*
D14*
X170900000Y-71000000D03*
D15*
X170900000Y-73540000D03*
X170900000Y-72270000D03*
D16*
X164760000Y-72300000D03*
D10*
X167300000Y-72300000D03*
D17*
X164700000Y-77100000D03*
X164700000Y-79600000D03*
D18*
G36*
X165449504Y-81251204D02*
G01*
X165473773Y-81254804D01*
X165497571Y-81260765D01*
X165520671Y-81269030D01*
X165542849Y-81279520D01*
X165563893Y-81292133D01*
X165583598Y-81306747D01*
X165601777Y-81323223D01*
X165618253Y-81341402D01*
X165632867Y-81361107D01*
X165645480Y-81382151D01*
X165655970Y-81404329D01*
X165664235Y-81427429D01*
X165670196Y-81451227D01*
X165673796Y-81475496D01*
X165675000Y-81500000D01*
X165675000Y-82700000D01*
X165673796Y-82724504D01*
X165670196Y-82748773D01*
X165664235Y-82772571D01*
X165655970Y-82795671D01*
X165645480Y-82817849D01*
X165632867Y-82838893D01*
X165618253Y-82858598D01*
X165601777Y-82876777D01*
X165583598Y-82893253D01*
X165563893Y-82907867D01*
X165542849Y-82920480D01*
X165520671Y-82930970D01*
X165497571Y-82939235D01*
X165473773Y-82945196D01*
X165449504Y-82948796D01*
X165425000Y-82950000D01*
X163975000Y-82950000D01*
X163950496Y-82948796D01*
X163926227Y-82945196D01*
X163902429Y-82939235D01*
X163879329Y-82930970D01*
X163857151Y-82920480D01*
X163836107Y-82907867D01*
X163816402Y-82893253D01*
X163798223Y-82876777D01*
X163781747Y-82858598D01*
X163767133Y-82838893D01*
X163754520Y-82817849D01*
X163744030Y-82795671D01*
X163735765Y-82772571D01*
X163729804Y-82748773D01*
X163726204Y-82724504D01*
X163725000Y-82700000D01*
X163725000Y-81500000D01*
X163726204Y-81475496D01*
X163729804Y-81451227D01*
X163735765Y-81427429D01*
X163744030Y-81404329D01*
X163754520Y-81382151D01*
X163767133Y-81361107D01*
X163781747Y-81341402D01*
X163798223Y-81323223D01*
X163816402Y-81306747D01*
X163836107Y-81292133D01*
X163857151Y-81279520D01*
X163879329Y-81269030D01*
X163902429Y-81260765D01*
X163926227Y-81254804D01*
X163950496Y-81251204D01*
X163975000Y-81250000D01*
X165425000Y-81250000D01*
X165449504Y-81251204D01*
X165449504Y-81251204D01*
G37*
D19*
X164700000Y-82100000D03*
D20*
X190100000Y-52380000D03*
X190100000Y-72700000D03*
D21*
X185500000Y-61500000D03*
X184100000Y-69000000D03*
D22*
X165900000Y-66480000D03*
D23*
X165900000Y-61400000D03*
D22*
X192400000Y-80200000D03*
X169800000Y-80200000D03*
X164200000Y-53800000D03*
X186800000Y-53800000D03*
D10*
X175300000Y-71000000D03*
X175300000Y-73500000D03*
D24*
X180200002Y-71300000D02*
X179700000Y-71300000D01*
X187100001Y-78199999D02*
X180200002Y-71300000D01*
X207379999Y-78199999D02*
X187100001Y-78199999D01*
X210490000Y-81310000D02*
X207379999Y-78199999D01*
X175600000Y-71300000D02*
X175300000Y-71000000D01*
X179700000Y-71300000D02*
X175600000Y-71300000D01*
X175300000Y-71000000D02*
X170900000Y-71000000D01*
X175500000Y-73300000D02*
X175300000Y-73500000D01*
X179700000Y-73300000D02*
X175500000Y-73300000D01*
X170940000Y-73500000D02*
X170900000Y-73540000D01*
X175300000Y-73500000D02*
X170940000Y-73500000D01*
X179700000Y-74600000D02*
X179700000Y-73300000D01*
X174100000Y-80200000D02*
X179700000Y-74600000D01*
X169800000Y-80200000D02*
X174100000Y-80200000D01*
X169650000Y-73540000D02*
X170900000Y-73540000D01*
X169589999Y-73600001D02*
X169650000Y-73540000D01*
X164760000Y-73431370D02*
X164928631Y-73600001D01*
X164928631Y-73600001D02*
X169589999Y-73600001D01*
X164760000Y-72300000D02*
X164760000Y-73431370D01*
X167330000Y-72270000D02*
X167300000Y-72300000D01*
X170900000Y-72270000D02*
X167330000Y-72270000D01*
X193510000Y-81310000D02*
X192400000Y-80200000D01*
X195090000Y-81310000D02*
X193510000Y-81310000D01*
M02*
