G04 #@! TF.GenerationSoftware,KiCad,Pcbnew,5.1.2-f72e74a~84~ubuntu18.04.1*
G04 #@! TF.CreationDate,2019-07-18T21:55:21+02:00*
G04 #@! TF.ProjectId,InWall-ACDC,496e5761-6c6c-42d4-9143-44432e6b6963,1.0*
G04 #@! TF.SameCoordinates,Original*
G04 #@! TF.FileFunction,Legend,Bot*
G04 #@! TF.FilePolarity,Positive*
%FSLAX46Y46*%
G04 Gerber Fmt 4.6, Leading zero omitted, Abs format (unit mm)*
G04 Created by KiCad (PCBNEW 5.1.2-f72e74a~84~ubuntu18.04.1) date 2019-07-18 21:55:21*
%MOMM*%
%LPD*%
G04 APERTURE LIST*
%ADD10C,0.150000*%
%ADD11C,0.300000*%
%ADD12C,0.450000*%
%ADD13C,1.000000*%
%ADD14C,0.010000*%
G04 APERTURE END LIST*
D10*
X163352380Y-66114285D02*
X162352380Y-66114285D01*
X163352380Y-66685714D01*
X162352380Y-66685714D01*
X163552380Y-61138095D02*
X162552380Y-61138095D01*
X162552380Y-61519047D01*
X162600000Y-61614285D01*
X162647619Y-61661904D01*
X162742857Y-61709523D01*
X162885714Y-61709523D01*
X162980952Y-61661904D01*
X163028571Y-61614285D01*
X163076190Y-61519047D01*
X163076190Y-61138095D01*
X162252380Y-79000000D02*
X162300000Y-78904761D01*
X162395238Y-78857142D01*
X162490476Y-78904761D01*
X162538095Y-79000000D01*
X162490476Y-79095238D01*
X162395238Y-79142857D01*
X162300000Y-79095238D01*
X162252380Y-79000000D01*
X163157142Y-80190476D02*
X163204761Y-80142857D01*
X163252380Y-80000000D01*
X163252380Y-79904761D01*
X163204761Y-79761904D01*
X163109523Y-79666666D01*
X163014285Y-79619047D01*
X162823809Y-79571428D01*
X162680952Y-79571428D01*
X162490476Y-79619047D01*
X162395238Y-79666666D01*
X162300000Y-79761904D01*
X162252380Y-79904761D01*
X162252380Y-80000000D01*
X162300000Y-80142857D01*
X162347619Y-80190476D01*
X162352380Y-81266666D02*
X163352380Y-81600000D01*
X162352380Y-81933333D01*
X163257142Y-82838095D02*
X163304761Y-82790476D01*
X163352380Y-82647619D01*
X163352380Y-82552380D01*
X163304761Y-82409523D01*
X163209523Y-82314285D01*
X163114285Y-82266666D01*
X162923809Y-82219047D01*
X162780952Y-82219047D01*
X162590476Y-82266666D01*
X162495238Y-82314285D01*
X162400000Y-82409523D01*
X162352380Y-82552380D01*
X162352380Y-82647619D01*
X162400000Y-82790476D01*
X162447619Y-82838095D01*
X163257142Y-83838095D02*
X163304761Y-83790476D01*
X163352380Y-83647619D01*
X163352380Y-83552380D01*
X163304761Y-83409523D01*
X163209523Y-83314285D01*
X163114285Y-83266666D01*
X162923809Y-83219047D01*
X162780952Y-83219047D01*
X162590476Y-83266666D01*
X162495238Y-83314285D01*
X162400000Y-83409523D01*
X162352380Y-83552380D01*
X162352380Y-83647619D01*
X162400000Y-83790476D01*
X162447619Y-83838095D01*
X162300000Y-75538095D02*
X162252380Y-75442857D01*
X162252380Y-75300000D01*
X162300000Y-75157142D01*
X162395238Y-75061904D01*
X162490476Y-75014285D01*
X162680952Y-74966666D01*
X162823809Y-74966666D01*
X163014285Y-75014285D01*
X163109523Y-75061904D01*
X163204761Y-75157142D01*
X163252380Y-75300000D01*
X163252380Y-75395238D01*
X163204761Y-75538095D01*
X163157142Y-75585714D01*
X162823809Y-75585714D01*
X162823809Y-75395238D01*
X163252380Y-76014285D02*
X162252380Y-76014285D01*
X163252380Y-76585714D01*
X162252380Y-76585714D01*
X163252380Y-77061904D02*
X162252380Y-77061904D01*
X162252380Y-77300000D01*
X162300000Y-77442857D01*
X162395238Y-77538095D01*
X162490476Y-77585714D01*
X162680952Y-77633333D01*
X162823809Y-77633333D01*
X163014285Y-77585714D01*
X163109523Y-77538095D01*
X163204761Y-77442857D01*
X163252380Y-77300000D01*
X163252380Y-77061904D01*
X206000000Y-83100000D02*
X199900000Y-83100000D01*
D11*
X189464285Y-78528571D02*
X189464285Y-77028571D01*
X188750000Y-77528571D02*
X188750000Y-78528571D01*
X188750000Y-77671428D02*
X188678571Y-77600000D01*
X188535714Y-77528571D01*
X188321428Y-77528571D01*
X188178571Y-77600000D01*
X188107142Y-77742857D01*
X188107142Y-78528571D01*
X186392857Y-77528571D02*
X186107142Y-78528571D01*
X185821428Y-77814285D01*
X185535714Y-78528571D01*
X185250000Y-77528571D01*
X184035714Y-78528571D02*
X184035714Y-77742857D01*
X184107142Y-77600000D01*
X184250000Y-77528571D01*
X184535714Y-77528571D01*
X184678571Y-77600000D01*
X184035714Y-78457142D02*
X184178571Y-78528571D01*
X184535714Y-78528571D01*
X184678571Y-78457142D01*
X184750000Y-78314285D01*
X184750000Y-78171428D01*
X184678571Y-78028571D01*
X184535714Y-77957142D01*
X184178571Y-77957142D01*
X184035714Y-77885714D01*
X183107142Y-78528571D02*
X183250000Y-78457142D01*
X183321428Y-78314285D01*
X183321428Y-77028571D01*
X182321428Y-78528571D02*
X182464285Y-78457142D01*
X182535714Y-78314285D01*
X182535714Y-77028571D01*
X180678571Y-78100000D02*
X179964285Y-78100000D01*
X180821428Y-78528571D02*
X180321428Y-77028571D01*
X179821428Y-78528571D01*
X178464285Y-78385714D02*
X178535714Y-78457142D01*
X178750000Y-78528571D01*
X178892857Y-78528571D01*
X179107142Y-78457142D01*
X179250000Y-78314285D01*
X179321428Y-78171428D01*
X179392857Y-77885714D01*
X179392857Y-77671428D01*
X179321428Y-77385714D01*
X179250000Y-77242857D01*
X179107142Y-77100000D01*
X178892857Y-77028571D01*
X178750000Y-77028571D01*
X178535714Y-77100000D01*
X178464285Y-77171428D01*
X177821428Y-77957142D02*
X176678571Y-77957142D01*
X175964285Y-78528571D02*
X175964285Y-77028571D01*
X175607142Y-77028571D01*
X175392857Y-77100000D01*
X175250000Y-77242857D01*
X175178571Y-77385714D01*
X175107142Y-77671428D01*
X175107142Y-77885714D01*
X175178571Y-78171428D01*
X175250000Y-78314285D01*
X175392857Y-78457142D01*
X175607142Y-78528571D01*
X175964285Y-78528571D01*
X173607142Y-78385714D02*
X173678571Y-78457142D01*
X173892857Y-78528571D01*
X174035714Y-78528571D01*
X174250000Y-78457142D01*
X174392857Y-78314285D01*
X174464285Y-78171428D01*
X174535714Y-77885714D01*
X174535714Y-77671428D01*
X174464285Y-77385714D01*
X174392857Y-77242857D01*
X174250000Y-77100000D01*
X174035714Y-77028571D01*
X173892857Y-77028571D01*
X173678571Y-77100000D01*
X173607142Y-77171428D01*
X189500000Y-79721428D02*
X189428571Y-79650000D01*
X189285714Y-79578571D01*
X188928571Y-79578571D01*
X188785714Y-79650000D01*
X188714285Y-79721428D01*
X188642857Y-79864285D01*
X188642857Y-80007142D01*
X188714285Y-80221428D01*
X189571428Y-81078571D01*
X188642857Y-81078571D01*
X188071428Y-79721428D02*
X188000000Y-79650000D01*
X187857142Y-79578571D01*
X187500000Y-79578571D01*
X187357142Y-79650000D01*
X187285714Y-79721428D01*
X187214285Y-79864285D01*
X187214285Y-80007142D01*
X187285714Y-80221428D01*
X188142857Y-81078571D01*
X187214285Y-81078571D01*
X186285714Y-79578571D02*
X186142857Y-79578571D01*
X186000000Y-79650000D01*
X185928571Y-79721428D01*
X185857142Y-79864285D01*
X185785714Y-80150000D01*
X185785714Y-80507142D01*
X185857142Y-80792857D01*
X185928571Y-80935714D01*
X186000000Y-81007142D01*
X186142857Y-81078571D01*
X186285714Y-81078571D01*
X186428571Y-81007142D01*
X186500000Y-80935714D01*
X186571428Y-80792857D01*
X186642857Y-80507142D01*
X186642857Y-80150000D01*
X186571428Y-79864285D01*
X186500000Y-79721428D01*
X186428571Y-79650000D01*
X186285714Y-79578571D01*
X185357142Y-79578571D02*
X184857142Y-81078571D01*
X184357142Y-79578571D01*
X182714285Y-80507142D02*
X181571428Y-80507142D01*
X179857142Y-79578571D02*
X178928571Y-79578571D01*
X179428571Y-80150000D01*
X179214285Y-80150000D01*
X179071428Y-80221428D01*
X179000000Y-80292857D01*
X178928571Y-80435714D01*
X178928571Y-80792857D01*
X179000000Y-80935714D01*
X179071428Y-81007142D01*
X179214285Y-81078571D01*
X179642857Y-81078571D01*
X179785714Y-81007142D01*
X179857142Y-80935714D01*
X178285714Y-80935714D02*
X178214285Y-81007142D01*
X178285714Y-81078571D01*
X178357142Y-81007142D01*
X178285714Y-80935714D01*
X178285714Y-81078571D01*
X177714285Y-79578571D02*
X176785714Y-79578571D01*
X177285714Y-80150000D01*
X177071428Y-80150000D01*
X176928571Y-80221428D01*
X176857142Y-80292857D01*
X176785714Y-80435714D01*
X176785714Y-80792857D01*
X176857142Y-80935714D01*
X176928571Y-81007142D01*
X177071428Y-81078571D01*
X177500000Y-81078571D01*
X177642857Y-81007142D01*
X177714285Y-80935714D01*
X175071428Y-79507142D02*
X176357142Y-81435714D01*
X173857142Y-79578571D02*
X174571428Y-79578571D01*
X174642857Y-80292857D01*
X174571428Y-80221428D01*
X174428571Y-80150000D01*
X174071428Y-80150000D01*
X173928571Y-80221428D01*
X173857142Y-80292857D01*
X173785714Y-80435714D01*
X173785714Y-80792857D01*
X173857142Y-80935714D01*
X173928571Y-81007142D01*
X174071428Y-81078571D01*
X174428571Y-81078571D01*
X174571428Y-81007142D01*
X174642857Y-80935714D01*
X173357142Y-79578571D02*
X172857142Y-81078571D01*
X172357142Y-79578571D01*
X183142857Y-82628571D02*
X182785714Y-83628571D01*
X182428571Y-82628571D01*
X181071428Y-83628571D02*
X181928571Y-83628571D01*
X181500000Y-83628571D02*
X181500000Y-82128571D01*
X181642857Y-82342857D01*
X181785714Y-82485714D01*
X181928571Y-82557142D01*
X180428571Y-83485714D02*
X180357142Y-83557142D01*
X180428571Y-83628571D01*
X180500000Y-83557142D01*
X180428571Y-83485714D01*
X180428571Y-83628571D01*
X179428571Y-82128571D02*
X179285714Y-82128571D01*
X179142857Y-82200000D01*
X179071428Y-82271428D01*
X179000000Y-82414285D01*
X178928571Y-82700000D01*
X178928571Y-83057142D01*
X179000000Y-83342857D01*
X179071428Y-83485714D01*
X179142857Y-83557142D01*
X179285714Y-83628571D01*
X179428571Y-83628571D01*
X179571428Y-83557142D01*
X179642857Y-83485714D01*
X179714285Y-83342857D01*
X179785714Y-83057142D01*
X179785714Y-82700000D01*
X179714285Y-82414285D01*
X179642857Y-82271428D01*
X179571428Y-82200000D01*
X179428571Y-82128571D01*
D10*
X205759761Y-84303095D02*
X205759761Y-83633095D01*
X205536428Y-84111666D01*
X205313095Y-83633095D01*
X205313095Y-84303095D01*
X204994047Y-84303095D02*
X204994047Y-83633095D01*
X204770714Y-83633095D02*
X204387857Y-83633095D01*
X204579285Y-84303095D02*
X204579285Y-83633095D01*
X203335000Y-84303095D02*
X203654047Y-84303095D01*
X203654047Y-83633095D01*
X203111666Y-84303095D02*
X203111666Y-83856428D01*
X203111666Y-83633095D02*
X203143571Y-83665000D01*
X203111666Y-83696904D01*
X203079761Y-83665000D01*
X203111666Y-83633095D01*
X203111666Y-83696904D01*
X202505476Y-84271190D02*
X202569285Y-84303095D01*
X202696904Y-84303095D01*
X202760714Y-84271190D01*
X202792619Y-84239285D01*
X202824523Y-84175476D01*
X202824523Y-83984047D01*
X202792619Y-83920238D01*
X202760714Y-83888333D01*
X202696904Y-83856428D01*
X202569285Y-83856428D01*
X202505476Y-83888333D01*
X201963095Y-84271190D02*
X202026904Y-84303095D01*
X202154523Y-84303095D01*
X202218333Y-84271190D01*
X202250238Y-84207380D01*
X202250238Y-83952142D01*
X202218333Y-83888333D01*
X202154523Y-83856428D01*
X202026904Y-83856428D01*
X201963095Y-83888333D01*
X201931190Y-83952142D01*
X201931190Y-84015952D01*
X202250238Y-84079761D01*
X201644047Y-83856428D02*
X201644047Y-84303095D01*
X201644047Y-83920238D02*
X201612142Y-83888333D01*
X201548333Y-83856428D01*
X201452619Y-83856428D01*
X201388809Y-83888333D01*
X201356904Y-83952142D01*
X201356904Y-84303095D01*
X201069761Y-84271190D02*
X201005952Y-84303095D01*
X200878333Y-84303095D01*
X200814523Y-84271190D01*
X200782619Y-84207380D01*
X200782619Y-84175476D01*
X200814523Y-84111666D01*
X200878333Y-84079761D01*
X200974047Y-84079761D01*
X201037857Y-84047857D01*
X201069761Y-83984047D01*
X201069761Y-83952142D01*
X201037857Y-83888333D01*
X200974047Y-83856428D01*
X200878333Y-83856428D01*
X200814523Y-83888333D01*
X200240238Y-84271190D02*
X200304047Y-84303095D01*
X200431666Y-84303095D01*
X200495476Y-84271190D01*
X200527380Y-84207380D01*
X200527380Y-83952142D01*
X200495476Y-83888333D01*
X200431666Y-83856428D01*
X200304047Y-83856428D01*
X200240238Y-83888333D01*
X200208333Y-83952142D01*
X200208333Y-84015952D01*
X200527380Y-84079761D01*
D12*
X194100000Y-62300000D02*
X190900000Y-56200000D01*
X187600000Y-62300000D02*
X194100000Y-62300000D01*
X190900000Y-56200000D02*
X187600000Y-62300000D01*
X190900000Y-60971428D02*
X190757142Y-61114285D01*
X190900000Y-61257142D01*
X191042857Y-61114285D01*
X190900000Y-60971428D01*
X190900000Y-61257142D01*
X190900000Y-60114285D02*
X191042857Y-58400000D01*
X190900000Y-58257142D01*
X190757142Y-58400000D01*
X190900000Y-60114285D01*
X190900000Y-58257142D01*
D13*
X188000000Y-76000000D02*
X213000000Y-76000000D01*
X181000000Y-69000000D02*
X188000000Y-76000000D01*
X162000000Y-69000000D02*
X181000000Y-69000000D01*
D11*
X185333333Y-58354761D02*
X185333333Y-56354761D01*
X184857142Y-56354761D01*
X184571428Y-56450000D01*
X184380952Y-56640476D01*
X184285714Y-56830952D01*
X184190476Y-57211904D01*
X184190476Y-57497619D01*
X184285714Y-57878571D01*
X184380952Y-58069047D01*
X184571428Y-58259523D01*
X184857142Y-58354761D01*
X185333333Y-58354761D01*
X183428571Y-57783333D02*
X182476190Y-57783333D01*
X183619047Y-58354761D02*
X182952380Y-56354761D01*
X182285714Y-58354761D01*
X181619047Y-58354761D02*
X181619047Y-56354761D01*
X180476190Y-58354761D01*
X180476190Y-56354761D01*
X178476190Y-56450000D02*
X178666666Y-56354761D01*
X178952380Y-56354761D01*
X179238095Y-56450000D01*
X179428571Y-56640476D01*
X179523809Y-56830952D01*
X179619047Y-57211904D01*
X179619047Y-57497619D01*
X179523809Y-57878571D01*
X179428571Y-58069047D01*
X179238095Y-58259523D01*
X178952380Y-58354761D01*
X178761904Y-58354761D01*
X178476190Y-58259523D01*
X178380952Y-58164285D01*
X178380952Y-57497619D01*
X178761904Y-57497619D01*
X177523809Y-57307142D02*
X176857142Y-57307142D01*
X176571428Y-58354761D02*
X177523809Y-58354761D01*
X177523809Y-56354761D01*
X176571428Y-56354761D01*
X174571428Y-58354761D02*
X175238095Y-57402380D01*
X175714285Y-58354761D02*
X175714285Y-56354761D01*
X174952380Y-56354761D01*
X174761904Y-56450000D01*
X174666666Y-56545238D01*
X174571428Y-56735714D01*
X174571428Y-57021428D01*
X174666666Y-57211904D01*
X174761904Y-57307142D01*
X174952380Y-57402380D01*
X175714285Y-57402380D01*
X183333333Y-59845238D02*
X183238095Y-59750000D01*
X183047619Y-59654761D01*
X182571428Y-59654761D01*
X182380952Y-59750000D01*
X182285714Y-59845238D01*
X182190476Y-60035714D01*
X182190476Y-60226190D01*
X182285714Y-60511904D01*
X183428571Y-61654761D01*
X182190476Y-61654761D01*
X181428571Y-59845238D02*
X181333333Y-59750000D01*
X181142857Y-59654761D01*
X180666666Y-59654761D01*
X180476190Y-59750000D01*
X180380952Y-59845238D01*
X180285714Y-60035714D01*
X180285714Y-60226190D01*
X180380952Y-60511904D01*
X181523809Y-61654761D01*
X180285714Y-61654761D01*
X179047619Y-59654761D02*
X178857142Y-59654761D01*
X178666666Y-59750000D01*
X178571428Y-59845238D01*
X178476190Y-60035714D01*
X178380952Y-60416666D01*
X178380952Y-60892857D01*
X178476190Y-61273809D01*
X178571428Y-61464285D01*
X178666666Y-61559523D01*
X178857142Y-61654761D01*
X179047619Y-61654761D01*
X179238095Y-61559523D01*
X179333333Y-61464285D01*
X179428571Y-61273809D01*
X179523809Y-60892857D01*
X179523809Y-60416666D01*
X179428571Y-60035714D01*
X179333333Y-59845238D01*
X179238095Y-59750000D01*
X179047619Y-59654761D01*
X177809523Y-59654761D02*
X177142857Y-61654761D01*
X176476190Y-59654761D01*
D14*
G36*
X202723036Y-76990018D02*
G01*
X202666188Y-77291570D01*
X202246662Y-77464512D01*
X201995016Y-77293395D01*
X201924542Y-77245750D01*
X201860837Y-77203210D01*
X201806874Y-77167715D01*
X201765627Y-77141210D01*
X201740066Y-77125636D01*
X201733105Y-77122278D01*
X201720565Y-77130914D01*
X201693769Y-77154792D01*
X201655720Y-77190859D01*
X201609421Y-77236067D01*
X201557877Y-77287364D01*
X201504091Y-77341701D01*
X201451065Y-77396028D01*
X201401805Y-77447295D01*
X201359313Y-77492451D01*
X201326593Y-77528446D01*
X201306649Y-77552230D01*
X201301881Y-77560190D01*
X201308743Y-77574865D01*
X201327980Y-77607014D01*
X201357570Y-77653492D01*
X201395490Y-77711156D01*
X201439718Y-77776860D01*
X201465346Y-77814336D01*
X201512059Y-77882768D01*
X201553568Y-77944520D01*
X201587860Y-77996519D01*
X201612920Y-78035692D01*
X201626736Y-78058965D01*
X201628812Y-78063855D01*
X201624105Y-78077755D01*
X201611277Y-78110150D01*
X201592262Y-78156485D01*
X201568997Y-78212206D01*
X201543416Y-78272758D01*
X201517455Y-78333586D01*
X201493050Y-78390136D01*
X201472137Y-78437852D01*
X201456651Y-78472181D01*
X201448528Y-78488568D01*
X201448048Y-78489212D01*
X201435293Y-78492341D01*
X201401323Y-78499321D01*
X201349660Y-78509467D01*
X201283824Y-78522092D01*
X201207336Y-78536509D01*
X201162710Y-78544823D01*
X201080979Y-78560384D01*
X201007157Y-78575192D01*
X200944979Y-78588436D01*
X200898178Y-78599305D01*
X200870491Y-78606989D01*
X200864926Y-78609427D01*
X200859474Y-78625930D01*
X200855076Y-78663200D01*
X200851728Y-78716880D01*
X200849426Y-78782612D01*
X200848168Y-78856037D01*
X200847952Y-78932796D01*
X200848773Y-79008532D01*
X200850629Y-79078886D01*
X200853518Y-79139500D01*
X200857435Y-79186016D01*
X200862378Y-79214075D01*
X200865343Y-79219916D01*
X200883066Y-79226917D01*
X200920619Y-79236927D01*
X200973036Y-79248769D01*
X201035348Y-79261267D01*
X201057100Y-79265310D01*
X201161976Y-79284520D01*
X201244820Y-79299991D01*
X201308370Y-79312337D01*
X201355363Y-79322173D01*
X201388537Y-79330114D01*
X201410629Y-79336776D01*
X201424376Y-79342773D01*
X201432516Y-79348719D01*
X201433655Y-79349894D01*
X201445023Y-79368826D01*
X201462365Y-79405669D01*
X201483950Y-79455913D01*
X201508046Y-79515046D01*
X201532921Y-79578556D01*
X201556843Y-79641932D01*
X201578081Y-79700662D01*
X201594903Y-79750235D01*
X201605578Y-79786139D01*
X201608373Y-79803862D01*
X201608140Y-79804483D01*
X201598669Y-79818970D01*
X201577182Y-79850844D01*
X201545937Y-79896789D01*
X201507193Y-79953485D01*
X201463207Y-80017617D01*
X201450681Y-80035842D01*
X201406016Y-80101914D01*
X201366712Y-80162200D01*
X201334912Y-80213235D01*
X201312755Y-80251560D01*
X201302383Y-80273711D01*
X201301881Y-80276432D01*
X201310595Y-80290736D01*
X201334675Y-80319072D01*
X201371024Y-80358396D01*
X201416547Y-80405661D01*
X201468148Y-80457823D01*
X201522733Y-80511835D01*
X201577206Y-80564653D01*
X201628471Y-80613231D01*
X201673433Y-80654523D01*
X201708996Y-80685485D01*
X201732065Y-80703070D01*
X201738446Y-80705941D01*
X201753301Y-80699178D01*
X201783714Y-80680939D01*
X201824732Y-80654297D01*
X201856291Y-80632852D01*
X201913475Y-80593503D01*
X201981194Y-80547171D01*
X202049120Y-80500913D01*
X202085639Y-80476155D01*
X202209248Y-80392547D01*
X202313009Y-80448650D01*
X202360280Y-80473228D01*
X202400477Y-80492331D01*
X202427674Y-80503227D01*
X202434598Y-80504743D01*
X202442923Y-80493549D01*
X202459346Y-80461917D01*
X202482643Y-80412765D01*
X202511586Y-80349010D01*
X202544950Y-80273571D01*
X202581509Y-80189364D01*
X202620036Y-80099308D01*
X202659306Y-80006321D01*
X202698092Y-79913320D01*
X202735170Y-79823223D01*
X202769311Y-79738948D01*
X202799292Y-79663413D01*
X202823884Y-79599534D01*
X202841864Y-79550231D01*
X202852003Y-79518421D01*
X202853634Y-79507496D01*
X202840709Y-79493561D01*
X202812411Y-79470940D01*
X202774654Y-79444333D01*
X202771485Y-79442228D01*
X202673900Y-79364114D01*
X202595214Y-79272982D01*
X202536109Y-79171745D01*
X202497268Y-79063318D01*
X202479372Y-78950614D01*
X202483103Y-78836548D01*
X202509143Y-78724034D01*
X202558175Y-78615985D01*
X202572600Y-78592345D01*
X202647631Y-78496887D01*
X202736270Y-78420232D01*
X202835451Y-78362780D01*
X202942105Y-78324929D01*
X203053164Y-78307078D01*
X203165561Y-78309625D01*
X203276227Y-78332970D01*
X203382094Y-78377510D01*
X203480095Y-78443645D01*
X203510410Y-78470487D01*
X203587562Y-78554512D01*
X203643782Y-78642966D01*
X203682347Y-78742115D01*
X203703826Y-78840303D01*
X203709128Y-78950697D01*
X203691448Y-79061640D01*
X203652581Y-79169381D01*
X203594323Y-79270169D01*
X203518469Y-79360256D01*
X203426817Y-79435892D01*
X203414772Y-79443864D01*
X203376611Y-79469974D01*
X203347601Y-79492595D01*
X203333732Y-79507039D01*
X203333531Y-79507496D01*
X203336508Y-79523121D01*
X203348311Y-79558582D01*
X203367714Y-79610962D01*
X203393488Y-79677345D01*
X203424409Y-79754814D01*
X203459249Y-79840450D01*
X203496783Y-79931337D01*
X203535783Y-80024559D01*
X203575023Y-80117197D01*
X203613276Y-80206335D01*
X203649317Y-80289055D01*
X203681917Y-80362441D01*
X203709852Y-80423575D01*
X203731895Y-80469541D01*
X203746818Y-80497421D01*
X203752828Y-80504743D01*
X203771191Y-80499041D01*
X203805552Y-80483749D01*
X203849984Y-80461599D01*
X203874417Y-80448650D01*
X203978178Y-80392547D01*
X204101787Y-80476155D01*
X204164886Y-80518987D01*
X204233970Y-80566122D01*
X204298707Y-80610503D01*
X204331134Y-80632852D01*
X204376741Y-80663477D01*
X204415360Y-80687747D01*
X204441952Y-80702587D01*
X204450590Y-80705724D01*
X204463161Y-80697261D01*
X204490984Y-80673636D01*
X204531361Y-80637302D01*
X204581595Y-80590711D01*
X204638988Y-80536317D01*
X204675286Y-80501392D01*
X204738790Y-80438996D01*
X204793673Y-80383188D01*
X204837714Y-80336354D01*
X204868695Y-80300882D01*
X204884398Y-80279161D01*
X204885905Y-80274752D01*
X204878914Y-80257985D01*
X204859594Y-80224082D01*
X204830091Y-80176476D01*
X204792545Y-80118599D01*
X204749100Y-80053884D01*
X204736745Y-80035842D01*
X204691727Y-79970267D01*
X204651340Y-79911228D01*
X204617840Y-79862042D01*
X204593486Y-79826028D01*
X204580536Y-79806502D01*
X204579285Y-79804483D01*
X204581156Y-79788922D01*
X204591087Y-79754709D01*
X204607347Y-79706355D01*
X204628205Y-79648371D01*
X204651927Y-79585270D01*
X204676784Y-79521563D01*
X204701042Y-79461761D01*
X204722971Y-79410376D01*
X204740838Y-79371919D01*
X204752913Y-79350902D01*
X204753771Y-79349894D01*
X204761154Y-79343888D01*
X204773625Y-79337948D01*
X204793920Y-79331460D01*
X204824778Y-79323809D01*
X204868934Y-79314380D01*
X204929126Y-79302559D01*
X205008093Y-79287729D01*
X205108570Y-79269277D01*
X205130325Y-79265310D01*
X205194802Y-79252853D01*
X205251011Y-79240666D01*
X205293987Y-79229926D01*
X205318760Y-79221809D01*
X205322082Y-79219916D01*
X205327556Y-79203138D01*
X205332006Y-79165645D01*
X205335428Y-79111794D01*
X205337819Y-79045944D01*
X205339177Y-78972453D01*
X205339499Y-78895680D01*
X205338781Y-78819983D01*
X205337021Y-78749720D01*
X205334216Y-78689250D01*
X205330362Y-78642930D01*
X205325457Y-78615119D01*
X205322500Y-78609427D01*
X205306037Y-78603686D01*
X205268551Y-78594345D01*
X205213775Y-78582215D01*
X205145445Y-78568107D01*
X205067294Y-78552830D01*
X205024716Y-78544823D01*
X204943929Y-78529721D01*
X204871887Y-78516040D01*
X204812111Y-78504467D01*
X204768121Y-78495687D01*
X204743439Y-78490387D01*
X204739377Y-78489212D01*
X204732511Y-78475965D01*
X204717998Y-78444057D01*
X204697771Y-78398047D01*
X204673766Y-78342492D01*
X204647918Y-78281953D01*
X204622160Y-78220986D01*
X204598427Y-78164151D01*
X204578654Y-78116006D01*
X204564776Y-78081110D01*
X204558726Y-78064021D01*
X204558614Y-78063274D01*
X204565472Y-78049793D01*
X204584698Y-78018770D01*
X204614272Y-77973289D01*
X204652173Y-77916432D01*
X204696380Y-77851283D01*
X204722079Y-77813862D01*
X204768907Y-77745247D01*
X204810499Y-77682952D01*
X204844825Y-77630129D01*
X204869857Y-77589927D01*
X204883565Y-77565500D01*
X204885544Y-77560024D01*
X204877034Y-77547278D01*
X204853507Y-77520063D01*
X204817968Y-77481428D01*
X204773423Y-77434423D01*
X204722877Y-77382095D01*
X204669336Y-77327495D01*
X204615805Y-77273670D01*
X204565289Y-77223670D01*
X204520794Y-77180543D01*
X204485325Y-77147339D01*
X204461887Y-77127106D01*
X204454046Y-77122278D01*
X204441280Y-77129067D01*
X204410744Y-77148142D01*
X204365410Y-77177561D01*
X204308244Y-77215381D01*
X204242216Y-77259661D01*
X204192410Y-77293395D01*
X203940764Y-77464512D01*
X203731001Y-77378041D01*
X203521237Y-77291570D01*
X203464389Y-76990018D01*
X203407540Y-76688466D01*
X202779885Y-76688466D01*
X202723036Y-76990018D01*
X202723036Y-76990018D01*
G37*
X202723036Y-76990018D02*
X202666188Y-77291570D01*
X202246662Y-77464512D01*
X201995016Y-77293395D01*
X201924542Y-77245750D01*
X201860837Y-77203210D01*
X201806874Y-77167715D01*
X201765627Y-77141210D01*
X201740066Y-77125636D01*
X201733105Y-77122278D01*
X201720565Y-77130914D01*
X201693769Y-77154792D01*
X201655720Y-77190859D01*
X201609421Y-77236067D01*
X201557877Y-77287364D01*
X201504091Y-77341701D01*
X201451065Y-77396028D01*
X201401805Y-77447295D01*
X201359313Y-77492451D01*
X201326593Y-77528446D01*
X201306649Y-77552230D01*
X201301881Y-77560190D01*
X201308743Y-77574865D01*
X201327980Y-77607014D01*
X201357570Y-77653492D01*
X201395490Y-77711156D01*
X201439718Y-77776860D01*
X201465346Y-77814336D01*
X201512059Y-77882768D01*
X201553568Y-77944520D01*
X201587860Y-77996519D01*
X201612920Y-78035692D01*
X201626736Y-78058965D01*
X201628812Y-78063855D01*
X201624105Y-78077755D01*
X201611277Y-78110150D01*
X201592262Y-78156485D01*
X201568997Y-78212206D01*
X201543416Y-78272758D01*
X201517455Y-78333586D01*
X201493050Y-78390136D01*
X201472137Y-78437852D01*
X201456651Y-78472181D01*
X201448528Y-78488568D01*
X201448048Y-78489212D01*
X201435293Y-78492341D01*
X201401323Y-78499321D01*
X201349660Y-78509467D01*
X201283824Y-78522092D01*
X201207336Y-78536509D01*
X201162710Y-78544823D01*
X201080979Y-78560384D01*
X201007157Y-78575192D01*
X200944979Y-78588436D01*
X200898178Y-78599305D01*
X200870491Y-78606989D01*
X200864926Y-78609427D01*
X200859474Y-78625930D01*
X200855076Y-78663200D01*
X200851728Y-78716880D01*
X200849426Y-78782612D01*
X200848168Y-78856037D01*
X200847952Y-78932796D01*
X200848773Y-79008532D01*
X200850629Y-79078886D01*
X200853518Y-79139500D01*
X200857435Y-79186016D01*
X200862378Y-79214075D01*
X200865343Y-79219916D01*
X200883066Y-79226917D01*
X200920619Y-79236927D01*
X200973036Y-79248769D01*
X201035348Y-79261267D01*
X201057100Y-79265310D01*
X201161976Y-79284520D01*
X201244820Y-79299991D01*
X201308370Y-79312337D01*
X201355363Y-79322173D01*
X201388537Y-79330114D01*
X201410629Y-79336776D01*
X201424376Y-79342773D01*
X201432516Y-79348719D01*
X201433655Y-79349894D01*
X201445023Y-79368826D01*
X201462365Y-79405669D01*
X201483950Y-79455913D01*
X201508046Y-79515046D01*
X201532921Y-79578556D01*
X201556843Y-79641932D01*
X201578081Y-79700662D01*
X201594903Y-79750235D01*
X201605578Y-79786139D01*
X201608373Y-79803862D01*
X201608140Y-79804483D01*
X201598669Y-79818970D01*
X201577182Y-79850844D01*
X201545937Y-79896789D01*
X201507193Y-79953485D01*
X201463207Y-80017617D01*
X201450681Y-80035842D01*
X201406016Y-80101914D01*
X201366712Y-80162200D01*
X201334912Y-80213235D01*
X201312755Y-80251560D01*
X201302383Y-80273711D01*
X201301881Y-80276432D01*
X201310595Y-80290736D01*
X201334675Y-80319072D01*
X201371024Y-80358396D01*
X201416547Y-80405661D01*
X201468148Y-80457823D01*
X201522733Y-80511835D01*
X201577206Y-80564653D01*
X201628471Y-80613231D01*
X201673433Y-80654523D01*
X201708996Y-80685485D01*
X201732065Y-80703070D01*
X201738446Y-80705941D01*
X201753301Y-80699178D01*
X201783714Y-80680939D01*
X201824732Y-80654297D01*
X201856291Y-80632852D01*
X201913475Y-80593503D01*
X201981194Y-80547171D01*
X202049120Y-80500913D01*
X202085639Y-80476155D01*
X202209248Y-80392547D01*
X202313009Y-80448650D01*
X202360280Y-80473228D01*
X202400477Y-80492331D01*
X202427674Y-80503227D01*
X202434598Y-80504743D01*
X202442923Y-80493549D01*
X202459346Y-80461917D01*
X202482643Y-80412765D01*
X202511586Y-80349010D01*
X202544950Y-80273571D01*
X202581509Y-80189364D01*
X202620036Y-80099308D01*
X202659306Y-80006321D01*
X202698092Y-79913320D01*
X202735170Y-79823223D01*
X202769311Y-79738948D01*
X202799292Y-79663413D01*
X202823884Y-79599534D01*
X202841864Y-79550231D01*
X202852003Y-79518421D01*
X202853634Y-79507496D01*
X202840709Y-79493561D01*
X202812411Y-79470940D01*
X202774654Y-79444333D01*
X202771485Y-79442228D01*
X202673900Y-79364114D01*
X202595214Y-79272982D01*
X202536109Y-79171745D01*
X202497268Y-79063318D01*
X202479372Y-78950614D01*
X202483103Y-78836548D01*
X202509143Y-78724034D01*
X202558175Y-78615985D01*
X202572600Y-78592345D01*
X202647631Y-78496887D01*
X202736270Y-78420232D01*
X202835451Y-78362780D01*
X202942105Y-78324929D01*
X203053164Y-78307078D01*
X203165561Y-78309625D01*
X203276227Y-78332970D01*
X203382094Y-78377510D01*
X203480095Y-78443645D01*
X203510410Y-78470487D01*
X203587562Y-78554512D01*
X203643782Y-78642966D01*
X203682347Y-78742115D01*
X203703826Y-78840303D01*
X203709128Y-78950697D01*
X203691448Y-79061640D01*
X203652581Y-79169381D01*
X203594323Y-79270169D01*
X203518469Y-79360256D01*
X203426817Y-79435892D01*
X203414772Y-79443864D01*
X203376611Y-79469974D01*
X203347601Y-79492595D01*
X203333732Y-79507039D01*
X203333531Y-79507496D01*
X203336508Y-79523121D01*
X203348311Y-79558582D01*
X203367714Y-79610962D01*
X203393488Y-79677345D01*
X203424409Y-79754814D01*
X203459249Y-79840450D01*
X203496783Y-79931337D01*
X203535783Y-80024559D01*
X203575023Y-80117197D01*
X203613276Y-80206335D01*
X203649317Y-80289055D01*
X203681917Y-80362441D01*
X203709852Y-80423575D01*
X203731895Y-80469541D01*
X203746818Y-80497421D01*
X203752828Y-80504743D01*
X203771191Y-80499041D01*
X203805552Y-80483749D01*
X203849984Y-80461599D01*
X203874417Y-80448650D01*
X203978178Y-80392547D01*
X204101787Y-80476155D01*
X204164886Y-80518987D01*
X204233970Y-80566122D01*
X204298707Y-80610503D01*
X204331134Y-80632852D01*
X204376741Y-80663477D01*
X204415360Y-80687747D01*
X204441952Y-80702587D01*
X204450590Y-80705724D01*
X204463161Y-80697261D01*
X204490984Y-80673636D01*
X204531361Y-80637302D01*
X204581595Y-80590711D01*
X204638988Y-80536317D01*
X204675286Y-80501392D01*
X204738790Y-80438996D01*
X204793673Y-80383188D01*
X204837714Y-80336354D01*
X204868695Y-80300882D01*
X204884398Y-80279161D01*
X204885905Y-80274752D01*
X204878914Y-80257985D01*
X204859594Y-80224082D01*
X204830091Y-80176476D01*
X204792545Y-80118599D01*
X204749100Y-80053884D01*
X204736745Y-80035842D01*
X204691727Y-79970267D01*
X204651340Y-79911228D01*
X204617840Y-79862042D01*
X204593486Y-79826028D01*
X204580536Y-79806502D01*
X204579285Y-79804483D01*
X204581156Y-79788922D01*
X204591087Y-79754709D01*
X204607347Y-79706355D01*
X204628205Y-79648371D01*
X204651927Y-79585270D01*
X204676784Y-79521563D01*
X204701042Y-79461761D01*
X204722971Y-79410376D01*
X204740838Y-79371919D01*
X204752913Y-79350902D01*
X204753771Y-79349894D01*
X204761154Y-79343888D01*
X204773625Y-79337948D01*
X204793920Y-79331460D01*
X204824778Y-79323809D01*
X204868934Y-79314380D01*
X204929126Y-79302559D01*
X205008093Y-79287729D01*
X205108570Y-79269277D01*
X205130325Y-79265310D01*
X205194802Y-79252853D01*
X205251011Y-79240666D01*
X205293987Y-79229926D01*
X205318760Y-79221809D01*
X205322082Y-79219916D01*
X205327556Y-79203138D01*
X205332006Y-79165645D01*
X205335428Y-79111794D01*
X205337819Y-79045944D01*
X205339177Y-78972453D01*
X205339499Y-78895680D01*
X205338781Y-78819983D01*
X205337021Y-78749720D01*
X205334216Y-78689250D01*
X205330362Y-78642930D01*
X205325457Y-78615119D01*
X205322500Y-78609427D01*
X205306037Y-78603686D01*
X205268551Y-78594345D01*
X205213775Y-78582215D01*
X205145445Y-78568107D01*
X205067294Y-78552830D01*
X205024716Y-78544823D01*
X204943929Y-78529721D01*
X204871887Y-78516040D01*
X204812111Y-78504467D01*
X204768121Y-78495687D01*
X204743439Y-78490387D01*
X204739377Y-78489212D01*
X204732511Y-78475965D01*
X204717998Y-78444057D01*
X204697771Y-78398047D01*
X204673766Y-78342492D01*
X204647918Y-78281953D01*
X204622160Y-78220986D01*
X204598427Y-78164151D01*
X204578654Y-78116006D01*
X204564776Y-78081110D01*
X204558726Y-78064021D01*
X204558614Y-78063274D01*
X204565472Y-78049793D01*
X204584698Y-78018770D01*
X204614272Y-77973289D01*
X204652173Y-77916432D01*
X204696380Y-77851283D01*
X204722079Y-77813862D01*
X204768907Y-77745247D01*
X204810499Y-77682952D01*
X204844825Y-77630129D01*
X204869857Y-77589927D01*
X204883565Y-77565500D01*
X204885544Y-77560024D01*
X204877034Y-77547278D01*
X204853507Y-77520063D01*
X204817968Y-77481428D01*
X204773423Y-77434423D01*
X204722877Y-77382095D01*
X204669336Y-77327495D01*
X204615805Y-77273670D01*
X204565289Y-77223670D01*
X204520794Y-77180543D01*
X204485325Y-77147339D01*
X204461887Y-77127106D01*
X204454046Y-77122278D01*
X204441280Y-77129067D01*
X204410744Y-77148142D01*
X204365410Y-77177561D01*
X204308244Y-77215381D01*
X204242216Y-77259661D01*
X204192410Y-77293395D01*
X203940764Y-77464512D01*
X203731001Y-77378041D01*
X203521237Y-77291570D01*
X203464389Y-76990018D01*
X203407540Y-76688466D01*
X202779885Y-76688466D01*
X202723036Y-76990018D01*
G36*
X201300540Y-81158030D02*
G01*
X201257289Y-81171245D01*
X201229442Y-81187941D01*
X201220371Y-81201145D01*
X201222868Y-81216797D01*
X201239069Y-81241385D01*
X201252768Y-81258800D01*
X201281008Y-81290283D01*
X201302225Y-81303529D01*
X201320312Y-81302664D01*
X201373965Y-81289010D01*
X201413370Y-81289630D01*
X201445368Y-81305104D01*
X201456110Y-81314161D01*
X201490495Y-81346027D01*
X201490495Y-81762179D01*
X201628812Y-81762179D01*
X201628812Y-81158614D01*
X201559653Y-81158614D01*
X201518131Y-81160256D01*
X201496709Y-81166087D01*
X201490498Y-81177461D01*
X201490495Y-81177798D01*
X201487561Y-81189713D01*
X201474296Y-81188159D01*
X201455916Y-81179563D01*
X201417954Y-81163568D01*
X201387128Y-81153945D01*
X201347464Y-81151478D01*
X201300540Y-81158030D01*
X201300540Y-81158030D01*
G37*
X201300540Y-81158030D02*
X201257289Y-81171245D01*
X201229442Y-81187941D01*
X201220371Y-81201145D01*
X201222868Y-81216797D01*
X201239069Y-81241385D01*
X201252768Y-81258800D01*
X201281008Y-81290283D01*
X201302225Y-81303529D01*
X201320312Y-81302664D01*
X201373965Y-81289010D01*
X201413370Y-81289630D01*
X201445368Y-81305104D01*
X201456110Y-81314161D01*
X201490495Y-81346027D01*
X201490495Y-81762179D01*
X201628812Y-81762179D01*
X201628812Y-81158614D01*
X201559653Y-81158614D01*
X201518131Y-81160256D01*
X201496709Y-81166087D01*
X201490498Y-81177461D01*
X201490495Y-81177798D01*
X201487561Y-81189713D01*
X201474296Y-81188159D01*
X201455916Y-81179563D01*
X201417954Y-81163568D01*
X201387128Y-81153945D01*
X201347464Y-81151478D01*
X201300540Y-81158030D01*
G36*
X203854012Y-81169002D02*
G01*
X203822717Y-81183950D01*
X203792409Y-81205541D01*
X203769318Y-81230391D01*
X203752500Y-81262087D01*
X203741006Y-81304214D01*
X203733891Y-81360358D01*
X203730207Y-81434106D01*
X203729008Y-81529044D01*
X203728989Y-81538985D01*
X203728713Y-81762179D01*
X203867030Y-81762179D01*
X203867030Y-81556418D01*
X203867128Y-81480189D01*
X203867809Y-81424939D01*
X203869651Y-81386501D01*
X203873233Y-81360706D01*
X203879132Y-81343384D01*
X203887927Y-81330368D01*
X203900180Y-81317507D01*
X203943047Y-81289873D01*
X203989843Y-81284745D01*
X204034424Y-81302217D01*
X204049928Y-81315221D01*
X204061310Y-81327447D01*
X204069481Y-81340540D01*
X204074974Y-81358615D01*
X204078320Y-81385787D01*
X204080051Y-81426170D01*
X204080697Y-81483879D01*
X204080792Y-81554132D01*
X204080792Y-81762179D01*
X204219109Y-81762179D01*
X204219109Y-81158614D01*
X204149950Y-81158614D01*
X204108428Y-81160256D01*
X204087006Y-81166087D01*
X204080795Y-81177461D01*
X204080792Y-81177798D01*
X204077910Y-81188938D01*
X204065199Y-81187674D01*
X204039926Y-81175434D01*
X203982605Y-81157424D01*
X203917037Y-81155421D01*
X203854012Y-81169002D01*
X203854012Y-81169002D01*
G37*
X203854012Y-81169002D02*
X203822717Y-81183950D01*
X203792409Y-81205541D01*
X203769318Y-81230391D01*
X203752500Y-81262087D01*
X203741006Y-81304214D01*
X203733891Y-81360358D01*
X203730207Y-81434106D01*
X203729008Y-81529044D01*
X203728989Y-81538985D01*
X203728713Y-81762179D01*
X203867030Y-81762179D01*
X203867030Y-81556418D01*
X203867128Y-81480189D01*
X203867809Y-81424939D01*
X203869651Y-81386501D01*
X203873233Y-81360706D01*
X203879132Y-81343384D01*
X203887927Y-81330368D01*
X203900180Y-81317507D01*
X203943047Y-81289873D01*
X203989843Y-81284745D01*
X204034424Y-81302217D01*
X204049928Y-81315221D01*
X204061310Y-81327447D01*
X204069481Y-81340540D01*
X204074974Y-81358615D01*
X204078320Y-81385787D01*
X204080051Y-81426170D01*
X204080697Y-81483879D01*
X204080792Y-81554132D01*
X204080792Y-81762179D01*
X204219109Y-81762179D01*
X204219109Y-81158614D01*
X204149950Y-81158614D01*
X204108428Y-81160256D01*
X204087006Y-81166087D01*
X204080795Y-81177461D01*
X204080792Y-81177798D01*
X204077910Y-81188938D01*
X204065199Y-81187674D01*
X204039926Y-81175434D01*
X203982605Y-81157424D01*
X203917037Y-81155421D01*
X203854012Y-81169002D01*
G36*
X200422102Y-81156457D02*
G01*
X200389904Y-81164279D01*
X200328175Y-81192921D01*
X200275390Y-81236667D01*
X200238859Y-81289117D01*
X200233840Y-81300893D01*
X200226955Y-81331740D01*
X200222136Y-81377371D01*
X200220495Y-81423492D01*
X200220495Y-81510693D01*
X200402822Y-81510693D01*
X200478021Y-81510978D01*
X200530997Y-81512704D01*
X200564675Y-81517181D01*
X200581980Y-81525720D01*
X200585837Y-81539630D01*
X200579171Y-81560222D01*
X200567230Y-81584315D01*
X200533920Y-81624525D01*
X200487632Y-81644558D01*
X200431056Y-81643905D01*
X200366969Y-81622101D01*
X200311583Y-81595193D01*
X200265625Y-81631532D01*
X200219667Y-81667872D01*
X200262904Y-81707819D01*
X200320626Y-81745563D01*
X200391614Y-81768320D01*
X200467971Y-81774688D01*
X200541801Y-81763268D01*
X200553713Y-81759393D01*
X200618601Y-81725506D01*
X200666870Y-81674986D01*
X200699535Y-81606325D01*
X200717615Y-81518014D01*
X200717825Y-81516121D01*
X200719444Y-81419878D01*
X200712900Y-81385542D01*
X200585148Y-81385542D01*
X200573416Y-81390822D01*
X200541562Y-81394867D01*
X200494603Y-81397176D01*
X200464846Y-81397525D01*
X200409352Y-81397306D01*
X200374654Y-81395916D01*
X200356399Y-81392251D01*
X200350234Y-81385210D01*
X200351805Y-81373690D01*
X200353122Y-81369233D01*
X200375618Y-81327355D01*
X200410997Y-81293604D01*
X200442220Y-81278773D01*
X200483699Y-81279668D01*
X200525731Y-81298164D01*
X200560988Y-81328786D01*
X200582146Y-81366062D01*
X200585148Y-81385542D01*
X200712900Y-81385542D01*
X200703310Y-81335229D01*
X200671302Y-81264191D01*
X200625299Y-81208779D01*
X200567179Y-81171009D01*
X200498820Y-81152896D01*
X200422102Y-81156457D01*
X200422102Y-81156457D01*
G37*
X200422102Y-81156457D02*
X200389904Y-81164279D01*
X200328175Y-81192921D01*
X200275390Y-81236667D01*
X200238859Y-81289117D01*
X200233840Y-81300893D01*
X200226955Y-81331740D01*
X200222136Y-81377371D01*
X200220495Y-81423492D01*
X200220495Y-81510693D01*
X200402822Y-81510693D01*
X200478021Y-81510978D01*
X200530997Y-81512704D01*
X200564675Y-81517181D01*
X200581980Y-81525720D01*
X200585837Y-81539630D01*
X200579171Y-81560222D01*
X200567230Y-81584315D01*
X200533920Y-81624525D01*
X200487632Y-81644558D01*
X200431056Y-81643905D01*
X200366969Y-81622101D01*
X200311583Y-81595193D01*
X200265625Y-81631532D01*
X200219667Y-81667872D01*
X200262904Y-81707819D01*
X200320626Y-81745563D01*
X200391614Y-81768320D01*
X200467971Y-81774688D01*
X200541801Y-81763268D01*
X200553713Y-81759393D01*
X200618601Y-81725506D01*
X200666870Y-81674986D01*
X200699535Y-81606325D01*
X200717615Y-81518014D01*
X200717825Y-81516121D01*
X200719444Y-81419878D01*
X200712900Y-81385542D01*
X200585148Y-81385542D01*
X200573416Y-81390822D01*
X200541562Y-81394867D01*
X200494603Y-81397176D01*
X200464846Y-81397525D01*
X200409352Y-81397306D01*
X200374654Y-81395916D01*
X200356399Y-81392251D01*
X200350234Y-81385210D01*
X200351805Y-81373690D01*
X200353122Y-81369233D01*
X200375618Y-81327355D01*
X200410997Y-81293604D01*
X200442220Y-81278773D01*
X200483699Y-81279668D01*
X200525731Y-81298164D01*
X200560988Y-81328786D01*
X200582146Y-81366062D01*
X200585148Y-81385542D01*
X200712900Y-81385542D01*
X200703310Y-81335229D01*
X200671302Y-81264191D01*
X200625299Y-81208779D01*
X200567179Y-81171009D01*
X200498820Y-81152896D01*
X200422102Y-81156457D01*
G36*
X200882774Y-81163880D02*
G01*
X200809920Y-81194830D01*
X200786973Y-81209895D01*
X200757646Y-81233048D01*
X200739236Y-81251253D01*
X200736039Y-81257183D01*
X200745065Y-81270340D01*
X200768163Y-81292667D01*
X200786656Y-81308250D01*
X200837272Y-81348926D01*
X200877240Y-81315295D01*
X200908126Y-81293584D01*
X200938241Y-81286090D01*
X200972708Y-81287920D01*
X201027439Y-81301528D01*
X201065114Y-81329772D01*
X201088009Y-81375433D01*
X201098403Y-81441289D01*
X201098405Y-81441331D01*
X201097506Y-81514939D01*
X201083537Y-81568946D01*
X201055672Y-81605716D01*
X201036675Y-81618168D01*
X200986224Y-81633673D01*
X200932337Y-81633683D01*
X200885454Y-81618638D01*
X200874356Y-81611287D01*
X200846524Y-81592511D01*
X200824764Y-81589434D01*
X200801296Y-81603409D01*
X200775351Y-81628510D01*
X200734284Y-81670880D01*
X200779879Y-81708464D01*
X200850326Y-81750882D01*
X200929767Y-81771785D01*
X201012785Y-81770272D01*
X201067306Y-81756411D01*
X201131030Y-81722135D01*
X201181995Y-81668212D01*
X201205149Y-81630149D01*
X201223901Y-81575536D01*
X201233285Y-81506369D01*
X201233357Y-81431407D01*
X201224176Y-81359409D01*
X201205801Y-81299137D01*
X201202907Y-81292958D01*
X201160048Y-81232351D01*
X201102021Y-81188224D01*
X201033409Y-81161493D01*
X200958799Y-81153073D01*
X200882774Y-81163880D01*
X200882774Y-81163880D01*
G37*
X200882774Y-81163880D02*
X200809920Y-81194830D01*
X200786973Y-81209895D01*
X200757646Y-81233048D01*
X200739236Y-81251253D01*
X200736039Y-81257183D01*
X200745065Y-81270340D01*
X200768163Y-81292667D01*
X200786656Y-81308250D01*
X200837272Y-81348926D01*
X200877240Y-81315295D01*
X200908126Y-81293584D01*
X200938241Y-81286090D01*
X200972708Y-81287920D01*
X201027439Y-81301528D01*
X201065114Y-81329772D01*
X201088009Y-81375433D01*
X201098403Y-81441289D01*
X201098405Y-81441331D01*
X201097506Y-81514939D01*
X201083537Y-81568946D01*
X201055672Y-81605716D01*
X201036675Y-81618168D01*
X200986224Y-81633673D01*
X200932337Y-81633683D01*
X200885454Y-81618638D01*
X200874356Y-81611287D01*
X200846524Y-81592511D01*
X200824764Y-81589434D01*
X200801296Y-81603409D01*
X200775351Y-81628510D01*
X200734284Y-81670880D01*
X200779879Y-81708464D01*
X200850326Y-81750882D01*
X200929767Y-81771785D01*
X201012785Y-81770272D01*
X201067306Y-81756411D01*
X201131030Y-81722135D01*
X201181995Y-81668212D01*
X201205149Y-81630149D01*
X201223901Y-81575536D01*
X201233285Y-81506369D01*
X201233357Y-81431407D01*
X201224176Y-81359409D01*
X201205801Y-81299137D01*
X201202907Y-81292958D01*
X201160048Y-81232351D01*
X201102021Y-81188224D01*
X201033409Y-81161493D01*
X200958799Y-81153073D01*
X200882774Y-81163880D01*
G36*
X202106633Y-81354342D02*
G01*
X202105445Y-81446563D01*
X202101103Y-81516610D01*
X202092442Y-81567381D01*
X202078296Y-81601772D01*
X202057500Y-81622679D01*
X202028890Y-81633000D01*
X201993465Y-81635636D01*
X201956364Y-81632682D01*
X201928182Y-81621889D01*
X201907757Y-81600360D01*
X201893921Y-81565199D01*
X201885509Y-81513510D01*
X201881357Y-81442394D01*
X201880297Y-81354342D01*
X201880297Y-81158614D01*
X201741980Y-81158614D01*
X201741980Y-81762179D01*
X201811138Y-81762179D01*
X201852830Y-81760489D01*
X201874299Y-81754556D01*
X201880297Y-81743293D01*
X201883909Y-81733261D01*
X201898286Y-81735383D01*
X201927264Y-81749580D01*
X201993681Y-81771480D01*
X202064125Y-81769928D01*
X202131623Y-81746147D01*
X202163767Y-81727362D01*
X202188285Y-81707022D01*
X202206196Y-81681573D01*
X202218521Y-81647458D01*
X202226277Y-81601121D01*
X202230484Y-81539007D01*
X202232160Y-81457561D01*
X202232376Y-81394578D01*
X202232376Y-81158614D01*
X202106633Y-81158614D01*
X202106633Y-81354342D01*
X202106633Y-81354342D01*
G37*
X202106633Y-81354342D02*
X202105445Y-81446563D01*
X202101103Y-81516610D01*
X202092442Y-81567381D01*
X202078296Y-81601772D01*
X202057500Y-81622679D01*
X202028890Y-81633000D01*
X201993465Y-81635636D01*
X201956364Y-81632682D01*
X201928182Y-81621889D01*
X201907757Y-81600360D01*
X201893921Y-81565199D01*
X201885509Y-81513510D01*
X201881357Y-81442394D01*
X201880297Y-81354342D01*
X201880297Y-81158614D01*
X201741980Y-81158614D01*
X201741980Y-81762179D01*
X201811138Y-81762179D01*
X201852830Y-81760489D01*
X201874299Y-81754556D01*
X201880297Y-81743293D01*
X201883909Y-81733261D01*
X201898286Y-81735383D01*
X201927264Y-81749580D01*
X201993681Y-81771480D01*
X202064125Y-81769928D01*
X202131623Y-81746147D01*
X202163767Y-81727362D01*
X202188285Y-81707022D01*
X202206196Y-81681573D01*
X202218521Y-81647458D01*
X202226277Y-81601121D01*
X202230484Y-81539007D01*
X202232160Y-81457561D01*
X202232376Y-81394578D01*
X202232376Y-81158614D01*
X202106633Y-81158614D01*
X202106633Y-81354342D01*
G36*
X202489238Y-81166055D02*
G01*
X202425637Y-81200692D01*
X202375877Y-81255372D01*
X202352432Y-81299842D01*
X202342366Y-81339121D01*
X202335844Y-81395116D01*
X202333049Y-81459621D01*
X202334164Y-81524429D01*
X202339374Y-81581334D01*
X202345459Y-81611727D01*
X202365986Y-81653306D01*
X202401537Y-81697468D01*
X202444381Y-81736087D01*
X202486789Y-81761034D01*
X202487823Y-81761430D01*
X202540447Y-81772331D01*
X202602812Y-81772601D01*
X202662076Y-81762676D01*
X202684960Y-81754722D01*
X202743898Y-81721300D01*
X202786110Y-81677511D01*
X202813844Y-81619538D01*
X202829349Y-81543565D01*
X202832857Y-81503771D01*
X202832410Y-81453766D01*
X202697624Y-81453766D01*
X202693083Y-81526732D01*
X202680014Y-81582334D01*
X202659244Y-81617861D01*
X202644448Y-81628020D01*
X202606536Y-81635104D01*
X202561473Y-81633007D01*
X202522513Y-81622812D01*
X202512296Y-81617204D01*
X202485341Y-81584538D01*
X202467549Y-81534545D01*
X202459976Y-81473705D01*
X202463675Y-81408497D01*
X202471943Y-81369253D01*
X202495680Y-81323805D01*
X202533151Y-81295396D01*
X202578280Y-81285573D01*
X202624989Y-81295887D01*
X202660868Y-81321112D01*
X202679723Y-81341925D01*
X202690728Y-81362439D01*
X202695974Y-81390203D01*
X202697551Y-81432762D01*
X202697624Y-81453766D01*
X202832410Y-81453766D01*
X202831906Y-81397580D01*
X202814612Y-81310501D01*
X202780971Y-81242530D01*
X202730982Y-81193664D01*
X202664644Y-81163899D01*
X202650399Y-81160448D01*
X202564790Y-81152345D01*
X202489238Y-81166055D01*
X202489238Y-81166055D01*
G37*
X202489238Y-81166055D02*
X202425637Y-81200692D01*
X202375877Y-81255372D01*
X202352432Y-81299842D01*
X202342366Y-81339121D01*
X202335844Y-81395116D01*
X202333049Y-81459621D01*
X202334164Y-81524429D01*
X202339374Y-81581334D01*
X202345459Y-81611727D01*
X202365986Y-81653306D01*
X202401537Y-81697468D01*
X202444381Y-81736087D01*
X202486789Y-81761034D01*
X202487823Y-81761430D01*
X202540447Y-81772331D01*
X202602812Y-81772601D01*
X202662076Y-81762676D01*
X202684960Y-81754722D01*
X202743898Y-81721300D01*
X202786110Y-81677511D01*
X202813844Y-81619538D01*
X202829349Y-81543565D01*
X202832857Y-81503771D01*
X202832410Y-81453766D01*
X202697624Y-81453766D01*
X202693083Y-81526732D01*
X202680014Y-81582334D01*
X202659244Y-81617861D01*
X202644448Y-81628020D01*
X202606536Y-81635104D01*
X202561473Y-81633007D01*
X202522513Y-81622812D01*
X202512296Y-81617204D01*
X202485341Y-81584538D01*
X202467549Y-81534545D01*
X202459976Y-81473705D01*
X202463675Y-81408497D01*
X202471943Y-81369253D01*
X202495680Y-81323805D01*
X202533151Y-81295396D01*
X202578280Y-81285573D01*
X202624989Y-81295887D01*
X202660868Y-81321112D01*
X202679723Y-81341925D01*
X202690728Y-81362439D01*
X202695974Y-81390203D01*
X202697551Y-81432762D01*
X202697624Y-81453766D01*
X202832410Y-81453766D01*
X202831906Y-81397580D01*
X202814612Y-81310501D01*
X202780971Y-81242530D01*
X202730982Y-81193664D01*
X202664644Y-81163899D01*
X202650399Y-81160448D01*
X202564790Y-81152345D01*
X202489238Y-81166055D01*
G36*
X203085983Y-81156452D02*
G01*
X203038366Y-81165482D01*
X202988966Y-81184370D01*
X202983688Y-81186777D01*
X202946226Y-81206476D01*
X202920283Y-81224781D01*
X202911897Y-81236508D01*
X202919883Y-81255632D01*
X202939280Y-81283850D01*
X202947890Y-81294384D01*
X202983372Y-81335847D01*
X203029115Y-81308858D01*
X203072650Y-81290878D01*
X203122950Y-81281267D01*
X203171188Y-81280660D01*
X203208533Y-81289691D01*
X203217495Y-81295327D01*
X203234563Y-81321171D01*
X203236637Y-81350941D01*
X203223866Y-81374197D01*
X203216312Y-81378708D01*
X203193675Y-81384309D01*
X203153885Y-81390892D01*
X203104834Y-81397183D01*
X203095785Y-81398170D01*
X203017004Y-81411798D01*
X202959864Y-81434946D01*
X202921970Y-81469752D01*
X202900921Y-81518354D01*
X202894365Y-81577718D01*
X202903423Y-81645198D01*
X202932836Y-81698188D01*
X202982722Y-81736783D01*
X203053200Y-81761081D01*
X203131435Y-81770667D01*
X203195234Y-81770552D01*
X203246984Y-81761845D01*
X203282327Y-81749825D01*
X203326983Y-81728880D01*
X203368253Y-81704574D01*
X203382921Y-81693876D01*
X203420643Y-81663084D01*
X203375148Y-81617049D01*
X203329653Y-81571013D01*
X203277928Y-81605243D01*
X203226048Y-81630952D01*
X203170649Y-81644399D01*
X203117395Y-81645818D01*
X203071951Y-81635443D01*
X203039984Y-81613507D01*
X203029662Y-81594998D01*
X203031211Y-81565314D01*
X203056860Y-81542615D01*
X203106540Y-81526940D01*
X203160969Y-81519695D01*
X203244736Y-81505873D01*
X203306967Y-81479796D01*
X203348493Y-81440699D01*
X203370147Y-81387820D01*
X203373147Y-81325126D01*
X203358329Y-81259642D01*
X203324546Y-81210144D01*
X203271495Y-81176408D01*
X203198874Y-81158207D01*
X203145072Y-81154639D01*
X203085983Y-81156452D01*
X203085983Y-81156452D01*
G37*
X203085983Y-81156452D02*
X203038366Y-81165482D01*
X202988966Y-81184370D01*
X202983688Y-81186777D01*
X202946226Y-81206476D01*
X202920283Y-81224781D01*
X202911897Y-81236508D01*
X202919883Y-81255632D01*
X202939280Y-81283850D01*
X202947890Y-81294384D01*
X202983372Y-81335847D01*
X203029115Y-81308858D01*
X203072650Y-81290878D01*
X203122950Y-81281267D01*
X203171188Y-81280660D01*
X203208533Y-81289691D01*
X203217495Y-81295327D01*
X203234563Y-81321171D01*
X203236637Y-81350941D01*
X203223866Y-81374197D01*
X203216312Y-81378708D01*
X203193675Y-81384309D01*
X203153885Y-81390892D01*
X203104834Y-81397183D01*
X203095785Y-81398170D01*
X203017004Y-81411798D01*
X202959864Y-81434946D01*
X202921970Y-81469752D01*
X202900921Y-81518354D01*
X202894365Y-81577718D01*
X202903423Y-81645198D01*
X202932836Y-81698188D01*
X202982722Y-81736783D01*
X203053200Y-81761081D01*
X203131435Y-81770667D01*
X203195234Y-81770552D01*
X203246984Y-81761845D01*
X203282327Y-81749825D01*
X203326983Y-81728880D01*
X203368253Y-81704574D01*
X203382921Y-81693876D01*
X203420643Y-81663084D01*
X203375148Y-81617049D01*
X203329653Y-81571013D01*
X203277928Y-81605243D01*
X203226048Y-81630952D01*
X203170649Y-81644399D01*
X203117395Y-81645818D01*
X203071951Y-81635443D01*
X203039984Y-81613507D01*
X203029662Y-81594998D01*
X203031211Y-81565314D01*
X203056860Y-81542615D01*
X203106540Y-81526940D01*
X203160969Y-81519695D01*
X203244736Y-81505873D01*
X203306967Y-81479796D01*
X203348493Y-81440699D01*
X203370147Y-81387820D01*
X203373147Y-81325126D01*
X203358329Y-81259642D01*
X203324546Y-81210144D01*
X203271495Y-81176408D01*
X203198874Y-81158207D01*
X203145072Y-81154639D01*
X203085983Y-81156452D01*
G36*
X204456699Y-81172614D02*
G01*
X204444168Y-81178514D01*
X204400799Y-81210283D01*
X204359790Y-81256646D01*
X204329168Y-81307696D01*
X204320459Y-81331166D01*
X204312512Y-81373091D01*
X204307774Y-81423757D01*
X204307199Y-81444679D01*
X204307129Y-81510693D01*
X204687083Y-81510693D01*
X204678983Y-81545273D01*
X204659104Y-81586170D01*
X204624347Y-81621514D01*
X204582998Y-81644282D01*
X204556649Y-81649010D01*
X204520916Y-81643273D01*
X204478282Y-81628882D01*
X204463799Y-81622262D01*
X204410240Y-81595513D01*
X204364533Y-81630376D01*
X204338158Y-81653955D01*
X204324124Y-81673417D01*
X204323414Y-81679129D01*
X204335951Y-81692973D01*
X204363428Y-81714012D01*
X204388366Y-81730425D01*
X204455664Y-81759930D01*
X204531110Y-81773284D01*
X204605888Y-81769812D01*
X204665495Y-81751663D01*
X204726941Y-81712784D01*
X204770608Y-81661595D01*
X204797926Y-81595367D01*
X204810322Y-81511371D01*
X204811421Y-81472936D01*
X204807022Y-81384861D01*
X204806482Y-81382299D01*
X204680582Y-81382299D01*
X204677115Y-81390558D01*
X204662863Y-81395113D01*
X204633470Y-81397065D01*
X204584575Y-81397517D01*
X204565748Y-81397525D01*
X204508467Y-81396843D01*
X204472141Y-81394364D01*
X204452604Y-81389443D01*
X204445690Y-81381434D01*
X204445445Y-81378862D01*
X204453336Y-81358423D01*
X204473085Y-81329789D01*
X204481575Y-81319763D01*
X204513094Y-81291408D01*
X204545949Y-81280259D01*
X204563651Y-81279327D01*
X204611539Y-81290981D01*
X204651699Y-81322285D01*
X204677173Y-81367752D01*
X204677625Y-81369233D01*
X204680582Y-81382299D01*
X204806482Y-81382299D01*
X204792392Y-81315510D01*
X204766038Y-81260025D01*
X204733807Y-81220639D01*
X204674217Y-81177931D01*
X204604168Y-81155109D01*
X204529661Y-81153046D01*
X204456699Y-81172614D01*
X204456699Y-81172614D01*
G37*
X204456699Y-81172614D02*
X204444168Y-81178514D01*
X204400799Y-81210283D01*
X204359790Y-81256646D01*
X204329168Y-81307696D01*
X204320459Y-81331166D01*
X204312512Y-81373091D01*
X204307774Y-81423757D01*
X204307199Y-81444679D01*
X204307129Y-81510693D01*
X204687083Y-81510693D01*
X204678983Y-81545273D01*
X204659104Y-81586170D01*
X204624347Y-81621514D01*
X204582998Y-81644282D01*
X204556649Y-81649010D01*
X204520916Y-81643273D01*
X204478282Y-81628882D01*
X204463799Y-81622262D01*
X204410240Y-81595513D01*
X204364533Y-81630376D01*
X204338158Y-81653955D01*
X204324124Y-81673417D01*
X204323414Y-81679129D01*
X204335951Y-81692973D01*
X204363428Y-81714012D01*
X204388366Y-81730425D01*
X204455664Y-81759930D01*
X204531110Y-81773284D01*
X204605888Y-81769812D01*
X204665495Y-81751663D01*
X204726941Y-81712784D01*
X204770608Y-81661595D01*
X204797926Y-81595367D01*
X204810322Y-81511371D01*
X204811421Y-81472936D01*
X204807022Y-81384861D01*
X204806482Y-81382299D01*
X204680582Y-81382299D01*
X204677115Y-81390558D01*
X204662863Y-81395113D01*
X204633470Y-81397065D01*
X204584575Y-81397517D01*
X204565748Y-81397525D01*
X204508467Y-81396843D01*
X204472141Y-81394364D01*
X204452604Y-81389443D01*
X204445690Y-81381434D01*
X204445445Y-81378862D01*
X204453336Y-81358423D01*
X204473085Y-81329789D01*
X204481575Y-81319763D01*
X204513094Y-81291408D01*
X204545949Y-81280259D01*
X204563651Y-81279327D01*
X204611539Y-81290981D01*
X204651699Y-81322285D01*
X204677173Y-81367752D01*
X204677625Y-81369233D01*
X204680582Y-81382299D01*
X204806482Y-81382299D01*
X204792392Y-81315510D01*
X204766038Y-81260025D01*
X204733807Y-81220639D01*
X204674217Y-81177931D01*
X204604168Y-81155109D01*
X204529661Y-81153046D01*
X204456699Y-81172614D01*
G36*
X205638261Y-81165148D02*
G01*
X205572479Y-81194231D01*
X205522540Y-81242793D01*
X205488374Y-81310908D01*
X205469907Y-81398651D01*
X205468583Y-81412351D01*
X205467546Y-81508939D01*
X205480993Y-81593602D01*
X205508108Y-81662221D01*
X205522627Y-81684294D01*
X205573201Y-81731011D01*
X205637609Y-81761268D01*
X205709666Y-81773824D01*
X205783185Y-81767439D01*
X205839072Y-81747772D01*
X205887132Y-81714629D01*
X205926412Y-81671175D01*
X205927092Y-81670158D01*
X205943044Y-81643338D01*
X205953410Y-81616368D01*
X205959688Y-81582332D01*
X205963373Y-81534310D01*
X205964997Y-81494931D01*
X205965672Y-81459219D01*
X205839955Y-81459219D01*
X205838726Y-81494770D01*
X205834266Y-81542094D01*
X205826397Y-81572465D01*
X205812207Y-81594072D01*
X205798917Y-81606694D01*
X205751802Y-81633122D01*
X205702505Y-81636653D01*
X205656593Y-81617639D01*
X205633638Y-81596331D01*
X205617096Y-81574859D01*
X205607421Y-81554313D01*
X205603174Y-81527574D01*
X205602920Y-81487523D01*
X205604228Y-81450638D01*
X205607043Y-81397947D01*
X205611505Y-81363772D01*
X205619548Y-81341480D01*
X205633103Y-81324442D01*
X205643845Y-81314703D01*
X205688777Y-81289123D01*
X205737249Y-81287847D01*
X205777894Y-81302999D01*
X205812567Y-81334642D01*
X205833224Y-81386620D01*
X205839955Y-81459219D01*
X205965672Y-81459219D01*
X205966479Y-81416621D01*
X205963948Y-81358056D01*
X205956362Y-81314007D01*
X205942681Y-81279248D01*
X205921865Y-81248551D01*
X205914147Y-81239436D01*
X205865889Y-81194021D01*
X205814128Y-81167493D01*
X205750828Y-81156379D01*
X205719961Y-81155471D01*
X205638261Y-81165148D01*
X205638261Y-81165148D01*
G37*
X205638261Y-81165148D02*
X205572479Y-81194231D01*
X205522540Y-81242793D01*
X205488374Y-81310908D01*
X205469907Y-81398651D01*
X205468583Y-81412351D01*
X205467546Y-81508939D01*
X205480993Y-81593602D01*
X205508108Y-81662221D01*
X205522627Y-81684294D01*
X205573201Y-81731011D01*
X205637609Y-81761268D01*
X205709666Y-81773824D01*
X205783185Y-81767439D01*
X205839072Y-81747772D01*
X205887132Y-81714629D01*
X205926412Y-81671175D01*
X205927092Y-81670158D01*
X205943044Y-81643338D01*
X205953410Y-81616368D01*
X205959688Y-81582332D01*
X205963373Y-81534310D01*
X205964997Y-81494931D01*
X205965672Y-81459219D01*
X205839955Y-81459219D01*
X205838726Y-81494770D01*
X205834266Y-81542094D01*
X205826397Y-81572465D01*
X205812207Y-81594072D01*
X205798917Y-81606694D01*
X205751802Y-81633122D01*
X205702505Y-81636653D01*
X205656593Y-81617639D01*
X205633638Y-81596331D01*
X205617096Y-81574859D01*
X205607421Y-81554313D01*
X205603174Y-81527574D01*
X205602920Y-81487523D01*
X205604228Y-81450638D01*
X205607043Y-81397947D01*
X205611505Y-81363772D01*
X205619548Y-81341480D01*
X205633103Y-81324442D01*
X205643845Y-81314703D01*
X205688777Y-81289123D01*
X205737249Y-81287847D01*
X205777894Y-81302999D01*
X205812567Y-81334642D01*
X205833224Y-81386620D01*
X205839955Y-81459219D01*
X205965672Y-81459219D01*
X205966479Y-81416621D01*
X205963948Y-81358056D01*
X205956362Y-81314007D01*
X205942681Y-81279248D01*
X205921865Y-81248551D01*
X205914147Y-81239436D01*
X205865889Y-81194021D01*
X205814128Y-81167493D01*
X205750828Y-81156379D01*
X205719961Y-81155471D01*
X205638261Y-81165148D01*
G36*
X201067419Y-82104970D02*
G01*
X201007315Y-82120597D01*
X200956979Y-82152848D01*
X200932607Y-82176940D01*
X200892655Y-82233895D01*
X200869758Y-82299965D01*
X200861892Y-82381182D01*
X200861852Y-82387748D01*
X200861782Y-82453763D01*
X201241736Y-82453763D01*
X201233637Y-82488342D01*
X201219013Y-82519659D01*
X201193419Y-82552291D01*
X201188065Y-82557500D01*
X201142057Y-82585694D01*
X201089590Y-82590475D01*
X201029197Y-82571926D01*
X201018960Y-82566931D01*
X200987561Y-82551745D01*
X200966530Y-82543094D01*
X200962861Y-82542293D01*
X200950052Y-82550063D01*
X200925622Y-82569072D01*
X200913221Y-82579460D01*
X200887524Y-82603321D01*
X200879085Y-82619077D01*
X200884942Y-82633571D01*
X200888072Y-82637534D01*
X200909275Y-82654879D01*
X200944262Y-82675959D01*
X200968663Y-82688265D01*
X201037928Y-82709946D01*
X201114612Y-82716971D01*
X201187235Y-82708647D01*
X201207574Y-82702686D01*
X201270524Y-82668952D01*
X201317185Y-82617045D01*
X201347827Y-82546459D01*
X201362718Y-82456692D01*
X201364353Y-82409753D01*
X201359579Y-82341413D01*
X201239010Y-82341413D01*
X201227348Y-82346465D01*
X201196002Y-82350429D01*
X201150429Y-82352768D01*
X201119554Y-82353169D01*
X201064019Y-82352783D01*
X201028967Y-82350975D01*
X201009738Y-82346773D01*
X201001670Y-82339203D01*
X201000099Y-82328218D01*
X201010879Y-82294381D01*
X201038020Y-82260940D01*
X201073723Y-82235272D01*
X201109440Y-82224772D01*
X201157952Y-82234086D01*
X201199947Y-82261013D01*
X201229064Y-82299827D01*
X201239010Y-82341413D01*
X201359579Y-82341413D01*
X201357401Y-82310236D01*
X201335945Y-82230949D01*
X201299530Y-82171263D01*
X201247703Y-82130549D01*
X201180010Y-82108179D01*
X201143338Y-82103871D01*
X201067419Y-82104970D01*
X201067419Y-82104970D01*
G37*
X201067419Y-82104970D02*
X201007315Y-82120597D01*
X200956979Y-82152848D01*
X200932607Y-82176940D01*
X200892655Y-82233895D01*
X200869758Y-82299965D01*
X200861892Y-82381182D01*
X200861852Y-82387748D01*
X200861782Y-82453763D01*
X201241736Y-82453763D01*
X201233637Y-82488342D01*
X201219013Y-82519659D01*
X201193419Y-82552291D01*
X201188065Y-82557500D01*
X201142057Y-82585694D01*
X201089590Y-82590475D01*
X201029197Y-82571926D01*
X201018960Y-82566931D01*
X200987561Y-82551745D01*
X200966530Y-82543094D01*
X200962861Y-82542293D01*
X200950052Y-82550063D01*
X200925622Y-82569072D01*
X200913221Y-82579460D01*
X200887524Y-82603321D01*
X200879085Y-82619077D01*
X200884942Y-82633571D01*
X200888072Y-82637534D01*
X200909275Y-82654879D01*
X200944262Y-82675959D01*
X200968663Y-82688265D01*
X201037928Y-82709946D01*
X201114612Y-82716971D01*
X201187235Y-82708647D01*
X201207574Y-82702686D01*
X201270524Y-82668952D01*
X201317185Y-82617045D01*
X201347827Y-82546459D01*
X201362718Y-82456692D01*
X201364353Y-82409753D01*
X201359579Y-82341413D01*
X201239010Y-82341413D01*
X201227348Y-82346465D01*
X201196002Y-82350429D01*
X201150429Y-82352768D01*
X201119554Y-82353169D01*
X201064019Y-82352783D01*
X201028967Y-82350975D01*
X201009738Y-82346773D01*
X201001670Y-82339203D01*
X201000099Y-82328218D01*
X201010879Y-82294381D01*
X201038020Y-82260940D01*
X201073723Y-82235272D01*
X201109440Y-82224772D01*
X201157952Y-82234086D01*
X201199947Y-82261013D01*
X201229064Y-82299827D01*
X201239010Y-82341413D01*
X201359579Y-82341413D01*
X201357401Y-82310236D01*
X201335945Y-82230949D01*
X201299530Y-82171263D01*
X201247703Y-82130549D01*
X201180010Y-82108179D01*
X201143338Y-82103871D01*
X201067419Y-82104970D01*
G36*
X201464745Y-82101486D02*
G01*
X201416405Y-82111015D01*
X201388886Y-82125125D01*
X201359936Y-82148568D01*
X201401124Y-82200571D01*
X201426518Y-82232064D01*
X201443762Y-82247428D01*
X201460898Y-82249776D01*
X201485973Y-82242217D01*
X201497743Y-82237941D01*
X201545730Y-82231631D01*
X201589676Y-82245156D01*
X201621940Y-82275710D01*
X201627181Y-82285452D01*
X201632888Y-82311258D01*
X201637294Y-82358817D01*
X201640189Y-82424758D01*
X201641369Y-82505710D01*
X201641386Y-82517226D01*
X201641386Y-82717822D01*
X201779703Y-82717822D01*
X201779703Y-82101683D01*
X201710544Y-82101683D01*
X201670667Y-82102725D01*
X201649893Y-82107358D01*
X201642211Y-82117849D01*
X201641386Y-82127745D01*
X201641386Y-82153806D01*
X201608255Y-82127745D01*
X201570265Y-82109965D01*
X201519230Y-82101174D01*
X201464745Y-82101486D01*
X201464745Y-82101486D01*
G37*
X201464745Y-82101486D02*
X201416405Y-82111015D01*
X201388886Y-82125125D01*
X201359936Y-82148568D01*
X201401124Y-82200571D01*
X201426518Y-82232064D01*
X201443762Y-82247428D01*
X201460898Y-82249776D01*
X201485973Y-82242217D01*
X201497743Y-82237941D01*
X201545730Y-82231631D01*
X201589676Y-82245156D01*
X201621940Y-82275710D01*
X201627181Y-82285452D01*
X201632888Y-82311258D01*
X201637294Y-82358817D01*
X201640189Y-82424758D01*
X201641369Y-82505710D01*
X201641386Y-82517226D01*
X201641386Y-82717822D01*
X201779703Y-82717822D01*
X201779703Y-82101683D01*
X201710544Y-82101683D01*
X201670667Y-82102725D01*
X201649893Y-82107358D01*
X201642211Y-82117849D01*
X201641386Y-82127745D01*
X201641386Y-82153806D01*
X201608255Y-82127745D01*
X201570265Y-82109965D01*
X201519230Y-82101174D01*
X201464745Y-82101486D01*
G36*
X202061589Y-82105417D02*
G01*
X202008589Y-82118290D01*
X201993269Y-82125110D01*
X201963572Y-82142974D01*
X201940780Y-82163093D01*
X201923917Y-82188962D01*
X201912002Y-82224073D01*
X201904058Y-82271920D01*
X201899106Y-82335996D01*
X201896169Y-82419794D01*
X201895053Y-82475768D01*
X201890948Y-82717822D01*
X201961068Y-82717822D01*
X202003607Y-82716038D01*
X202025524Y-82709942D01*
X202031188Y-82699706D01*
X202034179Y-82688637D01*
X202047549Y-82690754D01*
X202065767Y-82699629D01*
X202111376Y-82713233D01*
X202169993Y-82716899D01*
X202231646Y-82710903D01*
X202286362Y-82695521D01*
X202291270Y-82693386D01*
X202341277Y-82658255D01*
X202374244Y-82609419D01*
X202389413Y-82552333D01*
X202388254Y-82531824D01*
X202264492Y-82531824D01*
X202253587Y-82559425D01*
X202221255Y-82579204D01*
X202169090Y-82589819D01*
X202141213Y-82591228D01*
X202094753Y-82587620D01*
X202063871Y-82573597D01*
X202056336Y-82566931D01*
X202035924Y-82530666D01*
X202031188Y-82497773D01*
X202031188Y-82453763D01*
X202092487Y-82453763D01*
X202163744Y-82457395D01*
X202213724Y-82468818D01*
X202245304Y-82488824D01*
X202252374Y-82497743D01*
X202264492Y-82531824D01*
X202388254Y-82531824D01*
X202386029Y-82492456D01*
X202363337Y-82435244D01*
X202332376Y-82396580D01*
X202313624Y-82379864D01*
X202295267Y-82368878D01*
X202271381Y-82362180D01*
X202236043Y-82358326D01*
X202183331Y-82355873D01*
X202162423Y-82355168D01*
X202031188Y-82350879D01*
X202031380Y-82311158D01*
X202036463Y-82269405D01*
X202054838Y-82244158D01*
X202091961Y-82228030D01*
X202092957Y-82227742D01*
X202145590Y-82221400D01*
X202197094Y-82229684D01*
X202235370Y-82249827D01*
X202250728Y-82259773D01*
X202267270Y-82258397D01*
X202292725Y-82243987D01*
X202307672Y-82233817D01*
X202336909Y-82212088D01*
X202355020Y-82195800D01*
X202357926Y-82191137D01*
X202345960Y-82167005D01*
X202310604Y-82138185D01*
X202295247Y-82128461D01*
X202251099Y-82111714D01*
X202191602Y-82102227D01*
X202125513Y-82100095D01*
X202061589Y-82105417D01*
X202061589Y-82105417D01*
G37*
X202061589Y-82105417D02*
X202008589Y-82118290D01*
X201993269Y-82125110D01*
X201963572Y-82142974D01*
X201940780Y-82163093D01*
X201923917Y-82188962D01*
X201912002Y-82224073D01*
X201904058Y-82271920D01*
X201899106Y-82335996D01*
X201896169Y-82419794D01*
X201895053Y-82475768D01*
X201890948Y-82717822D01*
X201961068Y-82717822D01*
X202003607Y-82716038D01*
X202025524Y-82709942D01*
X202031188Y-82699706D01*
X202034179Y-82688637D01*
X202047549Y-82690754D01*
X202065767Y-82699629D01*
X202111376Y-82713233D01*
X202169993Y-82716899D01*
X202231646Y-82710903D01*
X202286362Y-82695521D01*
X202291270Y-82693386D01*
X202341277Y-82658255D01*
X202374244Y-82609419D01*
X202389413Y-82552333D01*
X202388254Y-82531824D01*
X202264492Y-82531824D01*
X202253587Y-82559425D01*
X202221255Y-82579204D01*
X202169090Y-82589819D01*
X202141213Y-82591228D01*
X202094753Y-82587620D01*
X202063871Y-82573597D01*
X202056336Y-82566931D01*
X202035924Y-82530666D01*
X202031188Y-82497773D01*
X202031188Y-82453763D01*
X202092487Y-82453763D01*
X202163744Y-82457395D01*
X202213724Y-82468818D01*
X202245304Y-82488824D01*
X202252374Y-82497743D01*
X202264492Y-82531824D01*
X202388254Y-82531824D01*
X202386029Y-82492456D01*
X202363337Y-82435244D01*
X202332376Y-82396580D01*
X202313624Y-82379864D01*
X202295267Y-82368878D01*
X202271381Y-82362180D01*
X202236043Y-82358326D01*
X202183331Y-82355873D01*
X202162423Y-82355168D01*
X202031188Y-82350879D01*
X202031380Y-82311158D01*
X202036463Y-82269405D01*
X202054838Y-82244158D01*
X202091961Y-82228030D01*
X202092957Y-82227742D01*
X202145590Y-82221400D01*
X202197094Y-82229684D01*
X202235370Y-82249827D01*
X202250728Y-82259773D01*
X202267270Y-82258397D01*
X202292725Y-82243987D01*
X202307672Y-82233817D01*
X202336909Y-82212088D01*
X202355020Y-82195800D01*
X202357926Y-82191137D01*
X202345960Y-82167005D01*
X202310604Y-82138185D01*
X202295247Y-82128461D01*
X202251099Y-82111714D01*
X202191602Y-82102227D01*
X202125513Y-82100095D01*
X202061589Y-82105417D01*
G36*
X202818476Y-82104237D02*
G01*
X202768745Y-82107971D01*
X202638709Y-82497773D01*
X202618322Y-82428614D01*
X202606054Y-82385874D01*
X202589915Y-82328115D01*
X202572488Y-82264625D01*
X202563274Y-82230570D01*
X202528612Y-82101683D01*
X202385609Y-82101683D01*
X202428354Y-82236857D01*
X202449404Y-82303342D01*
X202474833Y-82383539D01*
X202501390Y-82467193D01*
X202525098Y-82541782D01*
X202579098Y-82711535D01*
X202637402Y-82715328D01*
X202695705Y-82719122D01*
X202727321Y-82614734D01*
X202746818Y-82549889D01*
X202768096Y-82478400D01*
X202786692Y-82415263D01*
X202787426Y-82412750D01*
X202801316Y-82369969D01*
X202813571Y-82340779D01*
X202822154Y-82329741D01*
X202823918Y-82331018D01*
X202830109Y-82348130D01*
X202841872Y-82384787D01*
X202857775Y-82436378D01*
X202876386Y-82498294D01*
X202886457Y-82532352D01*
X202940993Y-82717822D01*
X203056736Y-82717822D01*
X203149263Y-82425471D01*
X203175256Y-82343462D01*
X203198934Y-82268987D01*
X203219180Y-82205544D01*
X203234874Y-82156632D01*
X203244898Y-82125749D01*
X203247945Y-82116726D01*
X203245533Y-82107487D01*
X203226592Y-82103441D01*
X203187177Y-82103846D01*
X203181007Y-82104152D01*
X203107914Y-82107971D01*
X203060043Y-82284010D01*
X203042447Y-82348211D01*
X203026723Y-82404649D01*
X203014254Y-82448422D01*
X203006426Y-82474630D01*
X203004980Y-82478903D01*
X202998986Y-82473990D01*
X202986899Y-82448532D01*
X202970107Y-82405997D01*
X202949997Y-82349850D01*
X202932997Y-82299130D01*
X202868206Y-82100504D01*
X202818476Y-82104237D01*
X202818476Y-82104237D01*
G37*
X202818476Y-82104237D02*
X202768745Y-82107971D01*
X202638709Y-82497773D01*
X202618322Y-82428614D01*
X202606054Y-82385874D01*
X202589915Y-82328115D01*
X202572488Y-82264625D01*
X202563274Y-82230570D01*
X202528612Y-82101683D01*
X202385609Y-82101683D01*
X202428354Y-82236857D01*
X202449404Y-82303342D01*
X202474833Y-82383539D01*
X202501390Y-82467193D01*
X202525098Y-82541782D01*
X202579098Y-82711535D01*
X202637402Y-82715328D01*
X202695705Y-82719122D01*
X202727321Y-82614734D01*
X202746818Y-82549889D01*
X202768096Y-82478400D01*
X202786692Y-82415263D01*
X202787426Y-82412750D01*
X202801316Y-82369969D01*
X202813571Y-82340779D01*
X202822154Y-82329741D01*
X202823918Y-82331018D01*
X202830109Y-82348130D01*
X202841872Y-82384787D01*
X202857775Y-82436378D01*
X202876386Y-82498294D01*
X202886457Y-82532352D01*
X202940993Y-82717822D01*
X203056736Y-82717822D01*
X203149263Y-82425471D01*
X203175256Y-82343462D01*
X203198934Y-82268987D01*
X203219180Y-82205544D01*
X203234874Y-82156632D01*
X203244898Y-82125749D01*
X203247945Y-82116726D01*
X203245533Y-82107487D01*
X203226592Y-82103441D01*
X203187177Y-82103846D01*
X203181007Y-82104152D01*
X203107914Y-82107971D01*
X203060043Y-82284010D01*
X203042447Y-82348211D01*
X203026723Y-82404649D01*
X203014254Y-82448422D01*
X203006426Y-82474630D01*
X203004980Y-82478903D01*
X202998986Y-82473990D01*
X202986899Y-82448532D01*
X202970107Y-82405997D01*
X202949997Y-82349850D01*
X202932997Y-82299130D01*
X202868206Y-82100504D01*
X202818476Y-82104237D01*
G36*
X203301188Y-82717822D02*
G01*
X203370346Y-82717822D01*
X203410488Y-82716645D01*
X203431394Y-82711772D01*
X203438922Y-82701186D01*
X203439505Y-82694029D01*
X203440774Y-82679676D01*
X203448779Y-82676923D01*
X203469815Y-82685771D01*
X203486173Y-82694029D01*
X203548977Y-82713597D01*
X203617248Y-82714729D01*
X203672752Y-82700135D01*
X203724438Y-82664877D01*
X203763838Y-82612835D01*
X203785413Y-82551450D01*
X203785962Y-82548018D01*
X203789167Y-82510571D01*
X203790761Y-82456813D01*
X203790633Y-82416155D01*
X203653279Y-82416155D01*
X203650097Y-82470194D01*
X203642859Y-82514735D01*
X203633060Y-82539888D01*
X203595989Y-82574260D01*
X203551974Y-82586582D01*
X203506584Y-82576618D01*
X203467797Y-82546895D01*
X203453108Y-82526905D01*
X203444519Y-82503050D01*
X203440496Y-82468230D01*
X203439505Y-82415930D01*
X203441278Y-82364139D01*
X203445963Y-82318634D01*
X203452603Y-82288181D01*
X203453710Y-82285452D01*
X203480491Y-82253000D01*
X203519579Y-82235183D01*
X203563315Y-82232306D01*
X203604038Y-82244674D01*
X203634087Y-82272593D01*
X203637204Y-82278148D01*
X203646961Y-82312022D01*
X203652277Y-82360728D01*
X203653279Y-82416155D01*
X203790633Y-82416155D01*
X203790568Y-82395540D01*
X203789664Y-82362563D01*
X203783514Y-82280981D01*
X203770733Y-82219730D01*
X203749471Y-82174449D01*
X203717878Y-82140779D01*
X203687207Y-82121014D01*
X203644354Y-82107120D01*
X203591056Y-82102354D01*
X203536480Y-82106236D01*
X203489792Y-82118282D01*
X203465124Y-82132693D01*
X203439505Y-82155878D01*
X203439505Y-81862773D01*
X203301188Y-81862773D01*
X203301188Y-82717822D01*
X203301188Y-82717822D01*
G37*
X203301188Y-82717822D02*
X203370346Y-82717822D01*
X203410488Y-82716645D01*
X203431394Y-82711772D01*
X203438922Y-82701186D01*
X203439505Y-82694029D01*
X203440774Y-82679676D01*
X203448779Y-82676923D01*
X203469815Y-82685771D01*
X203486173Y-82694029D01*
X203548977Y-82713597D01*
X203617248Y-82714729D01*
X203672752Y-82700135D01*
X203724438Y-82664877D01*
X203763838Y-82612835D01*
X203785413Y-82551450D01*
X203785962Y-82548018D01*
X203789167Y-82510571D01*
X203790761Y-82456813D01*
X203790633Y-82416155D01*
X203653279Y-82416155D01*
X203650097Y-82470194D01*
X203642859Y-82514735D01*
X203633060Y-82539888D01*
X203595989Y-82574260D01*
X203551974Y-82586582D01*
X203506584Y-82576618D01*
X203467797Y-82546895D01*
X203453108Y-82526905D01*
X203444519Y-82503050D01*
X203440496Y-82468230D01*
X203439505Y-82415930D01*
X203441278Y-82364139D01*
X203445963Y-82318634D01*
X203452603Y-82288181D01*
X203453710Y-82285452D01*
X203480491Y-82253000D01*
X203519579Y-82235183D01*
X203563315Y-82232306D01*
X203604038Y-82244674D01*
X203634087Y-82272593D01*
X203637204Y-82278148D01*
X203646961Y-82312022D01*
X203652277Y-82360728D01*
X203653279Y-82416155D01*
X203790633Y-82416155D01*
X203790568Y-82395540D01*
X203789664Y-82362563D01*
X203783514Y-82280981D01*
X203770733Y-82219730D01*
X203749471Y-82174449D01*
X203717878Y-82140779D01*
X203687207Y-82121014D01*
X203644354Y-82107120D01*
X203591056Y-82102354D01*
X203536480Y-82106236D01*
X203489792Y-82118282D01*
X203465124Y-82132693D01*
X203439505Y-82155878D01*
X203439505Y-81862773D01*
X203301188Y-81862773D01*
X203301188Y-82717822D01*
G36*
X204093356Y-82103020D02*
G01*
X204074539Y-82108660D01*
X204068473Y-82121053D01*
X204068218Y-82126647D01*
X204067129Y-82142230D01*
X204059632Y-82144676D01*
X204039381Y-82133993D01*
X204027351Y-82126694D01*
X203989400Y-82111063D01*
X203944072Y-82103334D01*
X203896544Y-82102740D01*
X203851995Y-82108513D01*
X203815602Y-82119884D01*
X203792543Y-82136088D01*
X203787996Y-82156355D01*
X203790291Y-82161843D01*
X203807020Y-82184626D01*
X203832963Y-82212647D01*
X203837655Y-82217177D01*
X203862383Y-82238005D01*
X203883718Y-82244735D01*
X203913555Y-82240038D01*
X203925508Y-82236917D01*
X203962705Y-82229421D01*
X203988859Y-82232792D01*
X204010946Y-82244681D01*
X204031178Y-82260635D01*
X204046079Y-82280700D01*
X204056434Y-82308702D01*
X204063029Y-82348467D01*
X204066649Y-82403823D01*
X204068078Y-82478594D01*
X204068218Y-82523740D01*
X204068218Y-82717822D01*
X204193960Y-82717822D01*
X204193960Y-82101683D01*
X204131089Y-82101683D01*
X204093356Y-82103020D01*
X204093356Y-82103020D01*
G37*
X204093356Y-82103020D02*
X204074539Y-82108660D01*
X204068473Y-82121053D01*
X204068218Y-82126647D01*
X204067129Y-82142230D01*
X204059632Y-82144676D01*
X204039381Y-82133993D01*
X204027351Y-82126694D01*
X203989400Y-82111063D01*
X203944072Y-82103334D01*
X203896544Y-82102740D01*
X203851995Y-82108513D01*
X203815602Y-82119884D01*
X203792543Y-82136088D01*
X203787996Y-82156355D01*
X203790291Y-82161843D01*
X203807020Y-82184626D01*
X203832963Y-82212647D01*
X203837655Y-82217177D01*
X203862383Y-82238005D01*
X203883718Y-82244735D01*
X203913555Y-82240038D01*
X203925508Y-82236917D01*
X203962705Y-82229421D01*
X203988859Y-82232792D01*
X204010946Y-82244681D01*
X204031178Y-82260635D01*
X204046079Y-82280700D01*
X204056434Y-82308702D01*
X204063029Y-82348467D01*
X204066649Y-82403823D01*
X204068078Y-82478594D01*
X204068218Y-82523740D01*
X204068218Y-82717822D01*
X204193960Y-82717822D01*
X204193960Y-82101683D01*
X204131089Y-82101683D01*
X204093356Y-82103020D01*
G36*
X204484210Y-82106555D02*
G01*
X204425055Y-82122339D01*
X204380023Y-82150948D01*
X204348246Y-82188419D01*
X204338366Y-82204411D01*
X204331073Y-82221163D01*
X204325974Y-82242592D01*
X204322679Y-82272616D01*
X204320797Y-82315154D01*
X204319937Y-82374122D01*
X204319707Y-82453440D01*
X204319703Y-82474484D01*
X204319703Y-82717822D01*
X204380059Y-82717822D01*
X204418557Y-82715126D01*
X204447023Y-82708295D01*
X204454155Y-82704083D01*
X204473652Y-82696813D01*
X204493566Y-82704083D01*
X204526353Y-82713160D01*
X204573978Y-82716813D01*
X204626764Y-82715228D01*
X204675036Y-82708589D01*
X204703218Y-82700072D01*
X204757753Y-82665063D01*
X204791835Y-82616479D01*
X204807157Y-82551882D01*
X204807299Y-82550223D01*
X204805955Y-82521566D01*
X204684356Y-82521566D01*
X204673726Y-82554161D01*
X204656410Y-82572505D01*
X204621652Y-82586379D01*
X204575773Y-82591917D01*
X204528988Y-82589191D01*
X204491514Y-82578274D01*
X204481015Y-82571269D01*
X204462668Y-82538904D01*
X204458020Y-82502111D01*
X204458020Y-82453763D01*
X204527582Y-82453763D01*
X204593667Y-82458850D01*
X204643764Y-82473263D01*
X204674929Y-82495729D01*
X204684356Y-82521566D01*
X204805955Y-82521566D01*
X204803987Y-82479647D01*
X204780710Y-82423845D01*
X204736948Y-82381647D01*
X204730899Y-82377808D01*
X204704907Y-82365309D01*
X204672735Y-82357740D01*
X204627760Y-82354061D01*
X204574331Y-82353216D01*
X204458020Y-82353169D01*
X204458020Y-82304411D01*
X204462953Y-82266581D01*
X204475543Y-82241236D01*
X204477017Y-82239887D01*
X204505034Y-82228800D01*
X204547326Y-82224503D01*
X204594064Y-82226615D01*
X204635418Y-82234756D01*
X204659957Y-82246965D01*
X204673253Y-82256746D01*
X204687294Y-82258613D01*
X204706671Y-82250600D01*
X204735976Y-82230739D01*
X204779803Y-82197063D01*
X204783825Y-82193909D01*
X204781764Y-82182236D01*
X204764568Y-82162822D01*
X204738433Y-82141248D01*
X204709552Y-82123096D01*
X204700478Y-82118809D01*
X204667380Y-82110256D01*
X204618880Y-82104155D01*
X204564695Y-82101708D01*
X204562161Y-82101703D01*
X204484210Y-82106555D01*
X204484210Y-82106555D01*
G37*
X204484210Y-82106555D02*
X204425055Y-82122339D01*
X204380023Y-82150948D01*
X204348246Y-82188419D01*
X204338366Y-82204411D01*
X204331073Y-82221163D01*
X204325974Y-82242592D01*
X204322679Y-82272616D01*
X204320797Y-82315154D01*
X204319937Y-82374122D01*
X204319707Y-82453440D01*
X204319703Y-82474484D01*
X204319703Y-82717822D01*
X204380059Y-82717822D01*
X204418557Y-82715126D01*
X204447023Y-82708295D01*
X204454155Y-82704083D01*
X204473652Y-82696813D01*
X204493566Y-82704083D01*
X204526353Y-82713160D01*
X204573978Y-82716813D01*
X204626764Y-82715228D01*
X204675036Y-82708589D01*
X204703218Y-82700072D01*
X204757753Y-82665063D01*
X204791835Y-82616479D01*
X204807157Y-82551882D01*
X204807299Y-82550223D01*
X204805955Y-82521566D01*
X204684356Y-82521566D01*
X204673726Y-82554161D01*
X204656410Y-82572505D01*
X204621652Y-82586379D01*
X204575773Y-82591917D01*
X204528988Y-82589191D01*
X204491514Y-82578274D01*
X204481015Y-82571269D01*
X204462668Y-82538904D01*
X204458020Y-82502111D01*
X204458020Y-82453763D01*
X204527582Y-82453763D01*
X204593667Y-82458850D01*
X204643764Y-82473263D01*
X204674929Y-82495729D01*
X204684356Y-82521566D01*
X204805955Y-82521566D01*
X204803987Y-82479647D01*
X204780710Y-82423845D01*
X204736948Y-82381647D01*
X204730899Y-82377808D01*
X204704907Y-82365309D01*
X204672735Y-82357740D01*
X204627760Y-82354061D01*
X204574331Y-82353216D01*
X204458020Y-82353169D01*
X204458020Y-82304411D01*
X204462953Y-82266581D01*
X204475543Y-82241236D01*
X204477017Y-82239887D01*
X204505034Y-82228800D01*
X204547326Y-82224503D01*
X204594064Y-82226615D01*
X204635418Y-82234756D01*
X204659957Y-82246965D01*
X204673253Y-82256746D01*
X204687294Y-82258613D01*
X204706671Y-82250600D01*
X204735976Y-82230739D01*
X204779803Y-82197063D01*
X204783825Y-82193909D01*
X204781764Y-82182236D01*
X204764568Y-82162822D01*
X204738433Y-82141248D01*
X204709552Y-82123096D01*
X204700478Y-82118809D01*
X204667380Y-82110256D01*
X204618880Y-82104155D01*
X204564695Y-82101708D01*
X204562161Y-82101703D01*
X204484210Y-82106555D01*
G36*
X205008759Y-81169184D02*
G01*
X204982247Y-81182282D01*
X204949553Y-81205106D01*
X204925725Y-81229996D01*
X204909406Y-81261249D01*
X204899240Y-81303166D01*
X204893872Y-81360044D01*
X204891944Y-81436184D01*
X204891831Y-81468917D01*
X204892161Y-81540656D01*
X204893527Y-81591927D01*
X204896500Y-81627404D01*
X204901649Y-81651763D01*
X204909543Y-81669680D01*
X204917757Y-81681902D01*
X204970187Y-81733905D01*
X205031930Y-81765184D01*
X205098536Y-81774592D01*
X205165558Y-81760980D01*
X205186792Y-81751354D01*
X205237624Y-81724859D01*
X205237624Y-82140052D01*
X205200525Y-82120868D01*
X205151643Y-82106025D01*
X205091561Y-82102222D01*
X205031564Y-82109243D01*
X204986256Y-82125013D01*
X204948675Y-82155047D01*
X204916564Y-82198024D01*
X204914150Y-82202436D01*
X204903967Y-82223221D01*
X204896530Y-82244170D01*
X204891411Y-82269548D01*
X204888181Y-82303618D01*
X204886413Y-82350641D01*
X204885677Y-82414882D01*
X204885544Y-82487176D01*
X204885544Y-82717822D01*
X205023861Y-82717822D01*
X205023861Y-82292533D01*
X205062549Y-82259979D01*
X205102738Y-82233940D01*
X205140797Y-82229205D01*
X205179066Y-82241389D01*
X205199462Y-82253320D01*
X205214642Y-82270313D01*
X205225438Y-82295995D01*
X205232683Y-82333991D01*
X205237208Y-82387926D01*
X205239844Y-82461425D01*
X205240772Y-82510347D01*
X205243911Y-82711535D01*
X205309926Y-82715336D01*
X205375940Y-82719136D01*
X205375940Y-81470650D01*
X205237624Y-81470650D01*
X205234097Y-81540254D01*
X205222215Y-81588569D01*
X205200020Y-81618631D01*
X205165559Y-81633471D01*
X205130742Y-81636436D01*
X205091329Y-81633028D01*
X205065171Y-81619617D01*
X205048814Y-81601896D01*
X205035937Y-81582835D01*
X205028272Y-81561601D01*
X205024861Y-81531849D01*
X205024749Y-81487236D01*
X205025897Y-81449880D01*
X205028532Y-81393604D01*
X205032456Y-81356658D01*
X205039063Y-81333223D01*
X205049749Y-81317480D01*
X205059833Y-81308380D01*
X205101970Y-81288537D01*
X205151840Y-81285332D01*
X205180476Y-81292168D01*
X205208828Y-81316464D01*
X205227609Y-81363728D01*
X205236712Y-81433624D01*
X205237624Y-81470650D01*
X205375940Y-81470650D01*
X205375940Y-81158614D01*
X205306782Y-81158614D01*
X205265260Y-81160256D01*
X205243838Y-81166087D01*
X205237626Y-81177461D01*
X205237624Y-81177798D01*
X205234742Y-81188938D01*
X205222030Y-81187673D01*
X205196757Y-81175433D01*
X205137869Y-81156707D01*
X205071615Y-81154739D01*
X205008759Y-81169184D01*
X205008759Y-81169184D01*
G37*
X205008759Y-81169184D02*
X204982247Y-81182282D01*
X204949553Y-81205106D01*
X204925725Y-81229996D01*
X204909406Y-81261249D01*
X204899240Y-81303166D01*
X204893872Y-81360044D01*
X204891944Y-81436184D01*
X204891831Y-81468917D01*
X204892161Y-81540656D01*
X204893527Y-81591927D01*
X204896500Y-81627404D01*
X204901649Y-81651763D01*
X204909543Y-81669680D01*
X204917757Y-81681902D01*
X204970187Y-81733905D01*
X205031930Y-81765184D01*
X205098536Y-81774592D01*
X205165558Y-81760980D01*
X205186792Y-81751354D01*
X205237624Y-81724859D01*
X205237624Y-82140052D01*
X205200525Y-82120868D01*
X205151643Y-82106025D01*
X205091561Y-82102222D01*
X205031564Y-82109243D01*
X204986256Y-82125013D01*
X204948675Y-82155047D01*
X204916564Y-82198024D01*
X204914150Y-82202436D01*
X204903967Y-82223221D01*
X204896530Y-82244170D01*
X204891411Y-82269548D01*
X204888181Y-82303618D01*
X204886413Y-82350641D01*
X204885677Y-82414882D01*
X204885544Y-82487176D01*
X204885544Y-82717822D01*
X205023861Y-82717822D01*
X205023861Y-82292533D01*
X205062549Y-82259979D01*
X205102738Y-82233940D01*
X205140797Y-82229205D01*
X205179066Y-82241389D01*
X205199462Y-82253320D01*
X205214642Y-82270313D01*
X205225438Y-82295995D01*
X205232683Y-82333991D01*
X205237208Y-82387926D01*
X205239844Y-82461425D01*
X205240772Y-82510347D01*
X205243911Y-82711535D01*
X205309926Y-82715336D01*
X205375940Y-82719136D01*
X205375940Y-81470650D01*
X205237624Y-81470650D01*
X205234097Y-81540254D01*
X205222215Y-81588569D01*
X205200020Y-81618631D01*
X205165559Y-81633471D01*
X205130742Y-81636436D01*
X205091329Y-81633028D01*
X205065171Y-81619617D01*
X205048814Y-81601896D01*
X205035937Y-81582835D01*
X205028272Y-81561601D01*
X205024861Y-81531849D01*
X205024749Y-81487236D01*
X205025897Y-81449880D01*
X205028532Y-81393604D01*
X205032456Y-81356658D01*
X205039063Y-81333223D01*
X205049749Y-81317480D01*
X205059833Y-81308380D01*
X205101970Y-81288537D01*
X205151840Y-81285332D01*
X205180476Y-81292168D01*
X205208828Y-81316464D01*
X205227609Y-81363728D01*
X205236712Y-81433624D01*
X205237624Y-81470650D01*
X205375940Y-81470650D01*
X205375940Y-81158614D01*
X205306782Y-81158614D01*
X205265260Y-81160256D01*
X205243838Y-81166087D01*
X205237626Y-81177461D01*
X205237624Y-81177798D01*
X205234742Y-81188938D01*
X205222030Y-81187673D01*
X205196757Y-81175433D01*
X205137869Y-81156707D01*
X205071615Y-81154739D01*
X205008759Y-81169184D01*
M02*
