M48
; DRILL file {KiCad 5.1.2-f72e74a~84~ubuntu18.04.1} date jeu. 18 juil. 2019 21:55:16 CEST
; FORMAT={-:-/ absolute / metric / decimal}
; #@! TF.CreationDate,2019-07-18T21:55:16+02:00
; #@! TF.GenerationSoftware,Kicad,Pcbnew,5.1.2-f72e74a~84~ubuntu18.04.1
FMAT,2
METRIC
T1C0.750
T2C0.800
T3C0.950
T4C1.000
T5C1.500
T6C1.520
T7C1.000
T8C2.700
%
G90
G05
T1
X170.9Y-71.0
X170.9Y-72.27
X170.9Y-73.54
T2
X164.76Y-72.3
X167.3Y-72.3
X184.1Y-69.0
X185.5Y-61.5
X175.3Y-71.0
X175.3Y-73.5
X179.7Y-71.3
X179.7Y-73.3
T3
X164.7Y-77.1
X164.7Y-79.6
X164.7Y-82.1
T4
X195.09Y-81.31
X200.29Y-51.91
X205.29Y-51.91
X210.49Y-81.31
T5
X169.8Y-80.2
X192.4Y-80.2
X190.1Y-52.38
X190.1Y-72.7
X164.2Y-53.8
X186.8Y-53.8
T6
X165.9Y-61.4
X165.9Y-66.48
T7
X208.0Y-63.0
X210.0Y-59.0
X200.0Y-67.0
X206.0Y-73.0
X204.0Y-71.0
X204.0Y-69.0
X204.0Y-63.0
X202.0Y-71.0
X196.0Y-75.0
X198.0Y-69.0
X210.0Y-69.0
X208.0Y-65.0
X210.0Y-75.0
X210.0Y-65.0
X202.0Y-67.0
X206.0Y-61.0
X202.0Y-75.0
X198.0Y-75.0
X208.0Y-71.0
X206.0Y-63.0
X200.0Y-73.0
X208.0Y-75.0
X208.0Y-73.0
X202.0Y-65.0
X204.0Y-67.0
X206.0Y-67.0
X204.0Y-73.0
X206.0Y-71.0
X200.0Y-71.0
X204.0Y-75.0
X210.0Y-63.0
X196.0Y-71.0
X210.0Y-61.0
X198.0Y-73.0
X206.0Y-75.0
X208.0Y-67.0
X198.0Y-71.0
X200.0Y-75.0
X208.0Y-61.0
X204.0Y-65.0
X208.0Y-69.0
X210.0Y-71.0
X200.0Y-69.0
X206.0Y-69.0
X196.0Y-73.0
X210.0Y-67.0
X210.0Y-73.0
X202.0Y-69.0
X206.0Y-65.0
X208.0Y-59.0
X202.0Y-73.0
T8
X179.0Y-65.0
T0
M30
