G04 #@! TF.GenerationSoftware,KiCad,Pcbnew,5.1.2-f72e74a~84~ubuntu18.04.1*
G04 #@! TF.CreationDate,2019-07-23T18:27:44+02:00*
G04 #@! TF.ProjectId,InWall-ACDC,496e5761-6c6c-42d4-9143-44432e6b6963,1.0*
G04 #@! TF.SameCoordinates,Original*
G04 #@! TF.FileFunction,Legend,Bot*
G04 #@! TF.FilePolarity,Positive*
%FSLAX46Y46*%
G04 Gerber Fmt 4.6, Leading zero omitted, Abs format (unit mm)*
G04 Created by KiCad (PCBNEW 5.1.2-f72e74a~84~ubuntu18.04.1) date 2019-07-23 18:27:44*
%MOMM*%
%LPD*%
G04 APERTURE LIST*
%ADD10C,0.150000*%
%ADD11C,0.240000*%
%ADD12C,0.450000*%
%ADD13C,1.000000*%
%ADD14C,0.300000*%
%ADD15C,0.200000*%
%ADD16C,0.010000*%
%ADD17C,1.400000*%
%ADD18C,3.100000*%
%ADD19C,2.000000*%
%ADD20R,2.000000X2.000000*%
%ADD21C,2.700000*%
%ADD22R,2.400000X2.700000*%
%ADD23R,1.900000X1.450000*%
%ADD24O,1.900000X1.450000*%
%ADD25O,2.000000X2.000000*%
%ADD26O,2.350000X2.100000*%
%ADD27C,0.100000*%
%ADD28C,2.100000*%
%ADD29C,2.200000*%
%ADD30C,3.400000*%
%ADD31R,3.400000X3.400000*%
G04 APERTURE END LIST*
D10*
X163352380Y-66114285D02*
X162352380Y-66114285D01*
X163352380Y-66685714D01*
X162352380Y-66685714D01*
X163552380Y-61138095D02*
X162552380Y-61138095D01*
X162552380Y-61519047D01*
X162600000Y-61614285D01*
X162647619Y-61661904D01*
X162742857Y-61709523D01*
X162885714Y-61709523D01*
X162980952Y-61661904D01*
X163028571Y-61614285D01*
X163076190Y-61519047D01*
X163076190Y-61138095D01*
X162252380Y-79000000D02*
X162300000Y-78904761D01*
X162395238Y-78857142D01*
X162490476Y-78904761D01*
X162538095Y-79000000D01*
X162490476Y-79095238D01*
X162395238Y-79142857D01*
X162300000Y-79095238D01*
X162252380Y-79000000D01*
X163157142Y-80190476D02*
X163204761Y-80142857D01*
X163252380Y-80000000D01*
X163252380Y-79904761D01*
X163204761Y-79761904D01*
X163109523Y-79666666D01*
X163014285Y-79619047D01*
X162823809Y-79571428D01*
X162680952Y-79571428D01*
X162490476Y-79619047D01*
X162395238Y-79666666D01*
X162300000Y-79761904D01*
X162252380Y-79904761D01*
X162252380Y-80000000D01*
X162300000Y-80142857D01*
X162347619Y-80190476D01*
X162252380Y-75266666D02*
X163252380Y-75600000D01*
X162252380Y-75933333D01*
X163157142Y-76838095D02*
X163204761Y-76790476D01*
X163252380Y-76647619D01*
X163252380Y-76552380D01*
X163204761Y-76409523D01*
X163109523Y-76314285D01*
X163014285Y-76266666D01*
X162823809Y-76219047D01*
X162680952Y-76219047D01*
X162490476Y-76266666D01*
X162395238Y-76314285D01*
X162300000Y-76409523D01*
X162252380Y-76552380D01*
X162252380Y-76647619D01*
X162300000Y-76790476D01*
X162347619Y-76838095D01*
X163157142Y-77838095D02*
X163204761Y-77790476D01*
X163252380Y-77647619D01*
X163252380Y-77552380D01*
X163204761Y-77409523D01*
X163109523Y-77314285D01*
X163014285Y-77266666D01*
X162823809Y-77219047D01*
X162680952Y-77219047D01*
X162490476Y-77266666D01*
X162395238Y-77314285D01*
X162300000Y-77409523D01*
X162252380Y-77552380D01*
X162252380Y-77647619D01*
X162300000Y-77790476D01*
X162347619Y-77838095D01*
X162300000Y-81838095D02*
X162252380Y-81742857D01*
X162252380Y-81600000D01*
X162300000Y-81457142D01*
X162395238Y-81361904D01*
X162490476Y-81314285D01*
X162680952Y-81266666D01*
X162823809Y-81266666D01*
X163014285Y-81314285D01*
X163109523Y-81361904D01*
X163204761Y-81457142D01*
X163252380Y-81600000D01*
X163252380Y-81695238D01*
X163204761Y-81838095D01*
X163157142Y-81885714D01*
X162823809Y-81885714D01*
X162823809Y-81695238D01*
X163252380Y-82314285D02*
X162252380Y-82314285D01*
X163252380Y-82885714D01*
X162252380Y-82885714D01*
X163252380Y-83361904D02*
X162252380Y-83361904D01*
X162252380Y-83600000D01*
X162300000Y-83742857D01*
X162395238Y-83838095D01*
X162490476Y-83885714D01*
X162680952Y-83933333D01*
X162823809Y-83933333D01*
X163014285Y-83885714D01*
X163109523Y-83838095D01*
X163204761Y-83742857D01*
X163252380Y-83600000D01*
X163252380Y-83361904D01*
D11*
X189971428Y-79402857D02*
X189971428Y-78202857D01*
X189400000Y-78602857D02*
X189400000Y-79402857D01*
X189400000Y-78717142D02*
X189342857Y-78660000D01*
X189228571Y-78602857D01*
X189057142Y-78602857D01*
X188942857Y-78660000D01*
X188885714Y-78774285D01*
X188885714Y-79402857D01*
X187514285Y-78602857D02*
X187285714Y-79402857D01*
X187057142Y-78831428D01*
X186828571Y-79402857D01*
X186600000Y-78602857D01*
X185628571Y-79402857D02*
X185628571Y-78774285D01*
X185685714Y-78660000D01*
X185800000Y-78602857D01*
X186028571Y-78602857D01*
X186142857Y-78660000D01*
X185628571Y-79345714D02*
X185742857Y-79402857D01*
X186028571Y-79402857D01*
X186142857Y-79345714D01*
X186200000Y-79231428D01*
X186200000Y-79117142D01*
X186142857Y-79002857D01*
X186028571Y-78945714D01*
X185742857Y-78945714D01*
X185628571Y-78888571D01*
X184885714Y-79402857D02*
X185000000Y-79345714D01*
X185057142Y-79231428D01*
X185057142Y-78202857D01*
X184257142Y-79402857D02*
X184371428Y-79345714D01*
X184428571Y-79231428D01*
X184428571Y-78202857D01*
X182942857Y-79060000D02*
X182371428Y-79060000D01*
X183057142Y-79402857D02*
X182657142Y-78202857D01*
X182257142Y-79402857D01*
X181171428Y-79288571D02*
X181228571Y-79345714D01*
X181400000Y-79402857D01*
X181514285Y-79402857D01*
X181685714Y-79345714D01*
X181800000Y-79231428D01*
X181857142Y-79117142D01*
X181914285Y-78888571D01*
X181914285Y-78717142D01*
X181857142Y-78488571D01*
X181800000Y-78374285D01*
X181685714Y-78260000D01*
X181514285Y-78202857D01*
X181400000Y-78202857D01*
X181228571Y-78260000D01*
X181171428Y-78317142D01*
X180657142Y-78945714D02*
X179742857Y-78945714D01*
X179171428Y-79402857D02*
X179171428Y-78202857D01*
X178885714Y-78202857D01*
X178714285Y-78260000D01*
X178600000Y-78374285D01*
X178542857Y-78488571D01*
X178485714Y-78717142D01*
X178485714Y-78888571D01*
X178542857Y-79117142D01*
X178600000Y-79231428D01*
X178714285Y-79345714D01*
X178885714Y-79402857D01*
X179171428Y-79402857D01*
X177285714Y-79288571D02*
X177342857Y-79345714D01*
X177514285Y-79402857D01*
X177628571Y-79402857D01*
X177800000Y-79345714D01*
X177914285Y-79231428D01*
X177971428Y-79117142D01*
X178028571Y-78888571D01*
X178028571Y-78717142D01*
X177971428Y-78488571D01*
X177914285Y-78374285D01*
X177800000Y-78260000D01*
X177628571Y-78202857D01*
X177514285Y-78202857D01*
X177342857Y-78260000D01*
X177285714Y-78317142D01*
X190000000Y-80357142D02*
X189942857Y-80300000D01*
X189828571Y-80242857D01*
X189542857Y-80242857D01*
X189428571Y-80300000D01*
X189371428Y-80357142D01*
X189314285Y-80471428D01*
X189314285Y-80585714D01*
X189371428Y-80757142D01*
X190057142Y-81442857D01*
X189314285Y-81442857D01*
X188857142Y-80357142D02*
X188800000Y-80300000D01*
X188685714Y-80242857D01*
X188400000Y-80242857D01*
X188285714Y-80300000D01*
X188228571Y-80357142D01*
X188171428Y-80471428D01*
X188171428Y-80585714D01*
X188228571Y-80757142D01*
X188914285Y-81442857D01*
X188171428Y-81442857D01*
X187428571Y-80242857D02*
X187314285Y-80242857D01*
X187200000Y-80300000D01*
X187142857Y-80357142D01*
X187085714Y-80471428D01*
X187028571Y-80700000D01*
X187028571Y-80985714D01*
X187085714Y-81214285D01*
X187142857Y-81328571D01*
X187200000Y-81385714D01*
X187314285Y-81442857D01*
X187428571Y-81442857D01*
X187542857Y-81385714D01*
X187600000Y-81328571D01*
X187657142Y-81214285D01*
X187714285Y-80985714D01*
X187714285Y-80700000D01*
X187657142Y-80471428D01*
X187600000Y-80357142D01*
X187542857Y-80300000D01*
X187428571Y-80242857D01*
X186685714Y-80242857D02*
X186285714Y-81442857D01*
X185885714Y-80242857D01*
X184571428Y-80985714D02*
X183657142Y-80985714D01*
X182285714Y-80242857D02*
X181542857Y-80242857D01*
X181942857Y-80700000D01*
X181771428Y-80700000D01*
X181657142Y-80757142D01*
X181600000Y-80814285D01*
X181542857Y-80928571D01*
X181542857Y-81214285D01*
X181600000Y-81328571D01*
X181657142Y-81385714D01*
X181771428Y-81442857D01*
X182114285Y-81442857D01*
X182228571Y-81385714D01*
X182285714Y-81328571D01*
X181028571Y-81328571D02*
X180971428Y-81385714D01*
X181028571Y-81442857D01*
X181085714Y-81385714D01*
X181028571Y-81328571D01*
X181028571Y-81442857D01*
X180571428Y-80242857D02*
X179828571Y-80242857D01*
X180228571Y-80700000D01*
X180057142Y-80700000D01*
X179942857Y-80757142D01*
X179885714Y-80814285D01*
X179828571Y-80928571D01*
X179828571Y-81214285D01*
X179885714Y-81328571D01*
X179942857Y-81385714D01*
X180057142Y-81442857D01*
X180400000Y-81442857D01*
X180514285Y-81385714D01*
X180571428Y-81328571D01*
X178457142Y-80185714D02*
X179485714Y-81728571D01*
X177485714Y-80242857D02*
X178057142Y-80242857D01*
X178114285Y-80814285D01*
X178057142Y-80757142D01*
X177942857Y-80700000D01*
X177657142Y-80700000D01*
X177542857Y-80757142D01*
X177485714Y-80814285D01*
X177428571Y-80928571D01*
X177428571Y-81214285D01*
X177485714Y-81328571D01*
X177542857Y-81385714D01*
X177657142Y-81442857D01*
X177942857Y-81442857D01*
X178057142Y-81385714D01*
X178114285Y-81328571D01*
X177085714Y-80242857D02*
X176685714Y-81442857D01*
X176285714Y-80242857D01*
X184914285Y-82682857D02*
X184628571Y-83482857D01*
X184342857Y-82682857D01*
X183257142Y-83482857D02*
X183942857Y-83482857D01*
X183600000Y-83482857D02*
X183600000Y-82282857D01*
X183714285Y-82454285D01*
X183828571Y-82568571D01*
X183942857Y-82625714D01*
X182742857Y-83368571D02*
X182685714Y-83425714D01*
X182742857Y-83482857D01*
X182800000Y-83425714D01*
X182742857Y-83368571D01*
X182742857Y-83482857D01*
X181942857Y-82282857D02*
X181828571Y-82282857D01*
X181714285Y-82340000D01*
X181657142Y-82397142D01*
X181600000Y-82511428D01*
X181542857Y-82740000D01*
X181542857Y-83025714D01*
X181600000Y-83254285D01*
X181657142Y-83368571D01*
X181714285Y-83425714D01*
X181828571Y-83482857D01*
X181942857Y-83482857D01*
X182057142Y-83425714D01*
X182114285Y-83368571D01*
X182171428Y-83254285D01*
X182228571Y-83025714D01*
X182228571Y-82740000D01*
X182171428Y-82511428D01*
X182114285Y-82397142D01*
X182057142Y-82340000D01*
X181942857Y-82282857D01*
D12*
X194100000Y-62300000D02*
X190900000Y-56200000D01*
X187600000Y-62300000D02*
X194100000Y-62300000D01*
X190900000Y-56200000D02*
X187600000Y-62300000D01*
X190900000Y-60971428D02*
X190757142Y-61114285D01*
X190900000Y-61257142D01*
X191042857Y-61114285D01*
X190900000Y-60971428D01*
X190900000Y-61257142D01*
X190900000Y-60114285D02*
X191042857Y-58400000D01*
X190900000Y-58257142D01*
X190757142Y-58400000D01*
X190900000Y-60114285D01*
X190900000Y-58257142D01*
D13*
X188000000Y-76000000D02*
X213000000Y-76000000D01*
X181000000Y-69000000D02*
X188000000Y-76000000D01*
X162000000Y-69000000D02*
X181000000Y-69000000D01*
D14*
X185333333Y-58354761D02*
X185333333Y-56354761D01*
X184857142Y-56354761D01*
X184571428Y-56450000D01*
X184380952Y-56640476D01*
X184285714Y-56830952D01*
X184190476Y-57211904D01*
X184190476Y-57497619D01*
X184285714Y-57878571D01*
X184380952Y-58069047D01*
X184571428Y-58259523D01*
X184857142Y-58354761D01*
X185333333Y-58354761D01*
X183428571Y-57783333D02*
X182476190Y-57783333D01*
X183619047Y-58354761D02*
X182952380Y-56354761D01*
X182285714Y-58354761D01*
X181619047Y-58354761D02*
X181619047Y-56354761D01*
X180476190Y-58354761D01*
X180476190Y-56354761D01*
X178476190Y-56450000D02*
X178666666Y-56354761D01*
X178952380Y-56354761D01*
X179238095Y-56450000D01*
X179428571Y-56640476D01*
X179523809Y-56830952D01*
X179619047Y-57211904D01*
X179619047Y-57497619D01*
X179523809Y-57878571D01*
X179428571Y-58069047D01*
X179238095Y-58259523D01*
X178952380Y-58354761D01*
X178761904Y-58354761D01*
X178476190Y-58259523D01*
X178380952Y-58164285D01*
X178380952Y-57497619D01*
X178761904Y-57497619D01*
X177523809Y-57307142D02*
X176857142Y-57307142D01*
X176571428Y-58354761D02*
X177523809Y-58354761D01*
X177523809Y-56354761D01*
X176571428Y-56354761D01*
X174571428Y-58354761D02*
X175238095Y-57402380D01*
X175714285Y-58354761D02*
X175714285Y-56354761D01*
X174952380Y-56354761D01*
X174761904Y-56450000D01*
X174666666Y-56545238D01*
X174571428Y-56735714D01*
X174571428Y-57021428D01*
X174666666Y-57211904D01*
X174761904Y-57307142D01*
X174952380Y-57402380D01*
X175714285Y-57402380D01*
X183333333Y-59845238D02*
X183238095Y-59750000D01*
X183047619Y-59654761D01*
X182571428Y-59654761D01*
X182380952Y-59750000D01*
X182285714Y-59845238D01*
X182190476Y-60035714D01*
X182190476Y-60226190D01*
X182285714Y-60511904D01*
X183428571Y-61654761D01*
X182190476Y-61654761D01*
X181428571Y-59845238D02*
X181333333Y-59750000D01*
X181142857Y-59654761D01*
X180666666Y-59654761D01*
X180476190Y-59750000D01*
X180380952Y-59845238D01*
X180285714Y-60035714D01*
X180285714Y-60226190D01*
X180380952Y-60511904D01*
X181523809Y-61654761D01*
X180285714Y-61654761D01*
X179047619Y-59654761D02*
X178857142Y-59654761D01*
X178666666Y-59750000D01*
X178571428Y-59845238D01*
X178476190Y-60035714D01*
X178380952Y-60416666D01*
X178380952Y-60892857D01*
X178476190Y-61273809D01*
X178571428Y-61464285D01*
X178666666Y-61559523D01*
X178857142Y-61654761D01*
X179047619Y-61654761D01*
X179238095Y-61559523D01*
X179333333Y-61464285D01*
X179428571Y-61273809D01*
X179523809Y-60892857D01*
X179523809Y-60416666D01*
X179428571Y-60035714D01*
X179333333Y-59845238D01*
X179238095Y-59750000D01*
X179047619Y-59654761D01*
X177809523Y-59654761D02*
X177142857Y-61654761D01*
X176476190Y-59654761D01*
D15*
X173100000Y-79800000D02*
X172872159Y-79971385D01*
X172872159Y-79971385D02*
G75*
G03X171593510Y-81970794I3627841J-3728615D01*
G01*
X171200000Y-82900000D02*
X171800000Y-81900000D01*
X172613350Y-82146550D02*
X171200000Y-82900000D01*
X173847350Y-80423334D02*
G75*
G03X173100000Y-79800000I-447350J223334D01*
G01*
X173323607Y-83100000D02*
G75*
G03X173323607Y-83100000I-223607J0D01*
G01*
X175608717Y-78331962D02*
G75*
G03X175000000Y-78600000I591283J-2168038D01*
G01*
X174308020Y-78687606D02*
G75*
G03X173600000Y-78400000I-1108020J-1712394D01*
G01*
X173341674Y-79635923D02*
G75*
G03X173499999Y-79399999I-841674J735923D01*
G01*
X173600000Y-82600000D02*
X172900000Y-82000000D01*
X174623607Y-83000000D02*
G75*
G03X174623607Y-83000000I-223607J0D01*
G01*
X174300000Y-82800000D02*
G75*
G03X173190189Y-82909991I-509812J-509990D01*
G01*
X171593509Y-81970794D02*
G75*
G03X173847350Y-80423334I-793509J3570794D01*
G01*
X173900000Y-81900000D02*
G75*
G03X172613350Y-82146550I-377419J-1510934D01*
G01*
X173917123Y-81909238D02*
G75*
G03X175300000Y-79800000I-917123J2109238D01*
G01*
X175300000Y-78800000D02*
G75*
G03X175300000Y-78800000I-200000J0D01*
G01*
X174300000Y-78800000D02*
G75*
G03X174300000Y-78800000I-200000J0D01*
G01*
X174500000Y-79200000D02*
X174600000Y-79000000D01*
X174600000Y-79500000D02*
X174500000Y-79200000D01*
X174700000Y-79200000D02*
X174600000Y-79500000D01*
X174600000Y-79000000D02*
X174700000Y-79200000D01*
X175200000Y-78299899D02*
G75*
G03X174000559Y-78300000I-599442J-3300100D01*
G01*
X173600000Y-78700000D02*
G75*
G03X175600000Y-78700000I1000000J0D01*
G01*
D16*
G36*
X202523036Y-78190018D02*
G01*
X202466188Y-78491570D01*
X202046662Y-78664512D01*
X201795016Y-78493395D01*
X201724542Y-78445750D01*
X201660837Y-78403210D01*
X201606874Y-78367715D01*
X201565627Y-78341210D01*
X201540066Y-78325636D01*
X201533105Y-78322278D01*
X201520565Y-78330914D01*
X201493769Y-78354792D01*
X201455720Y-78390859D01*
X201409421Y-78436067D01*
X201357877Y-78487364D01*
X201304091Y-78541701D01*
X201251065Y-78596028D01*
X201201805Y-78647295D01*
X201159313Y-78692451D01*
X201126593Y-78728446D01*
X201106649Y-78752230D01*
X201101881Y-78760190D01*
X201108743Y-78774865D01*
X201127980Y-78807014D01*
X201157570Y-78853492D01*
X201195490Y-78911156D01*
X201239718Y-78976860D01*
X201265346Y-79014336D01*
X201312059Y-79082768D01*
X201353568Y-79144520D01*
X201387860Y-79196519D01*
X201412920Y-79235692D01*
X201426736Y-79258965D01*
X201428812Y-79263855D01*
X201424105Y-79277755D01*
X201411277Y-79310150D01*
X201392262Y-79356485D01*
X201368997Y-79412206D01*
X201343416Y-79472758D01*
X201317455Y-79533586D01*
X201293050Y-79590136D01*
X201272137Y-79637852D01*
X201256651Y-79672181D01*
X201248528Y-79688568D01*
X201248048Y-79689212D01*
X201235293Y-79692341D01*
X201201323Y-79699321D01*
X201149660Y-79709467D01*
X201083824Y-79722092D01*
X201007336Y-79736509D01*
X200962710Y-79744823D01*
X200880979Y-79760384D01*
X200807157Y-79775192D01*
X200744979Y-79788436D01*
X200698178Y-79799305D01*
X200670491Y-79806989D01*
X200664926Y-79809427D01*
X200659474Y-79825930D01*
X200655076Y-79863200D01*
X200651728Y-79916880D01*
X200649426Y-79982612D01*
X200648168Y-80056037D01*
X200647952Y-80132796D01*
X200648773Y-80208532D01*
X200650629Y-80278886D01*
X200653518Y-80339500D01*
X200657435Y-80386016D01*
X200662378Y-80414075D01*
X200665343Y-80419916D01*
X200683066Y-80426917D01*
X200720619Y-80436927D01*
X200773036Y-80448769D01*
X200835348Y-80461267D01*
X200857100Y-80465310D01*
X200961976Y-80484520D01*
X201044820Y-80499991D01*
X201108370Y-80512337D01*
X201155363Y-80522173D01*
X201188537Y-80530114D01*
X201210629Y-80536776D01*
X201224376Y-80542773D01*
X201232516Y-80548719D01*
X201233655Y-80549894D01*
X201245023Y-80568826D01*
X201262365Y-80605669D01*
X201283950Y-80655913D01*
X201308046Y-80715046D01*
X201332921Y-80778556D01*
X201356843Y-80841932D01*
X201378081Y-80900662D01*
X201394903Y-80950235D01*
X201405578Y-80986139D01*
X201408373Y-81003862D01*
X201408140Y-81004483D01*
X201398669Y-81018970D01*
X201377182Y-81050844D01*
X201345937Y-81096789D01*
X201307193Y-81153485D01*
X201263207Y-81217617D01*
X201250681Y-81235842D01*
X201206016Y-81301914D01*
X201166712Y-81362200D01*
X201134912Y-81413235D01*
X201112755Y-81451560D01*
X201102383Y-81473711D01*
X201101881Y-81476432D01*
X201110595Y-81490736D01*
X201134675Y-81519072D01*
X201171024Y-81558396D01*
X201216547Y-81605661D01*
X201268148Y-81657823D01*
X201322733Y-81711835D01*
X201377206Y-81764653D01*
X201428471Y-81813231D01*
X201473433Y-81854523D01*
X201508996Y-81885485D01*
X201532065Y-81903070D01*
X201538446Y-81905941D01*
X201553301Y-81899178D01*
X201583714Y-81880939D01*
X201624732Y-81854297D01*
X201656291Y-81832852D01*
X201713475Y-81793503D01*
X201781194Y-81747171D01*
X201849120Y-81700913D01*
X201885639Y-81676155D01*
X202009248Y-81592547D01*
X202113009Y-81648650D01*
X202160280Y-81673228D01*
X202200477Y-81692331D01*
X202227674Y-81703227D01*
X202234598Y-81704743D01*
X202242923Y-81693549D01*
X202259346Y-81661917D01*
X202282643Y-81612765D01*
X202311586Y-81549010D01*
X202344950Y-81473571D01*
X202381509Y-81389364D01*
X202420036Y-81299308D01*
X202459306Y-81206321D01*
X202498092Y-81113320D01*
X202535170Y-81023223D01*
X202569311Y-80938948D01*
X202599292Y-80863413D01*
X202623884Y-80799534D01*
X202641864Y-80750231D01*
X202652003Y-80718421D01*
X202653634Y-80707496D01*
X202640709Y-80693561D01*
X202612411Y-80670940D01*
X202574654Y-80644333D01*
X202571485Y-80642228D01*
X202473900Y-80564114D01*
X202395214Y-80472982D01*
X202336109Y-80371745D01*
X202297268Y-80263318D01*
X202279372Y-80150614D01*
X202283103Y-80036548D01*
X202309143Y-79924034D01*
X202358175Y-79815985D01*
X202372600Y-79792345D01*
X202447631Y-79696887D01*
X202536270Y-79620232D01*
X202635451Y-79562780D01*
X202742105Y-79524929D01*
X202853164Y-79507078D01*
X202965561Y-79509625D01*
X203076227Y-79532970D01*
X203182094Y-79577510D01*
X203280095Y-79643645D01*
X203310410Y-79670487D01*
X203387562Y-79754512D01*
X203443782Y-79842966D01*
X203482347Y-79942115D01*
X203503826Y-80040303D01*
X203509128Y-80150697D01*
X203491448Y-80261640D01*
X203452581Y-80369381D01*
X203394323Y-80470169D01*
X203318469Y-80560256D01*
X203226817Y-80635892D01*
X203214772Y-80643864D01*
X203176611Y-80669974D01*
X203147601Y-80692595D01*
X203133732Y-80707039D01*
X203133531Y-80707496D01*
X203136508Y-80723121D01*
X203148311Y-80758582D01*
X203167714Y-80810962D01*
X203193488Y-80877345D01*
X203224409Y-80954814D01*
X203259249Y-81040450D01*
X203296783Y-81131337D01*
X203335783Y-81224559D01*
X203375023Y-81317197D01*
X203413276Y-81406335D01*
X203449317Y-81489055D01*
X203481917Y-81562441D01*
X203509852Y-81623575D01*
X203531895Y-81669541D01*
X203546818Y-81697421D01*
X203552828Y-81704743D01*
X203571191Y-81699041D01*
X203605552Y-81683749D01*
X203649984Y-81661599D01*
X203674417Y-81648650D01*
X203778178Y-81592547D01*
X203901787Y-81676155D01*
X203964886Y-81718987D01*
X204033970Y-81766122D01*
X204098707Y-81810503D01*
X204131134Y-81832852D01*
X204176741Y-81863477D01*
X204215360Y-81887747D01*
X204241952Y-81902587D01*
X204250590Y-81905724D01*
X204263161Y-81897261D01*
X204290984Y-81873636D01*
X204331361Y-81837302D01*
X204381595Y-81790711D01*
X204438988Y-81736317D01*
X204475286Y-81701392D01*
X204538790Y-81638996D01*
X204593673Y-81583188D01*
X204637714Y-81536354D01*
X204668695Y-81500882D01*
X204684398Y-81479161D01*
X204685905Y-81474752D01*
X204678914Y-81457985D01*
X204659594Y-81424082D01*
X204630091Y-81376476D01*
X204592545Y-81318599D01*
X204549100Y-81253884D01*
X204536745Y-81235842D01*
X204491727Y-81170267D01*
X204451340Y-81111228D01*
X204417840Y-81062042D01*
X204393486Y-81026028D01*
X204380536Y-81006502D01*
X204379285Y-81004483D01*
X204381156Y-80988922D01*
X204391087Y-80954709D01*
X204407347Y-80906355D01*
X204428205Y-80848371D01*
X204451927Y-80785270D01*
X204476784Y-80721563D01*
X204501042Y-80661761D01*
X204522971Y-80610376D01*
X204540838Y-80571919D01*
X204552913Y-80550902D01*
X204553771Y-80549894D01*
X204561154Y-80543888D01*
X204573625Y-80537948D01*
X204593920Y-80531460D01*
X204624778Y-80523809D01*
X204668934Y-80514380D01*
X204729126Y-80502559D01*
X204808093Y-80487729D01*
X204908570Y-80469277D01*
X204930325Y-80465310D01*
X204994802Y-80452853D01*
X205051011Y-80440666D01*
X205093987Y-80429926D01*
X205118760Y-80421809D01*
X205122082Y-80419916D01*
X205127556Y-80403138D01*
X205132006Y-80365645D01*
X205135428Y-80311794D01*
X205137819Y-80245944D01*
X205139177Y-80172453D01*
X205139499Y-80095680D01*
X205138781Y-80019983D01*
X205137021Y-79949720D01*
X205134216Y-79889250D01*
X205130362Y-79842930D01*
X205125457Y-79815119D01*
X205122500Y-79809427D01*
X205106037Y-79803686D01*
X205068551Y-79794345D01*
X205013775Y-79782215D01*
X204945445Y-79768107D01*
X204867294Y-79752830D01*
X204824716Y-79744823D01*
X204743929Y-79729721D01*
X204671887Y-79716040D01*
X204612111Y-79704467D01*
X204568121Y-79695687D01*
X204543439Y-79690387D01*
X204539377Y-79689212D01*
X204532511Y-79675965D01*
X204517998Y-79644057D01*
X204497771Y-79598047D01*
X204473766Y-79542492D01*
X204447918Y-79481953D01*
X204422160Y-79420986D01*
X204398427Y-79364151D01*
X204378654Y-79316006D01*
X204364776Y-79281110D01*
X204358726Y-79264021D01*
X204358614Y-79263274D01*
X204365472Y-79249793D01*
X204384698Y-79218770D01*
X204414272Y-79173289D01*
X204452173Y-79116432D01*
X204496380Y-79051283D01*
X204522079Y-79013862D01*
X204568907Y-78945247D01*
X204610499Y-78882952D01*
X204644825Y-78830129D01*
X204669857Y-78789927D01*
X204683565Y-78765500D01*
X204685544Y-78760024D01*
X204677034Y-78747278D01*
X204653507Y-78720063D01*
X204617968Y-78681428D01*
X204573423Y-78634423D01*
X204522877Y-78582095D01*
X204469336Y-78527495D01*
X204415805Y-78473670D01*
X204365289Y-78423670D01*
X204320794Y-78380543D01*
X204285325Y-78347339D01*
X204261887Y-78327106D01*
X204254046Y-78322278D01*
X204241280Y-78329067D01*
X204210744Y-78348142D01*
X204165410Y-78377561D01*
X204108244Y-78415381D01*
X204042216Y-78459661D01*
X203992410Y-78493395D01*
X203740764Y-78664512D01*
X203531001Y-78578041D01*
X203321237Y-78491570D01*
X203264389Y-78190018D01*
X203207540Y-77888466D01*
X202579885Y-77888466D01*
X202523036Y-78190018D01*
X202523036Y-78190018D01*
G37*
X202523036Y-78190018D02*
X202466188Y-78491570D01*
X202046662Y-78664512D01*
X201795016Y-78493395D01*
X201724542Y-78445750D01*
X201660837Y-78403210D01*
X201606874Y-78367715D01*
X201565627Y-78341210D01*
X201540066Y-78325636D01*
X201533105Y-78322278D01*
X201520565Y-78330914D01*
X201493769Y-78354792D01*
X201455720Y-78390859D01*
X201409421Y-78436067D01*
X201357877Y-78487364D01*
X201304091Y-78541701D01*
X201251065Y-78596028D01*
X201201805Y-78647295D01*
X201159313Y-78692451D01*
X201126593Y-78728446D01*
X201106649Y-78752230D01*
X201101881Y-78760190D01*
X201108743Y-78774865D01*
X201127980Y-78807014D01*
X201157570Y-78853492D01*
X201195490Y-78911156D01*
X201239718Y-78976860D01*
X201265346Y-79014336D01*
X201312059Y-79082768D01*
X201353568Y-79144520D01*
X201387860Y-79196519D01*
X201412920Y-79235692D01*
X201426736Y-79258965D01*
X201428812Y-79263855D01*
X201424105Y-79277755D01*
X201411277Y-79310150D01*
X201392262Y-79356485D01*
X201368997Y-79412206D01*
X201343416Y-79472758D01*
X201317455Y-79533586D01*
X201293050Y-79590136D01*
X201272137Y-79637852D01*
X201256651Y-79672181D01*
X201248528Y-79688568D01*
X201248048Y-79689212D01*
X201235293Y-79692341D01*
X201201323Y-79699321D01*
X201149660Y-79709467D01*
X201083824Y-79722092D01*
X201007336Y-79736509D01*
X200962710Y-79744823D01*
X200880979Y-79760384D01*
X200807157Y-79775192D01*
X200744979Y-79788436D01*
X200698178Y-79799305D01*
X200670491Y-79806989D01*
X200664926Y-79809427D01*
X200659474Y-79825930D01*
X200655076Y-79863200D01*
X200651728Y-79916880D01*
X200649426Y-79982612D01*
X200648168Y-80056037D01*
X200647952Y-80132796D01*
X200648773Y-80208532D01*
X200650629Y-80278886D01*
X200653518Y-80339500D01*
X200657435Y-80386016D01*
X200662378Y-80414075D01*
X200665343Y-80419916D01*
X200683066Y-80426917D01*
X200720619Y-80436927D01*
X200773036Y-80448769D01*
X200835348Y-80461267D01*
X200857100Y-80465310D01*
X200961976Y-80484520D01*
X201044820Y-80499991D01*
X201108370Y-80512337D01*
X201155363Y-80522173D01*
X201188537Y-80530114D01*
X201210629Y-80536776D01*
X201224376Y-80542773D01*
X201232516Y-80548719D01*
X201233655Y-80549894D01*
X201245023Y-80568826D01*
X201262365Y-80605669D01*
X201283950Y-80655913D01*
X201308046Y-80715046D01*
X201332921Y-80778556D01*
X201356843Y-80841932D01*
X201378081Y-80900662D01*
X201394903Y-80950235D01*
X201405578Y-80986139D01*
X201408373Y-81003862D01*
X201408140Y-81004483D01*
X201398669Y-81018970D01*
X201377182Y-81050844D01*
X201345937Y-81096789D01*
X201307193Y-81153485D01*
X201263207Y-81217617D01*
X201250681Y-81235842D01*
X201206016Y-81301914D01*
X201166712Y-81362200D01*
X201134912Y-81413235D01*
X201112755Y-81451560D01*
X201102383Y-81473711D01*
X201101881Y-81476432D01*
X201110595Y-81490736D01*
X201134675Y-81519072D01*
X201171024Y-81558396D01*
X201216547Y-81605661D01*
X201268148Y-81657823D01*
X201322733Y-81711835D01*
X201377206Y-81764653D01*
X201428471Y-81813231D01*
X201473433Y-81854523D01*
X201508996Y-81885485D01*
X201532065Y-81903070D01*
X201538446Y-81905941D01*
X201553301Y-81899178D01*
X201583714Y-81880939D01*
X201624732Y-81854297D01*
X201656291Y-81832852D01*
X201713475Y-81793503D01*
X201781194Y-81747171D01*
X201849120Y-81700913D01*
X201885639Y-81676155D01*
X202009248Y-81592547D01*
X202113009Y-81648650D01*
X202160280Y-81673228D01*
X202200477Y-81692331D01*
X202227674Y-81703227D01*
X202234598Y-81704743D01*
X202242923Y-81693549D01*
X202259346Y-81661917D01*
X202282643Y-81612765D01*
X202311586Y-81549010D01*
X202344950Y-81473571D01*
X202381509Y-81389364D01*
X202420036Y-81299308D01*
X202459306Y-81206321D01*
X202498092Y-81113320D01*
X202535170Y-81023223D01*
X202569311Y-80938948D01*
X202599292Y-80863413D01*
X202623884Y-80799534D01*
X202641864Y-80750231D01*
X202652003Y-80718421D01*
X202653634Y-80707496D01*
X202640709Y-80693561D01*
X202612411Y-80670940D01*
X202574654Y-80644333D01*
X202571485Y-80642228D01*
X202473900Y-80564114D01*
X202395214Y-80472982D01*
X202336109Y-80371745D01*
X202297268Y-80263318D01*
X202279372Y-80150614D01*
X202283103Y-80036548D01*
X202309143Y-79924034D01*
X202358175Y-79815985D01*
X202372600Y-79792345D01*
X202447631Y-79696887D01*
X202536270Y-79620232D01*
X202635451Y-79562780D01*
X202742105Y-79524929D01*
X202853164Y-79507078D01*
X202965561Y-79509625D01*
X203076227Y-79532970D01*
X203182094Y-79577510D01*
X203280095Y-79643645D01*
X203310410Y-79670487D01*
X203387562Y-79754512D01*
X203443782Y-79842966D01*
X203482347Y-79942115D01*
X203503826Y-80040303D01*
X203509128Y-80150697D01*
X203491448Y-80261640D01*
X203452581Y-80369381D01*
X203394323Y-80470169D01*
X203318469Y-80560256D01*
X203226817Y-80635892D01*
X203214772Y-80643864D01*
X203176611Y-80669974D01*
X203147601Y-80692595D01*
X203133732Y-80707039D01*
X203133531Y-80707496D01*
X203136508Y-80723121D01*
X203148311Y-80758582D01*
X203167714Y-80810962D01*
X203193488Y-80877345D01*
X203224409Y-80954814D01*
X203259249Y-81040450D01*
X203296783Y-81131337D01*
X203335783Y-81224559D01*
X203375023Y-81317197D01*
X203413276Y-81406335D01*
X203449317Y-81489055D01*
X203481917Y-81562441D01*
X203509852Y-81623575D01*
X203531895Y-81669541D01*
X203546818Y-81697421D01*
X203552828Y-81704743D01*
X203571191Y-81699041D01*
X203605552Y-81683749D01*
X203649984Y-81661599D01*
X203674417Y-81648650D01*
X203778178Y-81592547D01*
X203901787Y-81676155D01*
X203964886Y-81718987D01*
X204033970Y-81766122D01*
X204098707Y-81810503D01*
X204131134Y-81832852D01*
X204176741Y-81863477D01*
X204215360Y-81887747D01*
X204241952Y-81902587D01*
X204250590Y-81905724D01*
X204263161Y-81897261D01*
X204290984Y-81873636D01*
X204331361Y-81837302D01*
X204381595Y-81790711D01*
X204438988Y-81736317D01*
X204475286Y-81701392D01*
X204538790Y-81638996D01*
X204593673Y-81583188D01*
X204637714Y-81536354D01*
X204668695Y-81500882D01*
X204684398Y-81479161D01*
X204685905Y-81474752D01*
X204678914Y-81457985D01*
X204659594Y-81424082D01*
X204630091Y-81376476D01*
X204592545Y-81318599D01*
X204549100Y-81253884D01*
X204536745Y-81235842D01*
X204491727Y-81170267D01*
X204451340Y-81111228D01*
X204417840Y-81062042D01*
X204393486Y-81026028D01*
X204380536Y-81006502D01*
X204379285Y-81004483D01*
X204381156Y-80988922D01*
X204391087Y-80954709D01*
X204407347Y-80906355D01*
X204428205Y-80848371D01*
X204451927Y-80785270D01*
X204476784Y-80721563D01*
X204501042Y-80661761D01*
X204522971Y-80610376D01*
X204540838Y-80571919D01*
X204552913Y-80550902D01*
X204553771Y-80549894D01*
X204561154Y-80543888D01*
X204573625Y-80537948D01*
X204593920Y-80531460D01*
X204624778Y-80523809D01*
X204668934Y-80514380D01*
X204729126Y-80502559D01*
X204808093Y-80487729D01*
X204908570Y-80469277D01*
X204930325Y-80465310D01*
X204994802Y-80452853D01*
X205051011Y-80440666D01*
X205093987Y-80429926D01*
X205118760Y-80421809D01*
X205122082Y-80419916D01*
X205127556Y-80403138D01*
X205132006Y-80365645D01*
X205135428Y-80311794D01*
X205137819Y-80245944D01*
X205139177Y-80172453D01*
X205139499Y-80095680D01*
X205138781Y-80019983D01*
X205137021Y-79949720D01*
X205134216Y-79889250D01*
X205130362Y-79842930D01*
X205125457Y-79815119D01*
X205122500Y-79809427D01*
X205106037Y-79803686D01*
X205068551Y-79794345D01*
X205013775Y-79782215D01*
X204945445Y-79768107D01*
X204867294Y-79752830D01*
X204824716Y-79744823D01*
X204743929Y-79729721D01*
X204671887Y-79716040D01*
X204612111Y-79704467D01*
X204568121Y-79695687D01*
X204543439Y-79690387D01*
X204539377Y-79689212D01*
X204532511Y-79675965D01*
X204517998Y-79644057D01*
X204497771Y-79598047D01*
X204473766Y-79542492D01*
X204447918Y-79481953D01*
X204422160Y-79420986D01*
X204398427Y-79364151D01*
X204378654Y-79316006D01*
X204364776Y-79281110D01*
X204358726Y-79264021D01*
X204358614Y-79263274D01*
X204365472Y-79249793D01*
X204384698Y-79218770D01*
X204414272Y-79173289D01*
X204452173Y-79116432D01*
X204496380Y-79051283D01*
X204522079Y-79013862D01*
X204568907Y-78945247D01*
X204610499Y-78882952D01*
X204644825Y-78830129D01*
X204669857Y-78789927D01*
X204683565Y-78765500D01*
X204685544Y-78760024D01*
X204677034Y-78747278D01*
X204653507Y-78720063D01*
X204617968Y-78681428D01*
X204573423Y-78634423D01*
X204522877Y-78582095D01*
X204469336Y-78527495D01*
X204415805Y-78473670D01*
X204365289Y-78423670D01*
X204320794Y-78380543D01*
X204285325Y-78347339D01*
X204261887Y-78327106D01*
X204254046Y-78322278D01*
X204241280Y-78329067D01*
X204210744Y-78348142D01*
X204165410Y-78377561D01*
X204108244Y-78415381D01*
X204042216Y-78459661D01*
X203992410Y-78493395D01*
X203740764Y-78664512D01*
X203531001Y-78578041D01*
X203321237Y-78491570D01*
X203264389Y-78190018D01*
X203207540Y-77888466D01*
X202579885Y-77888466D01*
X202523036Y-78190018D01*
G36*
X201100540Y-82358030D02*
G01*
X201057289Y-82371245D01*
X201029442Y-82387941D01*
X201020371Y-82401145D01*
X201022868Y-82416797D01*
X201039069Y-82441385D01*
X201052768Y-82458800D01*
X201081008Y-82490283D01*
X201102225Y-82503529D01*
X201120312Y-82502664D01*
X201173965Y-82489010D01*
X201213370Y-82489630D01*
X201245368Y-82505104D01*
X201256110Y-82514161D01*
X201290495Y-82546027D01*
X201290495Y-82962179D01*
X201428812Y-82962179D01*
X201428812Y-82358614D01*
X201359653Y-82358614D01*
X201318131Y-82360256D01*
X201296709Y-82366087D01*
X201290498Y-82377461D01*
X201290495Y-82377798D01*
X201287561Y-82389713D01*
X201274296Y-82388159D01*
X201255916Y-82379563D01*
X201217954Y-82363568D01*
X201187128Y-82353945D01*
X201147464Y-82351478D01*
X201100540Y-82358030D01*
X201100540Y-82358030D01*
G37*
X201100540Y-82358030D02*
X201057289Y-82371245D01*
X201029442Y-82387941D01*
X201020371Y-82401145D01*
X201022868Y-82416797D01*
X201039069Y-82441385D01*
X201052768Y-82458800D01*
X201081008Y-82490283D01*
X201102225Y-82503529D01*
X201120312Y-82502664D01*
X201173965Y-82489010D01*
X201213370Y-82489630D01*
X201245368Y-82505104D01*
X201256110Y-82514161D01*
X201290495Y-82546027D01*
X201290495Y-82962179D01*
X201428812Y-82962179D01*
X201428812Y-82358614D01*
X201359653Y-82358614D01*
X201318131Y-82360256D01*
X201296709Y-82366087D01*
X201290498Y-82377461D01*
X201290495Y-82377798D01*
X201287561Y-82389713D01*
X201274296Y-82388159D01*
X201255916Y-82379563D01*
X201217954Y-82363568D01*
X201187128Y-82353945D01*
X201147464Y-82351478D01*
X201100540Y-82358030D01*
G36*
X203654012Y-82369002D02*
G01*
X203622717Y-82383950D01*
X203592409Y-82405541D01*
X203569318Y-82430391D01*
X203552500Y-82462087D01*
X203541006Y-82504214D01*
X203533891Y-82560358D01*
X203530207Y-82634106D01*
X203529008Y-82729044D01*
X203528989Y-82738985D01*
X203528713Y-82962179D01*
X203667030Y-82962179D01*
X203667030Y-82756418D01*
X203667128Y-82680189D01*
X203667809Y-82624939D01*
X203669651Y-82586501D01*
X203673233Y-82560706D01*
X203679132Y-82543384D01*
X203687927Y-82530368D01*
X203700180Y-82517507D01*
X203743047Y-82489873D01*
X203789843Y-82484745D01*
X203834424Y-82502217D01*
X203849928Y-82515221D01*
X203861310Y-82527447D01*
X203869481Y-82540540D01*
X203874974Y-82558615D01*
X203878320Y-82585787D01*
X203880051Y-82626170D01*
X203880697Y-82683879D01*
X203880792Y-82754132D01*
X203880792Y-82962179D01*
X204019109Y-82962179D01*
X204019109Y-82358614D01*
X203949950Y-82358614D01*
X203908428Y-82360256D01*
X203887006Y-82366087D01*
X203880795Y-82377461D01*
X203880792Y-82377798D01*
X203877910Y-82388938D01*
X203865199Y-82387674D01*
X203839926Y-82375434D01*
X203782605Y-82357424D01*
X203717037Y-82355421D01*
X203654012Y-82369002D01*
X203654012Y-82369002D01*
G37*
X203654012Y-82369002D02*
X203622717Y-82383950D01*
X203592409Y-82405541D01*
X203569318Y-82430391D01*
X203552500Y-82462087D01*
X203541006Y-82504214D01*
X203533891Y-82560358D01*
X203530207Y-82634106D01*
X203529008Y-82729044D01*
X203528989Y-82738985D01*
X203528713Y-82962179D01*
X203667030Y-82962179D01*
X203667030Y-82756418D01*
X203667128Y-82680189D01*
X203667809Y-82624939D01*
X203669651Y-82586501D01*
X203673233Y-82560706D01*
X203679132Y-82543384D01*
X203687927Y-82530368D01*
X203700180Y-82517507D01*
X203743047Y-82489873D01*
X203789843Y-82484745D01*
X203834424Y-82502217D01*
X203849928Y-82515221D01*
X203861310Y-82527447D01*
X203869481Y-82540540D01*
X203874974Y-82558615D01*
X203878320Y-82585787D01*
X203880051Y-82626170D01*
X203880697Y-82683879D01*
X203880792Y-82754132D01*
X203880792Y-82962179D01*
X204019109Y-82962179D01*
X204019109Y-82358614D01*
X203949950Y-82358614D01*
X203908428Y-82360256D01*
X203887006Y-82366087D01*
X203880795Y-82377461D01*
X203880792Y-82377798D01*
X203877910Y-82388938D01*
X203865199Y-82387674D01*
X203839926Y-82375434D01*
X203782605Y-82357424D01*
X203717037Y-82355421D01*
X203654012Y-82369002D01*
G36*
X200222102Y-82356457D02*
G01*
X200189904Y-82364279D01*
X200128175Y-82392921D01*
X200075390Y-82436667D01*
X200038859Y-82489117D01*
X200033840Y-82500893D01*
X200026955Y-82531740D01*
X200022136Y-82577371D01*
X200020495Y-82623492D01*
X200020495Y-82710693D01*
X200202822Y-82710693D01*
X200278021Y-82710978D01*
X200330997Y-82712704D01*
X200364675Y-82717181D01*
X200381980Y-82725720D01*
X200385837Y-82739630D01*
X200379171Y-82760222D01*
X200367230Y-82784315D01*
X200333920Y-82824525D01*
X200287632Y-82844558D01*
X200231056Y-82843905D01*
X200166969Y-82822101D01*
X200111583Y-82795193D01*
X200065625Y-82831532D01*
X200019667Y-82867872D01*
X200062904Y-82907819D01*
X200120626Y-82945563D01*
X200191614Y-82968320D01*
X200267971Y-82974688D01*
X200341801Y-82963268D01*
X200353713Y-82959393D01*
X200418601Y-82925506D01*
X200466870Y-82874986D01*
X200499535Y-82806325D01*
X200517615Y-82718014D01*
X200517825Y-82716121D01*
X200519444Y-82619878D01*
X200512900Y-82585542D01*
X200385148Y-82585542D01*
X200373416Y-82590822D01*
X200341562Y-82594867D01*
X200294603Y-82597176D01*
X200264846Y-82597525D01*
X200209352Y-82597306D01*
X200174654Y-82595916D01*
X200156399Y-82592251D01*
X200150234Y-82585210D01*
X200151805Y-82573690D01*
X200153122Y-82569233D01*
X200175618Y-82527355D01*
X200210997Y-82493604D01*
X200242220Y-82478773D01*
X200283699Y-82479668D01*
X200325731Y-82498164D01*
X200360988Y-82528786D01*
X200382146Y-82566062D01*
X200385148Y-82585542D01*
X200512900Y-82585542D01*
X200503310Y-82535229D01*
X200471302Y-82464191D01*
X200425299Y-82408779D01*
X200367179Y-82371009D01*
X200298820Y-82352896D01*
X200222102Y-82356457D01*
X200222102Y-82356457D01*
G37*
X200222102Y-82356457D02*
X200189904Y-82364279D01*
X200128175Y-82392921D01*
X200075390Y-82436667D01*
X200038859Y-82489117D01*
X200033840Y-82500893D01*
X200026955Y-82531740D01*
X200022136Y-82577371D01*
X200020495Y-82623492D01*
X200020495Y-82710693D01*
X200202822Y-82710693D01*
X200278021Y-82710978D01*
X200330997Y-82712704D01*
X200364675Y-82717181D01*
X200381980Y-82725720D01*
X200385837Y-82739630D01*
X200379171Y-82760222D01*
X200367230Y-82784315D01*
X200333920Y-82824525D01*
X200287632Y-82844558D01*
X200231056Y-82843905D01*
X200166969Y-82822101D01*
X200111583Y-82795193D01*
X200065625Y-82831532D01*
X200019667Y-82867872D01*
X200062904Y-82907819D01*
X200120626Y-82945563D01*
X200191614Y-82968320D01*
X200267971Y-82974688D01*
X200341801Y-82963268D01*
X200353713Y-82959393D01*
X200418601Y-82925506D01*
X200466870Y-82874986D01*
X200499535Y-82806325D01*
X200517615Y-82718014D01*
X200517825Y-82716121D01*
X200519444Y-82619878D01*
X200512900Y-82585542D01*
X200385148Y-82585542D01*
X200373416Y-82590822D01*
X200341562Y-82594867D01*
X200294603Y-82597176D01*
X200264846Y-82597525D01*
X200209352Y-82597306D01*
X200174654Y-82595916D01*
X200156399Y-82592251D01*
X200150234Y-82585210D01*
X200151805Y-82573690D01*
X200153122Y-82569233D01*
X200175618Y-82527355D01*
X200210997Y-82493604D01*
X200242220Y-82478773D01*
X200283699Y-82479668D01*
X200325731Y-82498164D01*
X200360988Y-82528786D01*
X200382146Y-82566062D01*
X200385148Y-82585542D01*
X200512900Y-82585542D01*
X200503310Y-82535229D01*
X200471302Y-82464191D01*
X200425299Y-82408779D01*
X200367179Y-82371009D01*
X200298820Y-82352896D01*
X200222102Y-82356457D01*
G36*
X200682774Y-82363880D02*
G01*
X200609920Y-82394830D01*
X200586973Y-82409895D01*
X200557646Y-82433048D01*
X200539236Y-82451253D01*
X200536039Y-82457183D01*
X200545065Y-82470340D01*
X200568163Y-82492667D01*
X200586656Y-82508250D01*
X200637272Y-82548926D01*
X200677240Y-82515295D01*
X200708126Y-82493584D01*
X200738241Y-82486090D01*
X200772708Y-82487920D01*
X200827439Y-82501528D01*
X200865114Y-82529772D01*
X200888009Y-82575433D01*
X200898403Y-82641289D01*
X200898405Y-82641331D01*
X200897506Y-82714939D01*
X200883537Y-82768946D01*
X200855672Y-82805716D01*
X200836675Y-82818168D01*
X200786224Y-82833673D01*
X200732337Y-82833683D01*
X200685454Y-82818638D01*
X200674356Y-82811287D01*
X200646524Y-82792511D01*
X200624764Y-82789434D01*
X200601296Y-82803409D01*
X200575351Y-82828510D01*
X200534284Y-82870880D01*
X200579879Y-82908464D01*
X200650326Y-82950882D01*
X200729767Y-82971785D01*
X200812785Y-82970272D01*
X200867306Y-82956411D01*
X200931030Y-82922135D01*
X200981995Y-82868212D01*
X201005149Y-82830149D01*
X201023901Y-82775536D01*
X201033285Y-82706369D01*
X201033357Y-82631407D01*
X201024176Y-82559409D01*
X201005801Y-82499137D01*
X201002907Y-82492958D01*
X200960048Y-82432351D01*
X200902021Y-82388224D01*
X200833409Y-82361493D01*
X200758799Y-82353073D01*
X200682774Y-82363880D01*
X200682774Y-82363880D01*
G37*
X200682774Y-82363880D02*
X200609920Y-82394830D01*
X200586973Y-82409895D01*
X200557646Y-82433048D01*
X200539236Y-82451253D01*
X200536039Y-82457183D01*
X200545065Y-82470340D01*
X200568163Y-82492667D01*
X200586656Y-82508250D01*
X200637272Y-82548926D01*
X200677240Y-82515295D01*
X200708126Y-82493584D01*
X200738241Y-82486090D01*
X200772708Y-82487920D01*
X200827439Y-82501528D01*
X200865114Y-82529772D01*
X200888009Y-82575433D01*
X200898403Y-82641289D01*
X200898405Y-82641331D01*
X200897506Y-82714939D01*
X200883537Y-82768946D01*
X200855672Y-82805716D01*
X200836675Y-82818168D01*
X200786224Y-82833673D01*
X200732337Y-82833683D01*
X200685454Y-82818638D01*
X200674356Y-82811287D01*
X200646524Y-82792511D01*
X200624764Y-82789434D01*
X200601296Y-82803409D01*
X200575351Y-82828510D01*
X200534284Y-82870880D01*
X200579879Y-82908464D01*
X200650326Y-82950882D01*
X200729767Y-82971785D01*
X200812785Y-82970272D01*
X200867306Y-82956411D01*
X200931030Y-82922135D01*
X200981995Y-82868212D01*
X201005149Y-82830149D01*
X201023901Y-82775536D01*
X201033285Y-82706369D01*
X201033357Y-82631407D01*
X201024176Y-82559409D01*
X201005801Y-82499137D01*
X201002907Y-82492958D01*
X200960048Y-82432351D01*
X200902021Y-82388224D01*
X200833409Y-82361493D01*
X200758799Y-82353073D01*
X200682774Y-82363880D01*
G36*
X201906633Y-82554342D02*
G01*
X201905445Y-82646563D01*
X201901103Y-82716610D01*
X201892442Y-82767381D01*
X201878296Y-82801772D01*
X201857500Y-82822679D01*
X201828890Y-82833000D01*
X201793465Y-82835636D01*
X201756364Y-82832682D01*
X201728182Y-82821889D01*
X201707757Y-82800360D01*
X201693921Y-82765199D01*
X201685509Y-82713510D01*
X201681357Y-82642394D01*
X201680297Y-82554342D01*
X201680297Y-82358614D01*
X201541980Y-82358614D01*
X201541980Y-82962179D01*
X201611138Y-82962179D01*
X201652830Y-82960489D01*
X201674299Y-82954556D01*
X201680297Y-82943293D01*
X201683909Y-82933261D01*
X201698286Y-82935383D01*
X201727264Y-82949580D01*
X201793681Y-82971480D01*
X201864125Y-82969928D01*
X201931623Y-82946147D01*
X201963767Y-82927362D01*
X201988285Y-82907022D01*
X202006196Y-82881573D01*
X202018521Y-82847458D01*
X202026277Y-82801121D01*
X202030484Y-82739007D01*
X202032160Y-82657561D01*
X202032376Y-82594578D01*
X202032376Y-82358614D01*
X201906633Y-82358614D01*
X201906633Y-82554342D01*
X201906633Y-82554342D01*
G37*
X201906633Y-82554342D02*
X201905445Y-82646563D01*
X201901103Y-82716610D01*
X201892442Y-82767381D01*
X201878296Y-82801772D01*
X201857500Y-82822679D01*
X201828890Y-82833000D01*
X201793465Y-82835636D01*
X201756364Y-82832682D01*
X201728182Y-82821889D01*
X201707757Y-82800360D01*
X201693921Y-82765199D01*
X201685509Y-82713510D01*
X201681357Y-82642394D01*
X201680297Y-82554342D01*
X201680297Y-82358614D01*
X201541980Y-82358614D01*
X201541980Y-82962179D01*
X201611138Y-82962179D01*
X201652830Y-82960489D01*
X201674299Y-82954556D01*
X201680297Y-82943293D01*
X201683909Y-82933261D01*
X201698286Y-82935383D01*
X201727264Y-82949580D01*
X201793681Y-82971480D01*
X201864125Y-82969928D01*
X201931623Y-82946147D01*
X201963767Y-82927362D01*
X201988285Y-82907022D01*
X202006196Y-82881573D01*
X202018521Y-82847458D01*
X202026277Y-82801121D01*
X202030484Y-82739007D01*
X202032160Y-82657561D01*
X202032376Y-82594578D01*
X202032376Y-82358614D01*
X201906633Y-82358614D01*
X201906633Y-82554342D01*
G36*
X202289238Y-82366055D02*
G01*
X202225637Y-82400692D01*
X202175877Y-82455372D01*
X202152432Y-82499842D01*
X202142366Y-82539121D01*
X202135844Y-82595116D01*
X202133049Y-82659621D01*
X202134164Y-82724429D01*
X202139374Y-82781334D01*
X202145459Y-82811727D01*
X202165986Y-82853306D01*
X202201537Y-82897468D01*
X202244381Y-82936087D01*
X202286789Y-82961034D01*
X202287823Y-82961430D01*
X202340447Y-82972331D01*
X202402812Y-82972601D01*
X202462076Y-82962676D01*
X202484960Y-82954722D01*
X202543898Y-82921300D01*
X202586110Y-82877511D01*
X202613844Y-82819538D01*
X202629349Y-82743565D01*
X202632857Y-82703771D01*
X202632410Y-82653766D01*
X202497624Y-82653766D01*
X202493083Y-82726732D01*
X202480014Y-82782334D01*
X202459244Y-82817861D01*
X202444448Y-82828020D01*
X202406536Y-82835104D01*
X202361473Y-82833007D01*
X202322513Y-82822812D01*
X202312296Y-82817204D01*
X202285341Y-82784538D01*
X202267549Y-82734545D01*
X202259976Y-82673705D01*
X202263675Y-82608497D01*
X202271943Y-82569253D01*
X202295680Y-82523805D01*
X202333151Y-82495396D01*
X202378280Y-82485573D01*
X202424989Y-82495887D01*
X202460868Y-82521112D01*
X202479723Y-82541925D01*
X202490728Y-82562439D01*
X202495974Y-82590203D01*
X202497551Y-82632762D01*
X202497624Y-82653766D01*
X202632410Y-82653766D01*
X202631906Y-82597580D01*
X202614612Y-82510501D01*
X202580971Y-82442530D01*
X202530982Y-82393664D01*
X202464644Y-82363899D01*
X202450399Y-82360448D01*
X202364790Y-82352345D01*
X202289238Y-82366055D01*
X202289238Y-82366055D01*
G37*
X202289238Y-82366055D02*
X202225637Y-82400692D01*
X202175877Y-82455372D01*
X202152432Y-82499842D01*
X202142366Y-82539121D01*
X202135844Y-82595116D01*
X202133049Y-82659621D01*
X202134164Y-82724429D01*
X202139374Y-82781334D01*
X202145459Y-82811727D01*
X202165986Y-82853306D01*
X202201537Y-82897468D01*
X202244381Y-82936087D01*
X202286789Y-82961034D01*
X202287823Y-82961430D01*
X202340447Y-82972331D01*
X202402812Y-82972601D01*
X202462076Y-82962676D01*
X202484960Y-82954722D01*
X202543898Y-82921300D01*
X202586110Y-82877511D01*
X202613844Y-82819538D01*
X202629349Y-82743565D01*
X202632857Y-82703771D01*
X202632410Y-82653766D01*
X202497624Y-82653766D01*
X202493083Y-82726732D01*
X202480014Y-82782334D01*
X202459244Y-82817861D01*
X202444448Y-82828020D01*
X202406536Y-82835104D01*
X202361473Y-82833007D01*
X202322513Y-82822812D01*
X202312296Y-82817204D01*
X202285341Y-82784538D01*
X202267549Y-82734545D01*
X202259976Y-82673705D01*
X202263675Y-82608497D01*
X202271943Y-82569253D01*
X202295680Y-82523805D01*
X202333151Y-82495396D01*
X202378280Y-82485573D01*
X202424989Y-82495887D01*
X202460868Y-82521112D01*
X202479723Y-82541925D01*
X202490728Y-82562439D01*
X202495974Y-82590203D01*
X202497551Y-82632762D01*
X202497624Y-82653766D01*
X202632410Y-82653766D01*
X202631906Y-82597580D01*
X202614612Y-82510501D01*
X202580971Y-82442530D01*
X202530982Y-82393664D01*
X202464644Y-82363899D01*
X202450399Y-82360448D01*
X202364790Y-82352345D01*
X202289238Y-82366055D01*
G36*
X202885983Y-82356452D02*
G01*
X202838366Y-82365482D01*
X202788966Y-82384370D01*
X202783688Y-82386777D01*
X202746226Y-82406476D01*
X202720283Y-82424781D01*
X202711897Y-82436508D01*
X202719883Y-82455632D01*
X202739280Y-82483850D01*
X202747890Y-82494384D01*
X202783372Y-82535847D01*
X202829115Y-82508858D01*
X202872650Y-82490878D01*
X202922950Y-82481267D01*
X202971188Y-82480660D01*
X203008533Y-82489691D01*
X203017495Y-82495327D01*
X203034563Y-82521171D01*
X203036637Y-82550941D01*
X203023866Y-82574197D01*
X203016312Y-82578708D01*
X202993675Y-82584309D01*
X202953885Y-82590892D01*
X202904834Y-82597183D01*
X202895785Y-82598170D01*
X202817004Y-82611798D01*
X202759864Y-82634946D01*
X202721970Y-82669752D01*
X202700921Y-82718354D01*
X202694365Y-82777718D01*
X202703423Y-82845198D01*
X202732836Y-82898188D01*
X202782722Y-82936783D01*
X202853200Y-82961081D01*
X202931435Y-82970667D01*
X202995234Y-82970552D01*
X203046984Y-82961845D01*
X203082327Y-82949825D01*
X203126983Y-82928880D01*
X203168253Y-82904574D01*
X203182921Y-82893876D01*
X203220643Y-82863084D01*
X203175148Y-82817049D01*
X203129653Y-82771013D01*
X203077928Y-82805243D01*
X203026048Y-82830952D01*
X202970649Y-82844399D01*
X202917395Y-82845818D01*
X202871951Y-82835443D01*
X202839984Y-82813507D01*
X202829662Y-82794998D01*
X202831211Y-82765314D01*
X202856860Y-82742615D01*
X202906540Y-82726940D01*
X202960969Y-82719695D01*
X203044736Y-82705873D01*
X203106967Y-82679796D01*
X203148493Y-82640699D01*
X203170147Y-82587820D01*
X203173147Y-82525126D01*
X203158329Y-82459642D01*
X203124546Y-82410144D01*
X203071495Y-82376408D01*
X202998874Y-82358207D01*
X202945072Y-82354639D01*
X202885983Y-82356452D01*
X202885983Y-82356452D01*
G37*
X202885983Y-82356452D02*
X202838366Y-82365482D01*
X202788966Y-82384370D01*
X202783688Y-82386777D01*
X202746226Y-82406476D01*
X202720283Y-82424781D01*
X202711897Y-82436508D01*
X202719883Y-82455632D01*
X202739280Y-82483850D01*
X202747890Y-82494384D01*
X202783372Y-82535847D01*
X202829115Y-82508858D01*
X202872650Y-82490878D01*
X202922950Y-82481267D01*
X202971188Y-82480660D01*
X203008533Y-82489691D01*
X203017495Y-82495327D01*
X203034563Y-82521171D01*
X203036637Y-82550941D01*
X203023866Y-82574197D01*
X203016312Y-82578708D01*
X202993675Y-82584309D01*
X202953885Y-82590892D01*
X202904834Y-82597183D01*
X202895785Y-82598170D01*
X202817004Y-82611798D01*
X202759864Y-82634946D01*
X202721970Y-82669752D01*
X202700921Y-82718354D01*
X202694365Y-82777718D01*
X202703423Y-82845198D01*
X202732836Y-82898188D01*
X202782722Y-82936783D01*
X202853200Y-82961081D01*
X202931435Y-82970667D01*
X202995234Y-82970552D01*
X203046984Y-82961845D01*
X203082327Y-82949825D01*
X203126983Y-82928880D01*
X203168253Y-82904574D01*
X203182921Y-82893876D01*
X203220643Y-82863084D01*
X203175148Y-82817049D01*
X203129653Y-82771013D01*
X203077928Y-82805243D01*
X203026048Y-82830952D01*
X202970649Y-82844399D01*
X202917395Y-82845818D01*
X202871951Y-82835443D01*
X202839984Y-82813507D01*
X202829662Y-82794998D01*
X202831211Y-82765314D01*
X202856860Y-82742615D01*
X202906540Y-82726940D01*
X202960969Y-82719695D01*
X203044736Y-82705873D01*
X203106967Y-82679796D01*
X203148493Y-82640699D01*
X203170147Y-82587820D01*
X203173147Y-82525126D01*
X203158329Y-82459642D01*
X203124546Y-82410144D01*
X203071495Y-82376408D01*
X202998874Y-82358207D01*
X202945072Y-82354639D01*
X202885983Y-82356452D01*
G36*
X204256699Y-82372614D02*
G01*
X204244168Y-82378514D01*
X204200799Y-82410283D01*
X204159790Y-82456646D01*
X204129168Y-82507696D01*
X204120459Y-82531166D01*
X204112512Y-82573091D01*
X204107774Y-82623757D01*
X204107199Y-82644679D01*
X204107129Y-82710693D01*
X204487083Y-82710693D01*
X204478983Y-82745273D01*
X204459104Y-82786170D01*
X204424347Y-82821514D01*
X204382998Y-82844282D01*
X204356649Y-82849010D01*
X204320916Y-82843273D01*
X204278282Y-82828882D01*
X204263799Y-82822262D01*
X204210240Y-82795513D01*
X204164533Y-82830376D01*
X204138158Y-82853955D01*
X204124124Y-82873417D01*
X204123414Y-82879129D01*
X204135951Y-82892973D01*
X204163428Y-82914012D01*
X204188366Y-82930425D01*
X204255664Y-82959930D01*
X204331110Y-82973284D01*
X204405888Y-82969812D01*
X204465495Y-82951663D01*
X204526941Y-82912784D01*
X204570608Y-82861595D01*
X204597926Y-82795367D01*
X204610322Y-82711371D01*
X204611421Y-82672936D01*
X204607022Y-82584861D01*
X204606482Y-82582299D01*
X204480582Y-82582299D01*
X204477115Y-82590558D01*
X204462863Y-82595113D01*
X204433470Y-82597065D01*
X204384575Y-82597517D01*
X204365748Y-82597525D01*
X204308467Y-82596843D01*
X204272141Y-82594364D01*
X204252604Y-82589443D01*
X204245690Y-82581434D01*
X204245445Y-82578862D01*
X204253336Y-82558423D01*
X204273085Y-82529789D01*
X204281575Y-82519763D01*
X204313094Y-82491408D01*
X204345949Y-82480259D01*
X204363651Y-82479327D01*
X204411539Y-82490981D01*
X204451699Y-82522285D01*
X204477173Y-82567752D01*
X204477625Y-82569233D01*
X204480582Y-82582299D01*
X204606482Y-82582299D01*
X204592392Y-82515510D01*
X204566038Y-82460025D01*
X204533807Y-82420639D01*
X204474217Y-82377931D01*
X204404168Y-82355109D01*
X204329661Y-82353046D01*
X204256699Y-82372614D01*
X204256699Y-82372614D01*
G37*
X204256699Y-82372614D02*
X204244168Y-82378514D01*
X204200799Y-82410283D01*
X204159790Y-82456646D01*
X204129168Y-82507696D01*
X204120459Y-82531166D01*
X204112512Y-82573091D01*
X204107774Y-82623757D01*
X204107199Y-82644679D01*
X204107129Y-82710693D01*
X204487083Y-82710693D01*
X204478983Y-82745273D01*
X204459104Y-82786170D01*
X204424347Y-82821514D01*
X204382998Y-82844282D01*
X204356649Y-82849010D01*
X204320916Y-82843273D01*
X204278282Y-82828882D01*
X204263799Y-82822262D01*
X204210240Y-82795513D01*
X204164533Y-82830376D01*
X204138158Y-82853955D01*
X204124124Y-82873417D01*
X204123414Y-82879129D01*
X204135951Y-82892973D01*
X204163428Y-82914012D01*
X204188366Y-82930425D01*
X204255664Y-82959930D01*
X204331110Y-82973284D01*
X204405888Y-82969812D01*
X204465495Y-82951663D01*
X204526941Y-82912784D01*
X204570608Y-82861595D01*
X204597926Y-82795367D01*
X204610322Y-82711371D01*
X204611421Y-82672936D01*
X204607022Y-82584861D01*
X204606482Y-82582299D01*
X204480582Y-82582299D01*
X204477115Y-82590558D01*
X204462863Y-82595113D01*
X204433470Y-82597065D01*
X204384575Y-82597517D01*
X204365748Y-82597525D01*
X204308467Y-82596843D01*
X204272141Y-82594364D01*
X204252604Y-82589443D01*
X204245690Y-82581434D01*
X204245445Y-82578862D01*
X204253336Y-82558423D01*
X204273085Y-82529789D01*
X204281575Y-82519763D01*
X204313094Y-82491408D01*
X204345949Y-82480259D01*
X204363651Y-82479327D01*
X204411539Y-82490981D01*
X204451699Y-82522285D01*
X204477173Y-82567752D01*
X204477625Y-82569233D01*
X204480582Y-82582299D01*
X204606482Y-82582299D01*
X204592392Y-82515510D01*
X204566038Y-82460025D01*
X204533807Y-82420639D01*
X204474217Y-82377931D01*
X204404168Y-82355109D01*
X204329661Y-82353046D01*
X204256699Y-82372614D01*
G36*
X205438261Y-82365148D02*
G01*
X205372479Y-82394231D01*
X205322540Y-82442793D01*
X205288374Y-82510908D01*
X205269907Y-82598651D01*
X205268583Y-82612351D01*
X205267546Y-82708939D01*
X205280993Y-82793602D01*
X205308108Y-82862221D01*
X205322627Y-82884294D01*
X205373201Y-82931011D01*
X205437609Y-82961268D01*
X205509666Y-82973824D01*
X205583185Y-82967439D01*
X205639072Y-82947772D01*
X205687132Y-82914629D01*
X205726412Y-82871175D01*
X205727092Y-82870158D01*
X205743044Y-82843338D01*
X205753410Y-82816368D01*
X205759688Y-82782332D01*
X205763373Y-82734310D01*
X205764997Y-82694931D01*
X205765672Y-82659219D01*
X205639955Y-82659219D01*
X205638726Y-82694770D01*
X205634266Y-82742094D01*
X205626397Y-82772465D01*
X205612207Y-82794072D01*
X205598917Y-82806694D01*
X205551802Y-82833122D01*
X205502505Y-82836653D01*
X205456593Y-82817639D01*
X205433638Y-82796331D01*
X205417096Y-82774859D01*
X205407421Y-82754313D01*
X205403174Y-82727574D01*
X205402920Y-82687523D01*
X205404228Y-82650638D01*
X205407043Y-82597947D01*
X205411505Y-82563772D01*
X205419548Y-82541480D01*
X205433103Y-82524442D01*
X205443845Y-82514703D01*
X205488777Y-82489123D01*
X205537249Y-82487847D01*
X205577894Y-82502999D01*
X205612567Y-82534642D01*
X205633224Y-82586620D01*
X205639955Y-82659219D01*
X205765672Y-82659219D01*
X205766479Y-82616621D01*
X205763948Y-82558056D01*
X205756362Y-82514007D01*
X205742681Y-82479248D01*
X205721865Y-82448551D01*
X205714147Y-82439436D01*
X205665889Y-82394021D01*
X205614128Y-82367493D01*
X205550828Y-82356379D01*
X205519961Y-82355471D01*
X205438261Y-82365148D01*
X205438261Y-82365148D01*
G37*
X205438261Y-82365148D02*
X205372479Y-82394231D01*
X205322540Y-82442793D01*
X205288374Y-82510908D01*
X205269907Y-82598651D01*
X205268583Y-82612351D01*
X205267546Y-82708939D01*
X205280993Y-82793602D01*
X205308108Y-82862221D01*
X205322627Y-82884294D01*
X205373201Y-82931011D01*
X205437609Y-82961268D01*
X205509666Y-82973824D01*
X205583185Y-82967439D01*
X205639072Y-82947772D01*
X205687132Y-82914629D01*
X205726412Y-82871175D01*
X205727092Y-82870158D01*
X205743044Y-82843338D01*
X205753410Y-82816368D01*
X205759688Y-82782332D01*
X205763373Y-82734310D01*
X205764997Y-82694931D01*
X205765672Y-82659219D01*
X205639955Y-82659219D01*
X205638726Y-82694770D01*
X205634266Y-82742094D01*
X205626397Y-82772465D01*
X205612207Y-82794072D01*
X205598917Y-82806694D01*
X205551802Y-82833122D01*
X205502505Y-82836653D01*
X205456593Y-82817639D01*
X205433638Y-82796331D01*
X205417096Y-82774859D01*
X205407421Y-82754313D01*
X205403174Y-82727574D01*
X205402920Y-82687523D01*
X205404228Y-82650638D01*
X205407043Y-82597947D01*
X205411505Y-82563772D01*
X205419548Y-82541480D01*
X205433103Y-82524442D01*
X205443845Y-82514703D01*
X205488777Y-82489123D01*
X205537249Y-82487847D01*
X205577894Y-82502999D01*
X205612567Y-82534642D01*
X205633224Y-82586620D01*
X205639955Y-82659219D01*
X205765672Y-82659219D01*
X205766479Y-82616621D01*
X205763948Y-82558056D01*
X205756362Y-82514007D01*
X205742681Y-82479248D01*
X205721865Y-82448551D01*
X205714147Y-82439436D01*
X205665889Y-82394021D01*
X205614128Y-82367493D01*
X205550828Y-82356379D01*
X205519961Y-82355471D01*
X205438261Y-82365148D01*
G36*
X200867419Y-83304970D02*
G01*
X200807315Y-83320597D01*
X200756979Y-83352848D01*
X200732607Y-83376940D01*
X200692655Y-83433895D01*
X200669758Y-83499965D01*
X200661892Y-83581182D01*
X200661852Y-83587748D01*
X200661782Y-83653763D01*
X201041736Y-83653763D01*
X201033637Y-83688342D01*
X201019013Y-83719659D01*
X200993419Y-83752291D01*
X200988065Y-83757500D01*
X200942057Y-83785694D01*
X200889590Y-83790475D01*
X200829197Y-83771926D01*
X200818960Y-83766931D01*
X200787561Y-83751745D01*
X200766530Y-83743094D01*
X200762861Y-83742293D01*
X200750052Y-83750063D01*
X200725622Y-83769072D01*
X200713221Y-83779460D01*
X200687524Y-83803321D01*
X200679085Y-83819077D01*
X200684942Y-83833571D01*
X200688072Y-83837534D01*
X200709275Y-83854879D01*
X200744262Y-83875959D01*
X200768663Y-83888265D01*
X200837928Y-83909946D01*
X200914612Y-83916971D01*
X200987235Y-83908647D01*
X201007574Y-83902686D01*
X201070524Y-83868952D01*
X201117185Y-83817045D01*
X201147827Y-83746459D01*
X201162718Y-83656692D01*
X201164353Y-83609753D01*
X201159579Y-83541413D01*
X201039010Y-83541413D01*
X201027348Y-83546465D01*
X200996002Y-83550429D01*
X200950429Y-83552768D01*
X200919554Y-83553169D01*
X200864019Y-83552783D01*
X200828967Y-83550975D01*
X200809738Y-83546773D01*
X200801670Y-83539203D01*
X200800099Y-83528218D01*
X200810879Y-83494381D01*
X200838020Y-83460940D01*
X200873723Y-83435272D01*
X200909440Y-83424772D01*
X200957952Y-83434086D01*
X200999947Y-83461013D01*
X201029064Y-83499827D01*
X201039010Y-83541413D01*
X201159579Y-83541413D01*
X201157401Y-83510236D01*
X201135945Y-83430949D01*
X201099530Y-83371263D01*
X201047703Y-83330549D01*
X200980010Y-83308179D01*
X200943338Y-83303871D01*
X200867419Y-83304970D01*
X200867419Y-83304970D01*
G37*
X200867419Y-83304970D02*
X200807315Y-83320597D01*
X200756979Y-83352848D01*
X200732607Y-83376940D01*
X200692655Y-83433895D01*
X200669758Y-83499965D01*
X200661892Y-83581182D01*
X200661852Y-83587748D01*
X200661782Y-83653763D01*
X201041736Y-83653763D01*
X201033637Y-83688342D01*
X201019013Y-83719659D01*
X200993419Y-83752291D01*
X200988065Y-83757500D01*
X200942057Y-83785694D01*
X200889590Y-83790475D01*
X200829197Y-83771926D01*
X200818960Y-83766931D01*
X200787561Y-83751745D01*
X200766530Y-83743094D01*
X200762861Y-83742293D01*
X200750052Y-83750063D01*
X200725622Y-83769072D01*
X200713221Y-83779460D01*
X200687524Y-83803321D01*
X200679085Y-83819077D01*
X200684942Y-83833571D01*
X200688072Y-83837534D01*
X200709275Y-83854879D01*
X200744262Y-83875959D01*
X200768663Y-83888265D01*
X200837928Y-83909946D01*
X200914612Y-83916971D01*
X200987235Y-83908647D01*
X201007574Y-83902686D01*
X201070524Y-83868952D01*
X201117185Y-83817045D01*
X201147827Y-83746459D01*
X201162718Y-83656692D01*
X201164353Y-83609753D01*
X201159579Y-83541413D01*
X201039010Y-83541413D01*
X201027348Y-83546465D01*
X200996002Y-83550429D01*
X200950429Y-83552768D01*
X200919554Y-83553169D01*
X200864019Y-83552783D01*
X200828967Y-83550975D01*
X200809738Y-83546773D01*
X200801670Y-83539203D01*
X200800099Y-83528218D01*
X200810879Y-83494381D01*
X200838020Y-83460940D01*
X200873723Y-83435272D01*
X200909440Y-83424772D01*
X200957952Y-83434086D01*
X200999947Y-83461013D01*
X201029064Y-83499827D01*
X201039010Y-83541413D01*
X201159579Y-83541413D01*
X201157401Y-83510236D01*
X201135945Y-83430949D01*
X201099530Y-83371263D01*
X201047703Y-83330549D01*
X200980010Y-83308179D01*
X200943338Y-83303871D01*
X200867419Y-83304970D01*
G36*
X201264745Y-83301486D02*
G01*
X201216405Y-83311015D01*
X201188886Y-83325125D01*
X201159936Y-83348568D01*
X201201124Y-83400571D01*
X201226518Y-83432064D01*
X201243762Y-83447428D01*
X201260898Y-83449776D01*
X201285973Y-83442217D01*
X201297743Y-83437941D01*
X201345730Y-83431631D01*
X201389676Y-83445156D01*
X201421940Y-83475710D01*
X201427181Y-83485452D01*
X201432888Y-83511258D01*
X201437294Y-83558817D01*
X201440189Y-83624758D01*
X201441369Y-83705710D01*
X201441386Y-83717226D01*
X201441386Y-83917822D01*
X201579703Y-83917822D01*
X201579703Y-83301683D01*
X201510544Y-83301683D01*
X201470667Y-83302725D01*
X201449893Y-83307358D01*
X201442211Y-83317849D01*
X201441386Y-83327745D01*
X201441386Y-83353806D01*
X201408255Y-83327745D01*
X201370265Y-83309965D01*
X201319230Y-83301174D01*
X201264745Y-83301486D01*
X201264745Y-83301486D01*
G37*
X201264745Y-83301486D02*
X201216405Y-83311015D01*
X201188886Y-83325125D01*
X201159936Y-83348568D01*
X201201124Y-83400571D01*
X201226518Y-83432064D01*
X201243762Y-83447428D01*
X201260898Y-83449776D01*
X201285973Y-83442217D01*
X201297743Y-83437941D01*
X201345730Y-83431631D01*
X201389676Y-83445156D01*
X201421940Y-83475710D01*
X201427181Y-83485452D01*
X201432888Y-83511258D01*
X201437294Y-83558817D01*
X201440189Y-83624758D01*
X201441369Y-83705710D01*
X201441386Y-83717226D01*
X201441386Y-83917822D01*
X201579703Y-83917822D01*
X201579703Y-83301683D01*
X201510544Y-83301683D01*
X201470667Y-83302725D01*
X201449893Y-83307358D01*
X201442211Y-83317849D01*
X201441386Y-83327745D01*
X201441386Y-83353806D01*
X201408255Y-83327745D01*
X201370265Y-83309965D01*
X201319230Y-83301174D01*
X201264745Y-83301486D01*
G36*
X201861589Y-83305417D02*
G01*
X201808589Y-83318290D01*
X201793269Y-83325110D01*
X201763572Y-83342974D01*
X201740780Y-83363093D01*
X201723917Y-83388962D01*
X201712002Y-83424073D01*
X201704058Y-83471920D01*
X201699106Y-83535996D01*
X201696169Y-83619794D01*
X201695053Y-83675768D01*
X201690948Y-83917822D01*
X201761068Y-83917822D01*
X201803607Y-83916038D01*
X201825524Y-83909942D01*
X201831188Y-83899706D01*
X201834179Y-83888637D01*
X201847549Y-83890754D01*
X201865767Y-83899629D01*
X201911376Y-83913233D01*
X201969993Y-83916899D01*
X202031646Y-83910903D01*
X202086362Y-83895521D01*
X202091270Y-83893386D01*
X202141277Y-83858255D01*
X202174244Y-83809419D01*
X202189413Y-83752333D01*
X202188254Y-83731824D01*
X202064492Y-83731824D01*
X202053587Y-83759425D01*
X202021255Y-83779204D01*
X201969090Y-83789819D01*
X201941213Y-83791228D01*
X201894753Y-83787620D01*
X201863871Y-83773597D01*
X201856336Y-83766931D01*
X201835924Y-83730666D01*
X201831188Y-83697773D01*
X201831188Y-83653763D01*
X201892487Y-83653763D01*
X201963744Y-83657395D01*
X202013724Y-83668818D01*
X202045304Y-83688824D01*
X202052374Y-83697743D01*
X202064492Y-83731824D01*
X202188254Y-83731824D01*
X202186029Y-83692456D01*
X202163337Y-83635244D01*
X202132376Y-83596580D01*
X202113624Y-83579864D01*
X202095267Y-83568878D01*
X202071381Y-83562180D01*
X202036043Y-83558326D01*
X201983331Y-83555873D01*
X201962423Y-83555168D01*
X201831188Y-83550879D01*
X201831380Y-83511158D01*
X201836463Y-83469405D01*
X201854838Y-83444158D01*
X201891961Y-83428030D01*
X201892957Y-83427742D01*
X201945590Y-83421400D01*
X201997094Y-83429684D01*
X202035370Y-83449827D01*
X202050728Y-83459773D01*
X202067270Y-83458397D01*
X202092725Y-83443987D01*
X202107672Y-83433817D01*
X202136909Y-83412088D01*
X202155020Y-83395800D01*
X202157926Y-83391137D01*
X202145960Y-83367005D01*
X202110604Y-83338185D01*
X202095247Y-83328461D01*
X202051099Y-83311714D01*
X201991602Y-83302227D01*
X201925513Y-83300095D01*
X201861589Y-83305417D01*
X201861589Y-83305417D01*
G37*
X201861589Y-83305417D02*
X201808589Y-83318290D01*
X201793269Y-83325110D01*
X201763572Y-83342974D01*
X201740780Y-83363093D01*
X201723917Y-83388962D01*
X201712002Y-83424073D01*
X201704058Y-83471920D01*
X201699106Y-83535996D01*
X201696169Y-83619794D01*
X201695053Y-83675768D01*
X201690948Y-83917822D01*
X201761068Y-83917822D01*
X201803607Y-83916038D01*
X201825524Y-83909942D01*
X201831188Y-83899706D01*
X201834179Y-83888637D01*
X201847549Y-83890754D01*
X201865767Y-83899629D01*
X201911376Y-83913233D01*
X201969993Y-83916899D01*
X202031646Y-83910903D01*
X202086362Y-83895521D01*
X202091270Y-83893386D01*
X202141277Y-83858255D01*
X202174244Y-83809419D01*
X202189413Y-83752333D01*
X202188254Y-83731824D01*
X202064492Y-83731824D01*
X202053587Y-83759425D01*
X202021255Y-83779204D01*
X201969090Y-83789819D01*
X201941213Y-83791228D01*
X201894753Y-83787620D01*
X201863871Y-83773597D01*
X201856336Y-83766931D01*
X201835924Y-83730666D01*
X201831188Y-83697773D01*
X201831188Y-83653763D01*
X201892487Y-83653763D01*
X201963744Y-83657395D01*
X202013724Y-83668818D01*
X202045304Y-83688824D01*
X202052374Y-83697743D01*
X202064492Y-83731824D01*
X202188254Y-83731824D01*
X202186029Y-83692456D01*
X202163337Y-83635244D01*
X202132376Y-83596580D01*
X202113624Y-83579864D01*
X202095267Y-83568878D01*
X202071381Y-83562180D01*
X202036043Y-83558326D01*
X201983331Y-83555873D01*
X201962423Y-83555168D01*
X201831188Y-83550879D01*
X201831380Y-83511158D01*
X201836463Y-83469405D01*
X201854838Y-83444158D01*
X201891961Y-83428030D01*
X201892957Y-83427742D01*
X201945590Y-83421400D01*
X201997094Y-83429684D01*
X202035370Y-83449827D01*
X202050728Y-83459773D01*
X202067270Y-83458397D01*
X202092725Y-83443987D01*
X202107672Y-83433817D01*
X202136909Y-83412088D01*
X202155020Y-83395800D01*
X202157926Y-83391137D01*
X202145960Y-83367005D01*
X202110604Y-83338185D01*
X202095247Y-83328461D01*
X202051099Y-83311714D01*
X201991602Y-83302227D01*
X201925513Y-83300095D01*
X201861589Y-83305417D01*
G36*
X202618476Y-83304237D02*
G01*
X202568745Y-83307971D01*
X202438709Y-83697773D01*
X202418322Y-83628614D01*
X202406054Y-83585874D01*
X202389915Y-83528115D01*
X202372488Y-83464625D01*
X202363274Y-83430570D01*
X202328612Y-83301683D01*
X202185609Y-83301683D01*
X202228354Y-83436857D01*
X202249404Y-83503342D01*
X202274833Y-83583539D01*
X202301390Y-83667193D01*
X202325098Y-83741782D01*
X202379098Y-83911535D01*
X202437402Y-83915328D01*
X202495705Y-83919122D01*
X202527321Y-83814734D01*
X202546818Y-83749889D01*
X202568096Y-83678400D01*
X202586692Y-83615263D01*
X202587426Y-83612750D01*
X202601316Y-83569969D01*
X202613571Y-83540779D01*
X202622154Y-83529741D01*
X202623918Y-83531018D01*
X202630109Y-83548130D01*
X202641872Y-83584787D01*
X202657775Y-83636378D01*
X202676386Y-83698294D01*
X202686457Y-83732352D01*
X202740993Y-83917822D01*
X202856736Y-83917822D01*
X202949263Y-83625471D01*
X202975256Y-83543462D01*
X202998934Y-83468987D01*
X203019180Y-83405544D01*
X203034874Y-83356632D01*
X203044898Y-83325749D01*
X203047945Y-83316726D01*
X203045533Y-83307487D01*
X203026592Y-83303441D01*
X202987177Y-83303846D01*
X202981007Y-83304152D01*
X202907914Y-83307971D01*
X202860043Y-83484010D01*
X202842447Y-83548211D01*
X202826723Y-83604649D01*
X202814254Y-83648422D01*
X202806426Y-83674630D01*
X202804980Y-83678903D01*
X202798986Y-83673990D01*
X202786899Y-83648532D01*
X202770107Y-83605997D01*
X202749997Y-83549850D01*
X202732997Y-83499130D01*
X202668206Y-83300504D01*
X202618476Y-83304237D01*
X202618476Y-83304237D01*
G37*
X202618476Y-83304237D02*
X202568745Y-83307971D01*
X202438709Y-83697773D01*
X202418322Y-83628614D01*
X202406054Y-83585874D01*
X202389915Y-83528115D01*
X202372488Y-83464625D01*
X202363274Y-83430570D01*
X202328612Y-83301683D01*
X202185609Y-83301683D01*
X202228354Y-83436857D01*
X202249404Y-83503342D01*
X202274833Y-83583539D01*
X202301390Y-83667193D01*
X202325098Y-83741782D01*
X202379098Y-83911535D01*
X202437402Y-83915328D01*
X202495705Y-83919122D01*
X202527321Y-83814734D01*
X202546818Y-83749889D01*
X202568096Y-83678400D01*
X202586692Y-83615263D01*
X202587426Y-83612750D01*
X202601316Y-83569969D01*
X202613571Y-83540779D01*
X202622154Y-83529741D01*
X202623918Y-83531018D01*
X202630109Y-83548130D01*
X202641872Y-83584787D01*
X202657775Y-83636378D01*
X202676386Y-83698294D01*
X202686457Y-83732352D01*
X202740993Y-83917822D01*
X202856736Y-83917822D01*
X202949263Y-83625471D01*
X202975256Y-83543462D01*
X202998934Y-83468987D01*
X203019180Y-83405544D01*
X203034874Y-83356632D01*
X203044898Y-83325749D01*
X203047945Y-83316726D01*
X203045533Y-83307487D01*
X203026592Y-83303441D01*
X202987177Y-83303846D01*
X202981007Y-83304152D01*
X202907914Y-83307971D01*
X202860043Y-83484010D01*
X202842447Y-83548211D01*
X202826723Y-83604649D01*
X202814254Y-83648422D01*
X202806426Y-83674630D01*
X202804980Y-83678903D01*
X202798986Y-83673990D01*
X202786899Y-83648532D01*
X202770107Y-83605997D01*
X202749997Y-83549850D01*
X202732997Y-83499130D01*
X202668206Y-83300504D01*
X202618476Y-83304237D01*
G36*
X203101188Y-83917822D02*
G01*
X203170346Y-83917822D01*
X203210488Y-83916645D01*
X203231394Y-83911772D01*
X203238922Y-83901186D01*
X203239505Y-83894029D01*
X203240774Y-83879676D01*
X203248779Y-83876923D01*
X203269815Y-83885771D01*
X203286173Y-83894029D01*
X203348977Y-83913597D01*
X203417248Y-83914729D01*
X203472752Y-83900135D01*
X203524438Y-83864877D01*
X203563838Y-83812835D01*
X203585413Y-83751450D01*
X203585962Y-83748018D01*
X203589167Y-83710571D01*
X203590761Y-83656813D01*
X203590633Y-83616155D01*
X203453279Y-83616155D01*
X203450097Y-83670194D01*
X203442859Y-83714735D01*
X203433060Y-83739888D01*
X203395989Y-83774260D01*
X203351974Y-83786582D01*
X203306584Y-83776618D01*
X203267797Y-83746895D01*
X203253108Y-83726905D01*
X203244519Y-83703050D01*
X203240496Y-83668230D01*
X203239505Y-83615930D01*
X203241278Y-83564139D01*
X203245963Y-83518634D01*
X203252603Y-83488181D01*
X203253710Y-83485452D01*
X203280491Y-83453000D01*
X203319579Y-83435183D01*
X203363315Y-83432306D01*
X203404038Y-83444674D01*
X203434087Y-83472593D01*
X203437204Y-83478148D01*
X203446961Y-83512022D01*
X203452277Y-83560728D01*
X203453279Y-83616155D01*
X203590633Y-83616155D01*
X203590568Y-83595540D01*
X203589664Y-83562563D01*
X203583514Y-83480981D01*
X203570733Y-83419730D01*
X203549471Y-83374449D01*
X203517878Y-83340779D01*
X203487207Y-83321014D01*
X203444354Y-83307120D01*
X203391056Y-83302354D01*
X203336480Y-83306236D01*
X203289792Y-83318282D01*
X203265124Y-83332693D01*
X203239505Y-83355878D01*
X203239505Y-83062773D01*
X203101188Y-83062773D01*
X203101188Y-83917822D01*
X203101188Y-83917822D01*
G37*
X203101188Y-83917822D02*
X203170346Y-83917822D01*
X203210488Y-83916645D01*
X203231394Y-83911772D01*
X203238922Y-83901186D01*
X203239505Y-83894029D01*
X203240774Y-83879676D01*
X203248779Y-83876923D01*
X203269815Y-83885771D01*
X203286173Y-83894029D01*
X203348977Y-83913597D01*
X203417248Y-83914729D01*
X203472752Y-83900135D01*
X203524438Y-83864877D01*
X203563838Y-83812835D01*
X203585413Y-83751450D01*
X203585962Y-83748018D01*
X203589167Y-83710571D01*
X203590761Y-83656813D01*
X203590633Y-83616155D01*
X203453279Y-83616155D01*
X203450097Y-83670194D01*
X203442859Y-83714735D01*
X203433060Y-83739888D01*
X203395989Y-83774260D01*
X203351974Y-83786582D01*
X203306584Y-83776618D01*
X203267797Y-83746895D01*
X203253108Y-83726905D01*
X203244519Y-83703050D01*
X203240496Y-83668230D01*
X203239505Y-83615930D01*
X203241278Y-83564139D01*
X203245963Y-83518634D01*
X203252603Y-83488181D01*
X203253710Y-83485452D01*
X203280491Y-83453000D01*
X203319579Y-83435183D01*
X203363315Y-83432306D01*
X203404038Y-83444674D01*
X203434087Y-83472593D01*
X203437204Y-83478148D01*
X203446961Y-83512022D01*
X203452277Y-83560728D01*
X203453279Y-83616155D01*
X203590633Y-83616155D01*
X203590568Y-83595540D01*
X203589664Y-83562563D01*
X203583514Y-83480981D01*
X203570733Y-83419730D01*
X203549471Y-83374449D01*
X203517878Y-83340779D01*
X203487207Y-83321014D01*
X203444354Y-83307120D01*
X203391056Y-83302354D01*
X203336480Y-83306236D01*
X203289792Y-83318282D01*
X203265124Y-83332693D01*
X203239505Y-83355878D01*
X203239505Y-83062773D01*
X203101188Y-83062773D01*
X203101188Y-83917822D01*
G36*
X203893356Y-83303020D02*
G01*
X203874539Y-83308660D01*
X203868473Y-83321053D01*
X203868218Y-83326647D01*
X203867129Y-83342230D01*
X203859632Y-83344676D01*
X203839381Y-83333993D01*
X203827351Y-83326694D01*
X203789400Y-83311063D01*
X203744072Y-83303334D01*
X203696544Y-83302740D01*
X203651995Y-83308513D01*
X203615602Y-83319884D01*
X203592543Y-83336088D01*
X203587996Y-83356355D01*
X203590291Y-83361843D01*
X203607020Y-83384626D01*
X203632963Y-83412647D01*
X203637655Y-83417177D01*
X203662383Y-83438005D01*
X203683718Y-83444735D01*
X203713555Y-83440038D01*
X203725508Y-83436917D01*
X203762705Y-83429421D01*
X203788859Y-83432792D01*
X203810946Y-83444681D01*
X203831178Y-83460635D01*
X203846079Y-83480700D01*
X203856434Y-83508702D01*
X203863029Y-83548467D01*
X203866649Y-83603823D01*
X203868078Y-83678594D01*
X203868218Y-83723740D01*
X203868218Y-83917822D01*
X203993960Y-83917822D01*
X203993960Y-83301683D01*
X203931089Y-83301683D01*
X203893356Y-83303020D01*
X203893356Y-83303020D01*
G37*
X203893356Y-83303020D02*
X203874539Y-83308660D01*
X203868473Y-83321053D01*
X203868218Y-83326647D01*
X203867129Y-83342230D01*
X203859632Y-83344676D01*
X203839381Y-83333993D01*
X203827351Y-83326694D01*
X203789400Y-83311063D01*
X203744072Y-83303334D01*
X203696544Y-83302740D01*
X203651995Y-83308513D01*
X203615602Y-83319884D01*
X203592543Y-83336088D01*
X203587996Y-83356355D01*
X203590291Y-83361843D01*
X203607020Y-83384626D01*
X203632963Y-83412647D01*
X203637655Y-83417177D01*
X203662383Y-83438005D01*
X203683718Y-83444735D01*
X203713555Y-83440038D01*
X203725508Y-83436917D01*
X203762705Y-83429421D01*
X203788859Y-83432792D01*
X203810946Y-83444681D01*
X203831178Y-83460635D01*
X203846079Y-83480700D01*
X203856434Y-83508702D01*
X203863029Y-83548467D01*
X203866649Y-83603823D01*
X203868078Y-83678594D01*
X203868218Y-83723740D01*
X203868218Y-83917822D01*
X203993960Y-83917822D01*
X203993960Y-83301683D01*
X203931089Y-83301683D01*
X203893356Y-83303020D01*
G36*
X204284210Y-83306555D02*
G01*
X204225055Y-83322339D01*
X204180023Y-83350948D01*
X204148246Y-83388419D01*
X204138366Y-83404411D01*
X204131073Y-83421163D01*
X204125974Y-83442592D01*
X204122679Y-83472616D01*
X204120797Y-83515154D01*
X204119937Y-83574122D01*
X204119707Y-83653440D01*
X204119703Y-83674484D01*
X204119703Y-83917822D01*
X204180059Y-83917822D01*
X204218557Y-83915126D01*
X204247023Y-83908295D01*
X204254155Y-83904083D01*
X204273652Y-83896813D01*
X204293566Y-83904083D01*
X204326353Y-83913160D01*
X204373978Y-83916813D01*
X204426764Y-83915228D01*
X204475036Y-83908589D01*
X204503218Y-83900072D01*
X204557753Y-83865063D01*
X204591835Y-83816479D01*
X204607157Y-83751882D01*
X204607299Y-83750223D01*
X204605955Y-83721566D01*
X204484356Y-83721566D01*
X204473726Y-83754161D01*
X204456410Y-83772505D01*
X204421652Y-83786379D01*
X204375773Y-83791917D01*
X204328988Y-83789191D01*
X204291514Y-83778274D01*
X204281015Y-83771269D01*
X204262668Y-83738904D01*
X204258020Y-83702111D01*
X204258020Y-83653763D01*
X204327582Y-83653763D01*
X204393667Y-83658850D01*
X204443764Y-83673263D01*
X204474929Y-83695729D01*
X204484356Y-83721566D01*
X204605955Y-83721566D01*
X204603987Y-83679647D01*
X204580710Y-83623845D01*
X204536948Y-83581647D01*
X204530899Y-83577808D01*
X204504907Y-83565309D01*
X204472735Y-83557740D01*
X204427760Y-83554061D01*
X204374331Y-83553216D01*
X204258020Y-83553169D01*
X204258020Y-83504411D01*
X204262953Y-83466581D01*
X204275543Y-83441236D01*
X204277017Y-83439887D01*
X204305034Y-83428800D01*
X204347326Y-83424503D01*
X204394064Y-83426615D01*
X204435418Y-83434756D01*
X204459957Y-83446965D01*
X204473253Y-83456746D01*
X204487294Y-83458613D01*
X204506671Y-83450600D01*
X204535976Y-83430739D01*
X204579803Y-83397063D01*
X204583825Y-83393909D01*
X204581764Y-83382236D01*
X204564568Y-83362822D01*
X204538433Y-83341248D01*
X204509552Y-83323096D01*
X204500478Y-83318809D01*
X204467380Y-83310256D01*
X204418880Y-83304155D01*
X204364695Y-83301708D01*
X204362161Y-83301703D01*
X204284210Y-83306555D01*
X204284210Y-83306555D01*
G37*
X204284210Y-83306555D02*
X204225055Y-83322339D01*
X204180023Y-83350948D01*
X204148246Y-83388419D01*
X204138366Y-83404411D01*
X204131073Y-83421163D01*
X204125974Y-83442592D01*
X204122679Y-83472616D01*
X204120797Y-83515154D01*
X204119937Y-83574122D01*
X204119707Y-83653440D01*
X204119703Y-83674484D01*
X204119703Y-83917822D01*
X204180059Y-83917822D01*
X204218557Y-83915126D01*
X204247023Y-83908295D01*
X204254155Y-83904083D01*
X204273652Y-83896813D01*
X204293566Y-83904083D01*
X204326353Y-83913160D01*
X204373978Y-83916813D01*
X204426764Y-83915228D01*
X204475036Y-83908589D01*
X204503218Y-83900072D01*
X204557753Y-83865063D01*
X204591835Y-83816479D01*
X204607157Y-83751882D01*
X204607299Y-83750223D01*
X204605955Y-83721566D01*
X204484356Y-83721566D01*
X204473726Y-83754161D01*
X204456410Y-83772505D01*
X204421652Y-83786379D01*
X204375773Y-83791917D01*
X204328988Y-83789191D01*
X204291514Y-83778274D01*
X204281015Y-83771269D01*
X204262668Y-83738904D01*
X204258020Y-83702111D01*
X204258020Y-83653763D01*
X204327582Y-83653763D01*
X204393667Y-83658850D01*
X204443764Y-83673263D01*
X204474929Y-83695729D01*
X204484356Y-83721566D01*
X204605955Y-83721566D01*
X204603987Y-83679647D01*
X204580710Y-83623845D01*
X204536948Y-83581647D01*
X204530899Y-83577808D01*
X204504907Y-83565309D01*
X204472735Y-83557740D01*
X204427760Y-83554061D01*
X204374331Y-83553216D01*
X204258020Y-83553169D01*
X204258020Y-83504411D01*
X204262953Y-83466581D01*
X204275543Y-83441236D01*
X204277017Y-83439887D01*
X204305034Y-83428800D01*
X204347326Y-83424503D01*
X204394064Y-83426615D01*
X204435418Y-83434756D01*
X204459957Y-83446965D01*
X204473253Y-83456746D01*
X204487294Y-83458613D01*
X204506671Y-83450600D01*
X204535976Y-83430739D01*
X204579803Y-83397063D01*
X204583825Y-83393909D01*
X204581764Y-83382236D01*
X204564568Y-83362822D01*
X204538433Y-83341248D01*
X204509552Y-83323096D01*
X204500478Y-83318809D01*
X204467380Y-83310256D01*
X204418880Y-83304155D01*
X204364695Y-83301708D01*
X204362161Y-83301703D01*
X204284210Y-83306555D01*
G36*
X204808759Y-82369184D02*
G01*
X204782247Y-82382282D01*
X204749553Y-82405106D01*
X204725725Y-82429996D01*
X204709406Y-82461249D01*
X204699240Y-82503166D01*
X204693872Y-82560044D01*
X204691944Y-82636184D01*
X204691831Y-82668917D01*
X204692161Y-82740656D01*
X204693527Y-82791927D01*
X204696500Y-82827404D01*
X204701649Y-82851763D01*
X204709543Y-82869680D01*
X204717757Y-82881902D01*
X204770187Y-82933905D01*
X204831930Y-82965184D01*
X204898536Y-82974592D01*
X204965558Y-82960980D01*
X204986792Y-82951354D01*
X205037624Y-82924859D01*
X205037624Y-83340052D01*
X205000525Y-83320868D01*
X204951643Y-83306025D01*
X204891561Y-83302222D01*
X204831564Y-83309243D01*
X204786256Y-83325013D01*
X204748675Y-83355047D01*
X204716564Y-83398024D01*
X204714150Y-83402436D01*
X204703967Y-83423221D01*
X204696530Y-83444170D01*
X204691411Y-83469548D01*
X204688181Y-83503618D01*
X204686413Y-83550641D01*
X204685677Y-83614882D01*
X204685544Y-83687176D01*
X204685544Y-83917822D01*
X204823861Y-83917822D01*
X204823861Y-83492533D01*
X204862549Y-83459979D01*
X204902738Y-83433940D01*
X204940797Y-83429205D01*
X204979066Y-83441389D01*
X204999462Y-83453320D01*
X205014642Y-83470313D01*
X205025438Y-83495995D01*
X205032683Y-83533991D01*
X205037208Y-83587926D01*
X205039844Y-83661425D01*
X205040772Y-83710347D01*
X205043911Y-83911535D01*
X205109926Y-83915336D01*
X205175940Y-83919136D01*
X205175940Y-82670650D01*
X205037624Y-82670650D01*
X205034097Y-82740254D01*
X205022215Y-82788569D01*
X205000020Y-82818631D01*
X204965559Y-82833471D01*
X204930742Y-82836436D01*
X204891329Y-82833028D01*
X204865171Y-82819617D01*
X204848814Y-82801896D01*
X204835937Y-82782835D01*
X204828272Y-82761601D01*
X204824861Y-82731849D01*
X204824749Y-82687236D01*
X204825897Y-82649880D01*
X204828532Y-82593604D01*
X204832456Y-82556658D01*
X204839063Y-82533223D01*
X204849749Y-82517480D01*
X204859833Y-82508380D01*
X204901970Y-82488537D01*
X204951840Y-82485332D01*
X204980476Y-82492168D01*
X205008828Y-82516464D01*
X205027609Y-82563728D01*
X205036712Y-82633624D01*
X205037624Y-82670650D01*
X205175940Y-82670650D01*
X205175940Y-82358614D01*
X205106782Y-82358614D01*
X205065260Y-82360256D01*
X205043838Y-82366087D01*
X205037626Y-82377461D01*
X205037624Y-82377798D01*
X205034742Y-82388938D01*
X205022030Y-82387673D01*
X204996757Y-82375433D01*
X204937869Y-82356707D01*
X204871615Y-82354739D01*
X204808759Y-82369184D01*
X204808759Y-82369184D01*
G37*
X204808759Y-82369184D02*
X204782247Y-82382282D01*
X204749553Y-82405106D01*
X204725725Y-82429996D01*
X204709406Y-82461249D01*
X204699240Y-82503166D01*
X204693872Y-82560044D01*
X204691944Y-82636184D01*
X204691831Y-82668917D01*
X204692161Y-82740656D01*
X204693527Y-82791927D01*
X204696500Y-82827404D01*
X204701649Y-82851763D01*
X204709543Y-82869680D01*
X204717757Y-82881902D01*
X204770187Y-82933905D01*
X204831930Y-82965184D01*
X204898536Y-82974592D01*
X204965558Y-82960980D01*
X204986792Y-82951354D01*
X205037624Y-82924859D01*
X205037624Y-83340052D01*
X205000525Y-83320868D01*
X204951643Y-83306025D01*
X204891561Y-83302222D01*
X204831564Y-83309243D01*
X204786256Y-83325013D01*
X204748675Y-83355047D01*
X204716564Y-83398024D01*
X204714150Y-83402436D01*
X204703967Y-83423221D01*
X204696530Y-83444170D01*
X204691411Y-83469548D01*
X204688181Y-83503618D01*
X204686413Y-83550641D01*
X204685677Y-83614882D01*
X204685544Y-83687176D01*
X204685544Y-83917822D01*
X204823861Y-83917822D01*
X204823861Y-83492533D01*
X204862549Y-83459979D01*
X204902738Y-83433940D01*
X204940797Y-83429205D01*
X204979066Y-83441389D01*
X204999462Y-83453320D01*
X205014642Y-83470313D01*
X205025438Y-83495995D01*
X205032683Y-83533991D01*
X205037208Y-83587926D01*
X205039844Y-83661425D01*
X205040772Y-83710347D01*
X205043911Y-83911535D01*
X205109926Y-83915336D01*
X205175940Y-83919136D01*
X205175940Y-82670650D01*
X205037624Y-82670650D01*
X205034097Y-82740254D01*
X205022215Y-82788569D01*
X205000020Y-82818631D01*
X204965559Y-82833471D01*
X204930742Y-82836436D01*
X204891329Y-82833028D01*
X204865171Y-82819617D01*
X204848814Y-82801896D01*
X204835937Y-82782835D01*
X204828272Y-82761601D01*
X204824861Y-82731849D01*
X204824749Y-82687236D01*
X204825897Y-82649880D01*
X204828532Y-82593604D01*
X204832456Y-82556658D01*
X204839063Y-82533223D01*
X204849749Y-82517480D01*
X204859833Y-82508380D01*
X204901970Y-82488537D01*
X204951840Y-82485332D01*
X204980476Y-82492168D01*
X205008828Y-82516464D01*
X205027609Y-82563728D01*
X205036712Y-82633624D01*
X205037624Y-82670650D01*
X205175940Y-82670650D01*
X205175940Y-82358614D01*
X205106782Y-82358614D01*
X205065260Y-82360256D01*
X205043838Y-82366087D01*
X205037626Y-82377461D01*
X205037624Y-82377798D01*
X205034742Y-82388938D01*
X205022030Y-82387673D01*
X204996757Y-82375433D01*
X204937869Y-82356707D01*
X204871615Y-82354739D01*
X204808759Y-82369184D01*
%LPC*%
D17*
X210000000Y-75000000D03*
X208000000Y-75000000D03*
X206000000Y-75000000D03*
X204000000Y-75000000D03*
X202000000Y-75000000D03*
X200000000Y-75000000D03*
X198000000Y-75000000D03*
X196000000Y-75000000D03*
X210000000Y-73000000D03*
X208000000Y-73000000D03*
X206000000Y-73000000D03*
X204000000Y-73000000D03*
X202000000Y-73000000D03*
X200000000Y-73000000D03*
X198000000Y-73000000D03*
X196000000Y-73000000D03*
X210000000Y-71000000D03*
X208000000Y-71000000D03*
X206000000Y-71000000D03*
X204000000Y-71000000D03*
X202000000Y-71000000D03*
X200000000Y-71000000D03*
X198000000Y-71000000D03*
X196000000Y-71000000D03*
X210000000Y-69000000D03*
X208000000Y-69000000D03*
X206000000Y-69000000D03*
X204000000Y-69000000D03*
X202000000Y-69000000D03*
X200000000Y-69000000D03*
X198000000Y-69000000D03*
X210000000Y-67000000D03*
X208000000Y-67000000D03*
X206000000Y-67000000D03*
X204000000Y-67000000D03*
X202000000Y-67000000D03*
X200000000Y-67000000D03*
X210000000Y-65000000D03*
X208000000Y-65000000D03*
X206000000Y-65000000D03*
X204000000Y-65000000D03*
X202000000Y-65000000D03*
X210000000Y-63000000D03*
X208000000Y-63000000D03*
X206000000Y-63000000D03*
X204000000Y-63000000D03*
X210000000Y-61000000D03*
X208000000Y-61000000D03*
X206000000Y-61000000D03*
X210000000Y-59000000D03*
X208000000Y-59000000D03*
D18*
X179000000Y-65000000D03*
D19*
X179700000Y-71300000D03*
D20*
X179700000Y-73300000D03*
D21*
X195090000Y-81310000D03*
X200290000Y-51910000D03*
D22*
X205290000Y-51910000D03*
D21*
X210490000Y-81310000D03*
D23*
X170900000Y-71000000D03*
D24*
X170900000Y-73540000D03*
X170900000Y-72270000D03*
D25*
X164760000Y-72300000D03*
D19*
X167300000Y-72300000D03*
D26*
X164700000Y-77100000D03*
X164700000Y-79600000D03*
D27*
G36*
X165596447Y-81051487D02*
G01*
X165626425Y-81055934D01*
X165655824Y-81063298D01*
X165684358Y-81073508D01*
X165711755Y-81086465D01*
X165737750Y-81102046D01*
X165762092Y-81120100D01*
X165784548Y-81140452D01*
X165804900Y-81162908D01*
X165822954Y-81187250D01*
X165838535Y-81213245D01*
X165851492Y-81240642D01*
X165861702Y-81269176D01*
X165869066Y-81298575D01*
X165873513Y-81328553D01*
X165875000Y-81358823D01*
X165875000Y-82841177D01*
X165873513Y-82871447D01*
X165869066Y-82901425D01*
X165861702Y-82930824D01*
X165851492Y-82959358D01*
X165838535Y-82986755D01*
X165822954Y-83012750D01*
X165804900Y-83037092D01*
X165784548Y-83059548D01*
X165762092Y-83079900D01*
X165737750Y-83097954D01*
X165711755Y-83113535D01*
X165684358Y-83126492D01*
X165655824Y-83136702D01*
X165626425Y-83144066D01*
X165596447Y-83148513D01*
X165566177Y-83150000D01*
X163833823Y-83150000D01*
X163803553Y-83148513D01*
X163773575Y-83144066D01*
X163744176Y-83136702D01*
X163715642Y-83126492D01*
X163688245Y-83113535D01*
X163662250Y-83097954D01*
X163637908Y-83079900D01*
X163615452Y-83059548D01*
X163595100Y-83037092D01*
X163577046Y-83012750D01*
X163561465Y-82986755D01*
X163548508Y-82959358D01*
X163538298Y-82930824D01*
X163530934Y-82901425D01*
X163526487Y-82871447D01*
X163525000Y-82841177D01*
X163525000Y-81358823D01*
X163526487Y-81328553D01*
X163530934Y-81298575D01*
X163538298Y-81269176D01*
X163548508Y-81240642D01*
X163561465Y-81213245D01*
X163577046Y-81187250D01*
X163595100Y-81162908D01*
X163615452Y-81140452D01*
X163637908Y-81120100D01*
X163662250Y-81102046D01*
X163688245Y-81086465D01*
X163715642Y-81073508D01*
X163744176Y-81063298D01*
X163773575Y-81055934D01*
X163803553Y-81051487D01*
X163833823Y-81050000D01*
X165566177Y-81050000D01*
X165596447Y-81051487D01*
X165596447Y-81051487D01*
G37*
D28*
X164700000Y-82100000D03*
D18*
X190100000Y-52380000D03*
X190100000Y-72700000D03*
D29*
X185500000Y-61500000D03*
X184100000Y-69000000D03*
D30*
X165900000Y-66480000D03*
D31*
X165900000Y-61400000D03*
D30*
X192400000Y-80200000D03*
X169800000Y-80200000D03*
X164200000Y-53800000D03*
X186800000Y-53800000D03*
D19*
X175300000Y-71000000D03*
X175300000Y-73500000D03*
M02*
