%TF.GenerationSoftware,KiCad,Pcbnew,5.1.2-f72e74a~84~ubuntu18.04.1*%
%TF.CreationDate,2019-07-18T22:24:58+02:00*%
%TF.ProjectId,InWall-ACDC,496e5761-6c6c-42d4-9143-44432e6b6963,1.0*%
%TF.SameCoordinates,PX9a7ec80PY510ff40*%
%TF.FileFunction,Soldermask,Bot*%
%TF.FilePolarity,Negative*%
%FSLAX46Y46*%
G04 Gerber Fmt 4.6, Leading zero omitted, Abs format (unit mm)*
G04 Created by KiCad (PCBNEW 5.1.2-f72e74a~84~ubuntu18.04.1) date 2019-07-18 22:24:58*
%MOMM*%
%LPD*%
G04 APERTURE LIST*
%ADD10C,1.400000*%
%ADD11C,3.100000*%
%ADD12C,2.000000*%
%ADD13R,2.000000X2.000000*%
%ADD14C,2.700000*%
%ADD15R,2.400000X2.700000*%
%ADD16R,1.900000X1.450000*%
%ADD17O,1.900000X1.450000*%
%ADD18O,2.000000X2.000000*%
%ADD19O,2.350000X2.100000*%
%ADD20C,0.100000*%
%ADD21C,2.100000*%
%ADD22C,2.200000*%
%ADD23C,3.400000*%
%ADD24R,3.400000X3.400000*%
G04 APERTURE END LIST*
D10*
X48000000Y10000000D03*
X46000000Y10000000D03*
X44000000Y10000000D03*
X42000000Y10000000D03*
X40000000Y10000000D03*
X38000000Y10000000D03*
X36000000Y10000000D03*
X34000000Y10000000D03*
X48000000Y12000000D03*
X46000000Y12000000D03*
X44000000Y12000000D03*
X42000000Y12000000D03*
X40000000Y12000000D03*
X38000000Y12000000D03*
X36000000Y12000000D03*
X34000000Y12000000D03*
X48000000Y14000000D03*
X46000000Y14000000D03*
X44000000Y14000000D03*
X42000000Y14000000D03*
X40000000Y14000000D03*
X38000000Y14000000D03*
X36000000Y14000000D03*
X34000000Y14000000D03*
X48000000Y16000000D03*
X46000000Y16000000D03*
X44000000Y16000000D03*
X42000000Y16000000D03*
X40000000Y16000000D03*
X38000000Y16000000D03*
X36000000Y16000000D03*
X48000000Y18000000D03*
X46000000Y18000000D03*
X44000000Y18000000D03*
X42000000Y18000000D03*
X40000000Y18000000D03*
X38000000Y18000000D03*
X48000000Y20000000D03*
X46000000Y20000000D03*
X44000000Y20000000D03*
X42000000Y20000000D03*
X40000000Y20000000D03*
X48000000Y22000000D03*
X46000000Y22000000D03*
X44000000Y22000000D03*
X42000000Y22000000D03*
X48000000Y24000000D03*
X46000000Y24000000D03*
X44000000Y24000000D03*
X48000000Y26000000D03*
X46000000Y26000000D03*
D11*
X17000000Y20000000D03*
D12*
X17700000Y13700000D03*
D13*
X17700000Y11700000D03*
D14*
X33090000Y3690000D03*
X38290000Y33090000D03*
D15*
X43290000Y33090000D03*
D14*
X48490000Y3690000D03*
D16*
X8900000Y14000000D03*
D17*
X8900000Y11460000D03*
X8900000Y12730000D03*
D18*
X2760000Y12700000D03*
D12*
X5300000Y12700000D03*
D19*
X2700000Y7900000D03*
X2700000Y5400000D03*
D20*
G36*
X3596447Y3948513D02*
G01*
X3626425Y3944066D01*
X3655824Y3936702D01*
X3684358Y3926492D01*
X3711755Y3913535D01*
X3737750Y3897954D01*
X3762092Y3879900D01*
X3784548Y3859548D01*
X3804900Y3837092D01*
X3822954Y3812750D01*
X3838535Y3786755D01*
X3851492Y3759358D01*
X3861702Y3730824D01*
X3869066Y3701425D01*
X3873513Y3671447D01*
X3875000Y3641177D01*
X3875000Y2158823D01*
X3873513Y2128553D01*
X3869066Y2098575D01*
X3861702Y2069176D01*
X3851492Y2040642D01*
X3838535Y2013245D01*
X3822954Y1987250D01*
X3804900Y1962908D01*
X3784548Y1940452D01*
X3762092Y1920100D01*
X3737750Y1902046D01*
X3711755Y1886465D01*
X3684358Y1873508D01*
X3655824Y1863298D01*
X3626425Y1855934D01*
X3596447Y1851487D01*
X3566177Y1850000D01*
X1833823Y1850000D01*
X1803553Y1851487D01*
X1773575Y1855934D01*
X1744176Y1863298D01*
X1715642Y1873508D01*
X1688245Y1886465D01*
X1662250Y1902046D01*
X1637908Y1920100D01*
X1615452Y1940452D01*
X1595100Y1962908D01*
X1577046Y1987250D01*
X1561465Y2013245D01*
X1548508Y2040642D01*
X1538298Y2069176D01*
X1530934Y2098575D01*
X1526487Y2128553D01*
X1525000Y2158823D01*
X1525000Y3641177D01*
X1526487Y3671447D01*
X1530934Y3701425D01*
X1538298Y3730824D01*
X1548508Y3759358D01*
X1561465Y3786755D01*
X1577046Y3812750D01*
X1595100Y3837092D01*
X1615452Y3859548D01*
X1637908Y3879900D01*
X1662250Y3897954D01*
X1688245Y3913535D01*
X1715642Y3926492D01*
X1744176Y3936702D01*
X1773575Y3944066D01*
X1803553Y3948513D01*
X1833823Y3950000D01*
X3566177Y3950000D01*
X3596447Y3948513D01*
X3596447Y3948513D01*
G37*
D21*
X2700000Y2900000D03*
D11*
X28100000Y32620000D03*
X28100000Y12300000D03*
D22*
X23500000Y23500000D03*
X22100000Y16000000D03*
D23*
X3900000Y18520000D03*
D24*
X3900000Y23600000D03*
D23*
X30400000Y4800000D03*
X7800000Y4800000D03*
X2200000Y31200000D03*
X24800000Y31200000D03*
D12*
X13300000Y14000000D03*
X13300000Y11500000D03*
M02*
