M48
; DRILL file {KiCad 5.1.2-f72e74a~84~ubuntu18.04.1} date jeu. 18 juil. 2019 22:14:56 CEST
; FORMAT={-:-/ absolute / inch / decimal}
; #@! TF.CreationDate,2019-07-18T22:14:56+02:00
; #@! TF.GenerationSoftware,Kicad,Pcbnew,5.1.2-f72e74a~84~ubuntu18.04.1
; #@! TF.FileFunction,NonPlated,1,2,NPTH
FMAT,2
INCH
T1C0.0394
T2C0.1063
%
G90
G05
T1
X8.0315Y-2.4803
X8.189Y-2.6378
X7.7165Y-2.874
X8.2677Y-2.4803
X7.7953Y-2.7953
X8.189Y-2.4803
X8.2677Y-2.874
X8.2677Y-2.7165
X8.0315Y-2.7953
X8.189Y-2.3228
X8.0315Y-2.6378
X7.9528Y-2.7165
X8.2677Y-2.5591
X8.1102Y-2.4016
X8.189Y-2.7165
X8.1102Y-2.7165
X8.2677Y-2.6378
X7.7165Y-2.7953
X7.9528Y-2.5591
X7.7953Y-2.874
X7.9528Y-2.7953
X7.7953Y-2.9528
X7.874Y-2.7953
X8.189Y-2.9528
X8.0315Y-2.7165
X8.1102Y-2.874
X7.9528Y-2.6378
X8.1102Y-2.5591
X8.2677Y-2.7953
X8.1102Y-2.4803
X8.0315Y-2.874
X8.2677Y-2.9528
X7.874Y-2.9528
X7.7165Y-2.9528
X8.2677Y-2.4016
X7.7953Y-2.7165
X7.874Y-2.874
X7.874Y-2.6378
X7.9528Y-2.9528
X8.1102Y-2.9528
X8.2677Y-2.3228
X8.189Y-2.5591
X8.1102Y-2.7953
X8.0315Y-2.9528
X8.189Y-2.4016
X8.189Y-2.874
X8.189Y-2.7953
X7.9528Y-2.874
X7.874Y-2.7165
X8.1102Y-2.6378
X8.0315Y-2.5591
T2
X7.0472Y-2.5591
T0
M30
