%TF.GenerationSoftware,KiCad,Pcbnew,5.1.2-f72e74a~84~ubuntu18.04.1*%
%TF.CreationDate,2019-07-18T22:24:58+02:00*%
%TF.ProjectId,InWall-ACDC,496e5761-6c6c-42d4-9143-44432e6b6963,1.0*%
%TF.SameCoordinates,PX9a7ec80PY510ff40*%
%TF.FileFunction,Copper,L1,Top*%
%TF.FilePolarity,Positive*%
%FSLAX46Y46*%
G04 Gerber Fmt 4.6, Leading zero omitted, Abs format (unit mm)*
G04 Created by KiCad (PCBNEW 5.1.2-f72e74a~84~ubuntu18.04.1) date 2019-07-18 22:24:58*
%MOMM*%
%LPD*%
G04 APERTURE LIST*
%ADD10C,1.600000*%
%ADD11R,1.600000X1.600000*%
%ADD12C,2.300000*%
%ADD13R,2.000000X2.300000*%
%ADD14R,1.500000X1.050000*%
%ADD15O,1.500000X1.050000*%
%ADD16O,1.600000X1.600000*%
%ADD17O,1.950000X1.700000*%
%ADD18C,0.100000*%
%ADD19C,1.700000*%
%ADD20C,2.700000*%
%ADD21C,1.800000*%
%ADD22C,3.000000*%
%ADD23R,3.000000X3.000000*%
%ADD24C,1.800000*%
%ADD25C,0.500000*%
G04 APERTURE END LIST*
D10*
X17700000Y13700000D03*
D11*
X17700000Y11700000D03*
D12*
X33090000Y3690000D03*
X38290000Y33090000D03*
D13*
X43290000Y33090000D03*
D12*
X48490000Y3690000D03*
D14*
X8900000Y14000000D03*
D15*
X8900000Y11460000D03*
X8900000Y12730000D03*
D16*
X2760000Y12700000D03*
D10*
X5300000Y12700000D03*
D17*
X2700000Y7900000D03*
X2700000Y5400000D03*
D18*
G36*
X3449504Y3748796D02*
G01*
X3473773Y3745196D01*
X3497571Y3739235D01*
X3520671Y3730970D01*
X3542849Y3720480D01*
X3563893Y3707867D01*
X3583598Y3693253D01*
X3601777Y3676777D01*
X3618253Y3658598D01*
X3632867Y3638893D01*
X3645480Y3617849D01*
X3655970Y3595671D01*
X3664235Y3572571D01*
X3670196Y3548773D01*
X3673796Y3524504D01*
X3675000Y3500000D01*
X3675000Y2300000D01*
X3673796Y2275496D01*
X3670196Y2251227D01*
X3664235Y2227429D01*
X3655970Y2204329D01*
X3645480Y2182151D01*
X3632867Y2161107D01*
X3618253Y2141402D01*
X3601777Y2123223D01*
X3583598Y2106747D01*
X3563893Y2092133D01*
X3542849Y2079520D01*
X3520671Y2069030D01*
X3497571Y2060765D01*
X3473773Y2054804D01*
X3449504Y2051204D01*
X3425000Y2050000D01*
X1975000Y2050000D01*
X1950496Y2051204D01*
X1926227Y2054804D01*
X1902429Y2060765D01*
X1879329Y2069030D01*
X1857151Y2079520D01*
X1836107Y2092133D01*
X1816402Y2106747D01*
X1798223Y2123223D01*
X1781747Y2141402D01*
X1767133Y2161107D01*
X1754520Y2182151D01*
X1744030Y2204329D01*
X1735765Y2227429D01*
X1729804Y2251227D01*
X1726204Y2275496D01*
X1725000Y2300000D01*
X1725000Y3500000D01*
X1726204Y3524504D01*
X1729804Y3548773D01*
X1735765Y3572571D01*
X1744030Y3595671D01*
X1754520Y3617849D01*
X1767133Y3638893D01*
X1781747Y3658598D01*
X1798223Y3676777D01*
X1816402Y3693253D01*
X1836107Y3707867D01*
X1857151Y3720480D01*
X1879329Y3730970D01*
X1902429Y3739235D01*
X1926227Y3745196D01*
X1950496Y3748796D01*
X1975000Y3750000D01*
X3425000Y3750000D01*
X3449504Y3748796D01*
X3449504Y3748796D01*
G37*
D19*
X2700000Y2900000D03*
D20*
X28100000Y32620000D03*
X28100000Y12300000D03*
D21*
X23500000Y23500000D03*
X22100000Y16000000D03*
D22*
X3900000Y18520000D03*
D23*
X3900000Y23600000D03*
D22*
X30400000Y4800000D03*
X7800000Y4800000D03*
X2200000Y31200000D03*
X24800000Y31200000D03*
D10*
X13300000Y14000000D03*
X13300000Y11500000D03*
D24*
X26220000Y32620000D02*
X24800000Y31200000D01*
X28100000Y32620000D02*
X26220000Y32620000D01*
X2200000Y25300000D02*
X3900000Y23600000D01*
X2200000Y31200000D02*
X2200000Y25300000D01*
X43290000Y30805448D02*
X43290000Y33090000D01*
X29449999Y16965447D02*
X43290000Y30805448D01*
X29449999Y13649999D02*
X29449999Y16965447D01*
X28100000Y12300000D02*
X29449999Y13649999D01*
X25800000Y12300000D02*
X22100000Y16000000D01*
X28100000Y12300000D02*
X25800000Y12300000D01*
X22227208Y23500000D02*
X23500000Y23500000D01*
X12729998Y23500000D02*
X22227208Y23500000D01*
X7749998Y18520000D02*
X12729998Y23500000D01*
X3900000Y18520000D02*
X7749998Y18520000D01*
X28700000Y23500000D02*
X23500000Y23500000D01*
X38290000Y33090000D02*
X28700000Y23500000D01*
D25*
X18200002Y13700000D02*
X17700000Y13700000D01*
X25100001Y6800001D02*
X18200002Y13700000D01*
X45379999Y6800001D02*
X25100001Y6800001D01*
X48490000Y3690000D02*
X45379999Y6800001D01*
X13600000Y13700000D02*
X13300000Y14000000D01*
X17700000Y13700000D02*
X13600000Y13700000D01*
X13300000Y14000000D02*
X8900000Y14000000D01*
X709989Y9765011D02*
X2575000Y7900000D01*
X709989Y13634665D02*
X709989Y9765011D01*
X1825334Y14750010D02*
X709989Y13634665D01*
X4310663Y14750011D02*
X1825334Y14750010D01*
X2575000Y7900000D02*
X2700000Y7900000D01*
X5060674Y14000000D02*
X4310663Y14750011D01*
X8900000Y14000000D02*
X5060674Y14000000D01*
X13500000Y11700000D02*
X13300000Y11500000D01*
X17700000Y11700000D02*
X13500000Y11700000D01*
X8940000Y11500000D02*
X8900000Y11460000D01*
X13300000Y11500000D02*
X8940000Y11500000D01*
X17700000Y10400000D02*
X17700000Y11700000D01*
X12100000Y4800000D02*
X17700000Y10400000D01*
X7800000Y4800000D02*
X12100000Y4800000D01*
X7650000Y11460000D02*
X8900000Y11460000D01*
X7589999Y11399999D02*
X7650000Y11460000D01*
X2760000Y11568630D02*
X2928631Y11399999D01*
X2928631Y11399999D02*
X7589999Y11399999D01*
X2760000Y12700000D02*
X2760000Y11568630D01*
X8900000Y9100000D02*
X2700000Y2900000D01*
X8900000Y11460000D02*
X8900000Y9100000D01*
X5330000Y12730000D02*
X5300000Y12700000D01*
X8900000Y12730000D02*
X5330000Y12730000D01*
X2825000Y5400000D02*
X2700000Y5400000D01*
X4175010Y6750010D02*
X2825000Y5400000D01*
X1459999Y11174203D02*
X4175010Y8459192D01*
X1459999Y13324001D02*
X1459999Y11174203D01*
X4175010Y8459192D02*
X4175010Y6750010D01*
X2135999Y14000001D02*
X1459999Y13324001D01*
X3999999Y14000001D02*
X2135999Y14000001D01*
X5300000Y12700000D02*
X3999999Y14000001D01*
X31510000Y3690000D02*
X30400000Y4800000D01*
X33090000Y3690000D02*
X31510000Y3690000D01*
M02*
