M48
; DRILL file {KiCad 5.1.2-f72e74a~84~ubuntu18.04.1} date jeu. 18 juil. 2019 22:14:56 CEST
; FORMAT={-:-/ absolute / inch / decimal}
; #@! TF.CreationDate,2019-07-18T22:14:56+02:00
; #@! TF.GenerationSoftware,Kicad,Pcbnew,5.1.2-f72e74a~84~ubuntu18.04.1
; #@! TF.FileFunction,Plated,1,2,PTH
FMAT,2
INCH
T1C0.0295
T2C0.0315
T3C0.0374
T4C0.0394
T5C0.0591
T6C0.0598
%
G90
G05
T1
X6.7283Y-2.7953
X6.7283Y-2.8453
X6.7283Y-2.8953
T2
X7.0748Y-2.8071
X7.0748Y-2.8858
X6.4866Y-2.8465
X6.5866Y-2.8465
X7.248Y-2.7165
X7.3031Y-2.4213
X6.9016Y-2.7953
X6.9016Y-2.8937
T3
X6.4843Y-3.0354
X6.4843Y-3.1339
X6.4843Y-3.2323
T4
X7.6807Y-3.2012
X7.8854Y-2.0437
X8.0823Y-2.0437
X8.287Y-3.2012
T5
X7.4843Y-2.0622
X7.4843Y-2.8622
X6.685Y-3.1575
X7.5748Y-3.1575
X6.4646Y-2.1181
X7.3543Y-2.1181
T6
X6.5315Y-2.4173
X6.5315Y-2.6173
T0
M30
